SplineFontDB: 3.0
FontName: Delphine
FullName: Delphine
FamilyName: Delphine
Weight: Book
Copyright: (C)Steve Jordi - Delphine Handwriting - steve@sjordi.com 
Version: 
ItalicAngle: 0
UnderlinePosition: -133
UnderlineWidth: 20
Ascent: 800
Descent: 200
InvalidEm: 0
LayerCount: 2
Layer: 0 1 "Back" 1
Layer: 1 1 "Fore" 0
XUID: [1021 984 1644777965 16059044]
OS2Version: 0
OS2_WeightWidthSlopeOnly: 0
OS2_UseTypoMetrics: 0
CreationTime: 1545738115
ModificationTime: 1545738115
PfmFamily: 81
TTFWeight: 400
TTFWidth: 5
LineGap: 0
VLineGap: 0
Panose: 0 0 4 0 0 0 0 0 0 0
OS2TypoAscent: 887
OS2TypoAOffset: 1
OS2TypoDescent: -346
OS2TypoDOffset: 1
OS2TypoLinegap: 0
OS2WinAscent: 0
OS2WinAOffset: 1
OS2WinDescent: 0
OS2WinDOffset: 1
HheadAscent: 0
HheadAOffset: 1
HheadDescent: 0
HheadDOffset: 1
OS2SubXSize: 700
OS2SubYSize: 650
OS2SubXOff: 0
OS2SubYOff: 143
OS2SupXSize: 700
OS2SupYSize: 650
OS2SupXOff: 0
OS2SupYOff: 453
OS2StrikeYSize: 50
OS2StrikeYPos: 259
OS2Vendor: 'MACR'
Lookup: 4 0 0 "'frac' Diagonal Fractions lookup 0" { "'frac' Diagonal Fractions lookup 0 subtable"  } ['frac' ('DFLT' <'dflt' > ) ]
DEI: 91125
TtTable: prep
NPUSHB
 21
 13
 13
 12
 12
 11
 11
 10
 10
 9
 9
 4
 4
 3
 3
 2
 2
 1
 1
 0
 0
 0
SCANTYPE
PUSHW_1
 511
SCANCTRL
RCVT
ROUND[Grey]
WCVTP
RCVT
ROUND[Grey]
WCVTP
RCVT
ROUND[Grey]
WCVTP
RCVT
ROUND[Grey]
WCVTP
RCVT
ROUND[Grey]
WCVTP
RCVT
ROUND[Grey]
WCVTP
RCVT
ROUND[Grey]
WCVTP
RCVT
ROUND[Grey]
WCVTP
RCVT
ROUND[Grey]
WCVTP
RCVT
ROUND[Grey]
WCVTP
PUSHB_4
 6
 5
 70
 0
CALL
PUSHB_4
 8
 7
 70
 0
CALL
PUSHB_2
 5
 5
RCVT
ROUND[Grey]
WCVTP
PUSHB_2
 7
 7
RCVT
ROUND[Grey]
WCVTP
EndTTInstrs
TtTable: fpgm
NPUSHB
 1
 0
FDEF
SROUND
RCVT
DUP
PUSHB_1
 3
CINDEX
RCVT
SWAP
SUB
ROUND[Grey]
RTG
SWAP
ROUND[Grey]
ADD
WCVTP
ENDF
EndTTInstrs
ShortTable: cvt  17
  -300
  -28
  348
  444
  498
  44
  55
  45
  37
  44
  121
  313
  466
  265
  23133
  1
  3
EndShort
ShortTable: maxp 16
  1
  0
  190
  207
  7
  0
  0
  2
  8
  64
  10
  0
  96
  207
  1
  1
EndShort

StartChar: .notdef
Encoding: 0 -1 0
Width: 500
Flags: W
LayerCount: 2
Fore
SplineSet
63 0 m 1,0,-1
 63 800 l 1,1,-1
 438 800 l 1,2,-1
 438 0 l 1,3,-1
 63 0 l 1,0,-1
125 63 m 1,4,-1
 375 63 l 1,5,-1
 375 738 l 1,6,-1
 125 738 l 1,7,-1
 125 63 l 1,4,-1
EndSplineSet
EndChar

StartChar: exclam
Encoding: 33 33 2
Width: 263
Flags: W
LayerCount: 2
Fore
SplineSet
223 587 m 0,0,1
 223 560 223 560 214 527 c 0,2,3
 197 465 197 465 197 376 c 0,4,5
 197 325 197 325 198 320.5 c 128,-1,6
 199 316 199 316 208 307 c 128,-1,7
 217 298 217 298 217 294 c 0,8,9
 217 282 217 282 205 262 c 128,-1,10
 193 242 193 242 183 242 c 0,11,12
 165 242 165 242 158 262 c 1,13,14
 152 292 l 0,15,16
 152 293 152 293 154 296.5 c 128,-1,17
 156 300 156 300 156 301 c 0,18,19
 156 304 156 304 153 304 c 1,20,21
 152 324 152 324 156 331 c 1,22,23
 155 350 155 350 155 368 c 0,24,25
 155 476 155 476 198 609 c 1,26,27
 202 614 202 614 212 619 c 1,28,29
 223 603 223 603 223 587 c 0,0,1
149 -25 m 0,30,31
 139 -39 139 -39 123 -39 c 0,32,33
 112 -39 112 -39 102 -27 c 0,34,35
 94 -18 94 -18 94 -13 c 0,36,37
 94 -4 94 -4 102 6 c 128,-1,38
 110 16 110 16 120 16 c 0,39,40
 131 16 131 16 140.5 5 c 128,-1,41
 150 -6 150 -6 150 -18 c 0,42,43
 150 -22 150 -22 149 -25 c 0,30,31
EndSplineSet
EndChar

StartChar: quotedbl
Encoding: 34 34 3
Width: 702
Flags: W
LayerCount: 2
Fore
SplineSet
681 752 m 1,0,1
 676 752 676 752 663 760 c 1,2,3
 621 689 621 689 550 551 c 1,4,5
 528 505 528 505 482 406 c 1,6,7
 450 326 450 326 375 161 c 0,8,9
 370 151 370 151 352.5 137.5 c 128,-1,10
 335 124 335 124 322 125 c 2,11,-1
 288 125 l 1,12,13
 277 136 277 136 277 154 c 0,14,15
 277 193 277 193 379 427 c 0,16,17
 469 633 469 633 494 678 c 1,18,19
 526 731 526 731 576 831 c 1,20,21
 604 853 604 853 628 853 c 0,22,23
 637 853 637 853 651.5 847.5 c 128,-1,24
 666 842 666 842 672 842 c 0,25,26
 677 842 677 842 681 844 c 1,27,-1
 681 752 l 1,0,1
505 828 m 0,28,29
 505 814 505 814 463 727 c 0,30,31
 424 648 424 648 392 593 c 1,32,33
 352 530 352 530 287 407 c 0,34,35
 285 403 285 403 285 399 c 0,36,37
 285 392 285 392 290 377.5 c 128,-1,38
 295 363 295 363 296 357 c 1,39,40
 283 315 283 315 244 251 c 0,41,42
 188 158 188 158 141 158 c 0,43,44
 113 158 113 158 93 173.5 c 128,-1,45
 73 189 73 189 73 213 c 0,46,47
 73 250 73 250 146 377 c 1,48,49
 185 440 185 440 223 504 c 0,50,51
 327 682 327 682 449 887 c 1,52,53
 505 856 505 856 505 828 c 0,28,29
EndSplineSet
EndChar

StartChar: numbersign
Encoding: 35 35 4
Width: 543
Flags: W
LayerCount: 2
Fore
SplineSet
646 199 m 1,0,1
 639 189 639 189 614 189 c 0,2,3
 611 189 611 189 603.5 192 c 128,-1,4
 596 195 596 195 592 195 c 0,5,6
 589 195 589 195 554 185 c 0,7,8
 512 173 512 173 496 169 c 0,9,10
 469 163 469 163 413 150 c 0,11,12
 374 140 374 140 373 140 c 0,13,14
 369 140 369 140 368.5 141 c 128,-1,15
 368 142 368 142 365 142 c 0,16,17
 357 142 357 142 339 136 c 0,18,19
 318 129 318 129 313 121 c 0,20,21
 305 109 305 109 302 88.5 c 128,-1,22
 299 68 299 68 296 50 c 1,23,24
 291 36 291 36 285 8 c 1,25,26
 287 -3 287 -3 286 -25 c 0,27,28
 284 -37 284 -37 267 -37 c 0,29,30
 246 -37 246 -37 246 -4 c 0,31,32
 246 19 246 19 274 116 c 1,33,34
 265 120 265 120 253 120 c 1,35,36
 255 120 255 120 209 108 c 0,37,38
 199 106 199 106 194 96 c 0,39,40
 191 91 191 91 183 44 c 0,41,42
 177 4 177 4 167 4 c 0,43,44
 141 4 141 4 141 22 c 0,45,46
 141 26 141 26 150.5 59.5 c 128,-1,47
 160 93 160 93 160 97 c 0,48,49
 160 102 160 102 158 104 c 1,50,51
 153 102 153 102 120 96 c 0,52,53
 102 92 102 92 91 84 c 0,54,55
 87 81 87 81 79 63 c 0,56,57
 77 60 77 60 62 60 c 256,58,59
 47 60 47 60 47 75 c 0,60,61
 47 84 47 84 59 99 c 0,62,63
 67 109 67 109 86 115 c 1,64,65
 88 118 88 118 92 122 c 1,66,67
 130 135 130 135 172 140 c 1,68,69
 174 147 174 147 180 156 c 1,70,71
 183 165 183 165 189.5 187 c 128,-1,72
 196 209 196 209 199 221 c 1,73,74
 196 223 196 223 178 223 c 0,75,76
 175 223 175 223 126 217 c 128,-1,77
 77 211 77 211 73.5 211 c 128,-1,78
 70 211 70 211 50.5 210 c 128,-1,79
 31 209 31 209 28 209 c 1,80,81
 29 209 29 209 0 218 c 1,82,-1
 0 230 l 1,83,84
 11 241 11 241 38 244 c 0,85,86
 58 245 58 245 79 246 c 0,87,88
 106 249 106 249 113 248 c 1,89,90
 116 250 116 250 115 251 c 1,91,92
 122 251 122 251 156 254 c 0,93,94
 181 255 181 255 197 255 c 1,95,96
 209 257 209 257 211.5 263 c 128,-1,97
 214 269 214 269 235 326 c 0,98,99
 250 369 250 369 264 388 c 1,100,101
 264 383 264 383 270 367.5 c 128,-1,102
 276 352 276 352 276 350 c 0,103,104
 276 355 276 355 248 273 c 1,105,-1
 248 266 l 1,106,107
 275 262 275 262 307 266 c 1,108,109
 313 310 l 1,110,111
 315 336 315 336 321 387 c 0,112,113
 323 397 323 397 336 397 c 0,114,115
 339 397 339 397 344 390 c 128,-1,116
 349 383 349 383 352 383 c 0,117,118
 356 383 356 383 357 384 c 128,-1,119
 358 385 358 385 359 385 c 1,120,121
 359 388 359 388 351 378 c 1,122,123
 348 337 348 337 345 291 c 1,124,-1
 345 275 l 1,125,126
 370 275 370 275 423.5 278 c 128,-1,127
 477 281 477 281 476 281 c 1,128,129
 479 281 479 281 531 283.5 c 128,-1,130
 583 286 583 286 587 286 c 0,131,132
 590 286 590 286 597.5 284 c 128,-1,133
 605 282 605 282 606 282 c 1,134,135
 608 278 608 278 612 276 c 1,136,137
 612 271 612 271 616 260 c 1,138,139
 614 257 614 257 612 253.5 c 128,-1,140
 610 250 610 250 606 250 c 0,141,142
 603 250 603 250 603.5 251.5 c 128,-1,143
 604 253 604 253 601 253 c 256,144,145
 598 253 598 253 591 247.5 c 128,-1,146
 584 242 584 242 579 240 c 0,147,148
 562 234 562 234 532 234 c 0,149,150
 531 234 531 234 512 249 c 1,151,152
 509 250 509 250 501 250 c 0,153,154
 459 250 459 250 352 235 c 0,155,156
 340 234 340 234 338 226 c 0,157,158
 333 209 333 209 323 175 c 1,159,160
 330 167 330 167 334 167 c 256,161,162
 338 167 338 167 347.5 170 c 128,-1,163
 357 173 357 173 360 173 c 0,164,165
 376 173 376 173 494 203 c 0,166,167
 597 230 597 230 636 242 c 1,168,-1
 646 242 l 1,169,-1
 646 199 l 1,0,1
301 231 m 1,170,-1
 283 231 l 2,171,172
 274 231 274 231 247 227 c 0,173,174
 238 226 238 226 233 219 c 1,175,176
 233 216 233 216 231.5 211 c 128,-1,177
 230 206 230 206 230 205 c 1,178,179
 227 203 227 203 221 182 c 1,180,181
 224 182 224 182 226 180 c 1,182,183
 212 171 212 171 216 148 c 1,184,185
 267 153 267 153 287 157 c 1,186,187
 290 188 290 188 301 231 c 1,170,-1
EndSplineSet
EndChar

StartChar: dollar
Encoding: 36 36 5
Width: 441
Flags: W
LayerCount: 2
Fore
SplineSet
428 380 m 0,0,1
 428 374 428 374 420.5 369 c 128,-1,2
 413 364 413 364 408 364 c 0,3,4
 397 364 397 364 381 407 c 0,5,6
 377 419 377 419 359 443 c 1,7,8
 342 423 342 423 332 362 c 0,9,10
 332 360 332 360 327 351.5 c 128,-1,11
 322 343 322 343 322 338 c 1,12,13
 311 327 311 327 297 280 c 1,14,15
 297 276 297 276 318 253 c 0,16,17
 342 227 342 227 347 218 c 0,18,19
 370 184 370 184 370 146 c 0,20,21
 370 135 370 135 360 108 c 128,-1,22
 350 81 350 81 347 78 c 0,23,24
 336 67 336 67 308 47 c 1,25,26
 299 46 299 46 284 40 c 1,27,28
 260 21 260 21 229 17 c 0,29,30
 206 15 206 15 184 12 c 1,31,32
 174 0 174 0 170 -13 c 1,33,34
 168 -31 168 -31 167 -49 c 0,35,36
 163 -78 163 -78 146 -78 c 0,37,38
 142 -78 142 -78 124 -68 c 1,39,40
 126 -64 126 -64 126 -61 c 0,41,42
 126 -53 126 -53 113 -40 c 0,43,44
 95 -22 95 -22 90 -13 c 1,45,46
 92 -9 92 -9 103 0 c 1,47,48
 105 12 105 12 105 36 c 1,49,50
 77 57 77 57 49 79 c 0,51,52
 10 112 10 112 10 138 c 0,53,54
 10 162 10 162 29 162 c 0,55,56
 38 162 38 162 70 138 c 1,57,58
 70 137 70 137 72 113 c 1,59,60
 77 108 77 108 115 77 c 1,61,-1
 203 272 l 1,62,63
 209 265 209 265 209 272 c 0,64,65
 209 282 209 282 157 307 c 1,66,67
 156 311 156 311 152 317 c 1,68,69
 139 312 139 312 112 343 c 0,70,71
 107 350 107 350 94 377 c 0,72,73
 93 378 93 378 93 394 c 0,74,75
 93 448 93 448 159 490 c 0,76,77
 216 525 216 525 265 525 c 0,78,79
 268 525 268 525 286 522 c 128,-1,80
 304 519 304 519 308 519 c 0,81,82
 317 519 317 519 334 550 c 128,-1,83
 351 581 351 581 353.5 582 c 128,-1,84
 356 583 356 583 364 583 c 0,85,86
 368 583 368 583 371 581.5 c 128,-1,87
 374 580 374 580 378 580 c 0,88,89
 380 580 380 580 386.5 584.5 c 128,-1,90
 393 589 393 589 398 589 c 0,91,92
 405 589 405 589 419 576 c 1,93,-1
 419 559 l 1,94,95
 410 552 410 552 392 530 c 1,96,97
 396 525 396 525 394 525 c 1,98,99
 389 521 389 521 395 521 c 1,100,101
 393 519 393 519 390 522 c 1,102,103
 373 500 373 500 373 488 c 1,104,105
 390.5 467 l 130,-1,106
 408 446 408 446 418 424 c 0,107,108
 428 398 428 398 428 380 c 0,0,1
288 479 m 1,109,110
 267 485 267 485 259 485 c 0,111,112
 220 485 220 485 179 458 c 0,113,114
 132 427 132 427 132 386 c 0,115,116
 132 381 132 381 141.5 375 c 128,-1,117
 151 369 151 369 152 367 c 0,118,119
 155 361 155 361 185.5 341 c 128,-1,120
 216 321 216 321 221 321 c 256,121,122
 226 321 226 321 230 325 c 1,123,124
 246 383 246 383 273 429 c 1,125,126
 279 448 279 448 288 479 c 1,109,110
327 146 m 0,127,128
 327 159 327 159 311 204 c 0,129,130
 309 210 309 210 280 229 c 1,131,-1
 200 64 l 1,132,-1
 200 53 l 1,133,-1
 222 53 l 2,134,135
 235 52 235 52 281 75 c 1,136,137
 294 86 294 86 314 100 c 1,138,139
 327 126 327 126 327 146 c 0,127,128
216 191 m 1,140,-1
 212 194 l 1,141,-1
 204 183 l 1,142,-1
 208 180 l 1,143,-1
 216 191 l 1,140,-1
207 173 m 1,144,-1
 202 175 l 1,145,-1
 198 167 l 1,146,-1
 203 165 l 1,147,-1
 207 173 l 1,144,-1
57 94 m 1,148,-1
 52 99 l 1,149,-1
 49 96 l 1,150,-1
 54 92 l 1,151,-1
 57 94 l 1,148,-1
EndSplineSet
EndChar

StartChar: percent
Encoding: 37 37 6
Width: 508
Flags: W
LayerCount: 2
Fore
SplineSet
254 445 m 1,0,-1
 240 445 l 1,1,-1
 240 452 l 1,2,-1
 254 452 l 1,3,-1
 254 445 l 1,0,-1
239 480 m 0,4,5
 239 469 239 469 222 445 c 128,-1,6
 205 421 205 421 197 417 c 1,7,8
 185 408 185 408 172 400 c 0,9,10
 155 388 155 388 149 388 c 0,11,12
 144 388 144 388 141 390 c 128,-1,13
 138 392 138 392 133 392 c 0,14,15
 129 392 129 392 113 378.5 c 128,-1,16
 97 365 97 365 92 365 c 128,-1,17
 87 365 87 365 76.5 361 c 128,-1,18
 66 357 66 357 61 357 c 0,19,20
 35 357 35 357 24 380 c 1,21,-1
 28 383 l 1,22,23
 28 388 28 388 23 388 c 0,24,25
 15 388 15 388 17 407 c 1,26,27
 19 409 19 409 25 413 c 1,28,-1
 27 413 l 1,29,30
 24 416 24 416 20 416 c 1,31,32
 20 422 20 422 27 429 c 1,33,34
 25 432 25 432 16 432 c 1,35,36
 16 434 16 434 20 438.5 c 128,-1,37
 24 443 24 443 24 445 c 0,38,39
 22 452 22 452 29 464 c 0,40,41
 45 492 45 492 73 512 c 0,42,43
 75 513 75 513 123 545 c 1,44,45
 135 545 135 545 143 537 c 1,46,47
 159 552 159 552 163 561 c 1,48,49
 163 545 163 545 172 538 c 1,50,51
 178 539 178 539 191 535 c 1,52,53
 239 507 239 507 239 480 c 0,4,5
467 572 m 256,54,55
 467 567 467 567 464 569 c 1,56,57
 462 572 462 572 461 571 c 1,58,59
 462 569 462 569 464 565 c 1,60,61
 463 563 463 563 463 542 c 128,-1,62
 463 521 463 521 452 515 c 1,63,64
 451 513 451 513 449 511.5 c 128,-1,65
 447 510 447 510 441 510 c 0,66,67
 436 510 436 510 434 512 c 128,-1,68
 432 514 432 514 427 514 c 0,69,70
 407 514 407 514 363 444 c 0,71,72
 329 390 329 390 257 280 c 0,73,74
 243 260 243 260 212 206 c 1,75,76
 187 171 187 171 147 104 c 1,77,78
 149 100 149 100 153 100 c 1,79,80
 142 98 142 98 126.5 35.5 c 128,-1,81
 111 -27 111 -27 92 -27 c 0,82,83
 87 -27 87 -27 85 -31 c 128,-1,84
 83 -35 83 -35 78 -35 c 0,85,86
 68 -35 68 -35 61.5 -23 c 128,-1,87
 55 -11 55 -11 55 0 c 0,88,89
 55 24 55 24 87 93 c 0,90,91
 96 114 96 114 115 152 c 1,92,93
 174 247 174 247 287 429 c 1,94,95
 317 469 317 469 378 556 c 1,96,97
 397 566 397 566 424 592 c 1,98,99
 429 592 429 592 437.5 585 c 128,-1,100
 446 578 446 578 448 576 c 1,101,102
 451 588 451 588 461 612 c 1,103,-1
 465 606 l 1,104,105
 466 602 466 602 461 595 c 128,-1,106
 456 588 456 588 456 586 c 0,107,108
 457 584 457 584 462 586 c 1,109,110
 467 577 467 577 467 572 c 256,54,55
431 86 m 0,111,112
 431 80 431 80 412 60 c 1,113,114
 410 54 410 54 406 44 c 1,115,116
 370 19 370 19 334 -7 c 1,117,118
 279 -43 279 -43 257 -43 c 0,119,120
 252 -43 252 -43 248 -41 c 0,121,122
 245 -40 245 -40 242 -41 c 1,123,124
 242 -47 242 -47 233 -47 c 0,125,126
 218 -47 218 -47 201 -36 c 128,-1,127
 184 -25 184 -25 184 -10 c 0,128,129
 184 28 184 28 227.5 94.5 c 128,-1,130
 271 161 271 161 302 161 c 0,131,132
 319 161 319 161 324 141.5 c 128,-1,133
 329 123 329 123 329 122 c 1,134,135
 334 122 334 122 353.5 125.5 c 128,-1,136
 373 129 373 129 378 129 c 0,137,138
 392 129 392 129 411.5 112.5 c 128,-1,139
 431 96 431 96 431 86 c 0,111,112
184 477 m 1,140,141
 171 490 171 490 165 490 c 1,142,143
 165 478 165 478 166 476 c 1,144,145
 165 475 165 475 161 472.5 c 128,-1,146
 157 470 157 470 157 464 c 2,147,-1
 157 451 l 1,148,149
 174 457 174 457 184 477 c 1,140,141
153 444 m 1,150,151
 144 470 144 470 135 474 c 1,152,153
 99 444 l 0,154,155
 78 427 78 427 75 413 c 1,156,157
 78 412 78 412 81 412 c 0,158,159
 93 412 93 412 116 425 c 0,160,161
 146 442 146 442 153 444 c 1,150,151
360 73 m 1,162,163
 347 71 347 71 317 65 c 0,164,165
 291 59 291 59 286 59 c 256,166,167
 281 59 281 59 276.5 61 c 128,-1,168
 272 63 272 63 269 63 c 0,169,170
 260 63 260 63 251 36 c 0,171,172
 244 14 244 14 244 4 c 1,173,-1
 264 4 l 2,174,175
 272 4 272 4 309 31 c 128,-1,176
 346 58 346 58 360 73 c 1,162,163
EndSplineSet
EndChar

StartChar: ampersand
Encoding: 38 38 7
Width: 522
Flags: W
LayerCount: 2
Fore
SplineSet
537 258 m 0,0,1
 537 253 537 253 513 228 c 0,2,3
 484 197 484 197 476 185 c 0,4,5
 464 168 464 168 441 138 c 0,6,7
 436 131 436 131 406 104 c 0,8,9
 380 81 380 81 380 75 c 256,10,11
 380 69 380 69 388.5 59.5 c 128,-1,12
 397 50 397 50 403 49 c 1,13,14
 400 34 400 34 419.5 6 c 128,-1,15
 439 -22 439 -22 439 -34 c 0,16,17
 439 -42 439 -42 432.5 -51 c 128,-1,18
 426 -60 426 -60 419 -60 c 0,19,20
 397 -60 397 -60 370 -4 c 1,21,22
 356 13 356 13 327 50 c 1,23,24
 263 17 263 17 199 -15 c 1,25,26
 120 -52 120 -52 62 -52 c 0,27,28
 55 -52 55 -52 38 -43 c 128,-1,29
 21 -34 21 -34 13 -24 c 0,30,31
 7 -17 7 -17 7 9 c 0,32,33
 7 34 7 34 45 95 c 0,34,35
 76 143 76 143 107 190 c 1,36,37
 119 200 119 200 138 221 c 1,38,39
 211 264 211 264 211 281 c 0,40,41
 211 286 211 286 206 296 c 0,42,43
 198 309 198 309 197 314 c 0,44,45
 172 384 172 384 159 441 c 1,46,47
 158 451 158 451 155 480 c 0,48,49
 153 506 153 506 153 511 c 0,50,51
 153 529 153 529 161 574 c 1,52,53
 170 591 170 591 181 621 c 1,54,55
 185 641 185 641 191 649 c 0,56,57
 203 665 203 665 231 665 c 0,58,59
 274 665 274 665 329 617 c 0,60,61
 379 574 379 574 410 519 c 1,62,63
 418 495 418 495 434 450 c 1,64,65
 429 450 429 450 426 454 c 1,66,67
 425 402 425 402 381 352 c 0,68,69
 349 315 349 315 278 263 c 1,70,-1
 313 194 l 2,71,72
 323 174 323 174 344 135 c 1,73,74
 347 132 347 132 353 132 c 0,75,76
 366 132 366 132 404 172 c 1,77,78
 408 179 408 179 417 192 c 1,79,80
 419 197 419 197 434 206 c 1,81,82
 433 216 433 216 455 252.5 c 128,-1,83
 477 289 477 289 492 289 c 0,84,85
 503 289 503 289 520 277.5 c 128,-1,86
 537 266 537 266 537 258 c 0,0,1
376 484 m 1,87,88
 360 489 360 489 342 517 c 0,89,90
 320 554 320 554 307 565 c 0,91,92
 284 587 284 587 236 607 c 1,93,94
 214 572 214 572 212.5 559.5 c 128,-1,95
 211 547 211 547 207.5 516.5 c 128,-1,96
 204 486 204 486 204 481 c 0,97,98
 204 472 204 472 211 438 c 0,99,100
 220 401 220 401 228 380 c 1,101,102
 235 375 235 375 244 366 c 1,103,104
 235 359 235 359 240 350 c 1,105,106
 248 340 248 340 256 313 c 1,107,108
 295 330 295 330 354 399 c 0,109,110
 367 414 367 414 369 439 c 0,111,112
 370 458 370 458 372 478 c 1,113,-1
 376 484 l 1,87,88
309 94 m 1,114,115
 306 100 306 100 268 171 c 0,116,117
 243 218 243 218 237 218 c 2,118,-1
 227 218 l 2,119,120
 213 218 213 218 170 169 c 0,121,122
 130 124 130 124 120 104 c 1,123,124
 115 102 115 102 107 96 c 1,125,126
 99 78 99 78 79 45 c 0,127,128
 62 19 62 19 62 15 c 0,129,130
 62 8 62 8 67 3 c 1,131,-1
 99 3 l 2,132,133
 113 3 113 3 208 47 c 0,134,135
 259 71 259 71 309 94 c 1,114,115
EndSplineSet
EndChar

StartChar: quotesingle
Encoding: 39 39 8
Width: 242
Flags: W
LayerCount: 2
Fore
SplineSet
229 606 m 0,0,1
 229 594 229 594 202 544 c 1,2,3
 200 533 200 533 193 513 c 1,4,5
 183 493 183 493 89 353 c 0,6,7
 56 303 56 303 44 303 c 0,8,9
 40 303 40 303 33.5 305 c 128,-1,10
 27 307 27 307 24 307 c 1,11,-1
 24 323 l 1,12,13
 93 420 93 420 139 501 c 0,14,15
 146 514 146 514 170 566 c 1,16,17
 173 585 173 585 185 618 c 1,18,19
 193 629 193 629 207 629 c 0,20,21
 229 629 229 629 229 606 c 0,0,1
EndSplineSet
EndChar

StartChar: parenleft
Encoding: 40 40 9
Width: 260
Flags: W
LayerCount: 2
Fore
SplineSet
286 531 m 1,0,1
 271 528 271 528 241 515 c 1,2,3
 226 503 226 503 221 495 c 1,4,5
 215 494 215 494 208.5 485 c 128,-1,6
 202 476 202 476 199 474 c 0,7,8
 150 439 150 439 114 385 c 0,9,10
 99 363 99 363 91 333 c 0,11,12
 61 232 61 232 61 120 c 0,13,14
 61 117 61 117 63.5 113 c 128,-1,15
 66 109 66 109 66 107 c 0,16,17
 65 79 65 79 71 56.5 c 128,-1,18
 77 34 77 34 83 13 c 0,19,20
 85 3 85 3 96.5 -21 c 128,-1,21
 108 -45 108 -45 108 -49 c 0,22,23
 108 -67 108 -67 90 -67 c 0,24,25
 63 -67 63 -67 41 23 c 0,26,27
 25 91 25 91 25 120 c 0,28,29
 25 225 25 225 52 314 c 0,30,31
 83 417 83 417 143 466 c 1,32,33
 157 484 l 0,34,35
 169 498 169 498 180 497 c 1,36,37
 185 514 185 514 217 534 c 128,-1,38
 249 554 249 554 266 554 c 0,39,40
 280 554 280 554 286 549 c 1,41,-1
 286 531 l 1,0,1
229 526 m 1,42,-1
 229 533 l 1,43,-1
 225 533 l 1,44,-1
 225 526 l 1,45,-1
 229 526 l 1,42,-1
224 532 m 1,46,-1
 220 534 l 1,47,-1
 217 527 l 1,48,-1
 221 525 l 1,49,-1
 224 532 l 1,46,-1
EndSplineSet
EndChar

StartChar: parenright
Encoding: 41 41 10
Width: 157
Flags: W
LayerCount: 2
Fore
SplineSet
155 304 m 256,0,1
 155 279 155 279 149 249.5 c 128,-1,2
 143 220 143 220 127 160 c 1,3,4
 119 136 119 136 91 78 c 0,5,6
 53 -3 53 -3 38 -3 c 0,7,8
 27 -3 27 -3 18 5 c 1,9,10
 15 18 15 18 44 54 c 1,11,12
 55 82 55 82 85 134 c 1,13,14
 94 162 94 162 110 218 c 1,15,16
 120 265 120 265 120 294 c 0,17,18
 120 334 120 334 107 372 c 0,19,20
 96 406 96 406 67 467 c 1,21,22
 64 471 64 471 37 509 c 0,23,24
 35 512 35 512 -2 549 c 1,25,26
 -2 553 -2 553 6 557 c 1,27,28
 3 559 3 559 1 559 c 1,29,30
 7 571 7 571 17 571 c 0,31,32
 39 571 39 571 79 511 c 0,33,34
 115 458 115 458 116 445 c 1,35,36
 119 441 119 441 125 441 c 1,37,38
 125 440 125 440 124 437 c 256,39,40
 123 434 123 434 124 433 c 0,41,42
 133 401 133 401 143 369 c 0,43,44
 155 329 155 329 155 304 c 256,0,1
EndSplineSet
EndChar

StartChar: asterisk
Encoding: 42 42 11
Width: 957
Flags: W
LayerCount: 2
Fore
SplineSet
872 289 m 0,0,1
 872 266 872 266 832 243 c 0,2,3
 799 224 799 224 783 224 c 0,4,5
 776 224 776 224 764 232 c 0,6,7
 749 242 749 242 744 244 c 0,8,9
 731 248 731 248 706 247 c 0,10,11
 635 246 635 246 648 246 c 1,12,-1
 644 242 l 1,13,-1
 644 227 l 1,14,15
 771 110 771 110 859 14 c 0,16,17
 867 6 867 6 867 -13 c 0,18,19
 867 -22 867 -22 854 -48 c 1,20,21
 848 -44 848 -44 837 -46 c 0,22,23
 819 -48 819 -48 818 -48 c 0,24,25
 806 -48 806 -48 766 -2 c 0,26,27
 717 53 717 53 716 54 c 0,28,29
 708 60 708 60 580 179 c 0,30,31
 546 210 546 210 517 224 c 1,32,33
 506 191 506 191 506 96 c 0,34,35
 506 79 506 79 502.5 43 c 128,-1,36
 499 7 499 7 499 -10 c 0,37,38
 499 -25 499 -25 501 -37 c 1,39,-1
 504 -37 l 1,40,41
 507 -64 507 -64 491 -100 c 1,42,43
 490 -100 490 -100 479.5 -104 c 128,-1,44
 469 -108 469 -108 462 -108 c 0,45,46
 444 -108 444 -108 439 -101 c 1,47,48
 425 -24 425 -24 430 26 c 0,49,50
 434 56 434 56 434 170 c 1,51,52
 415 160 415 160 332 71 c 0,53,54
 261 -4 261 -4 226 -4 c 0,55,56
 196 -4 196 -4 188 39 c 1,57,-1
 253 263 l 1,58,59
 256 271 256 271 244 285 c 1,60,61
 229 284 229 284 201 287 c 0,62,63
 169 289 169 289 166 289 c 0,64,65
 124 289 124 289 116 285.5 c 128,-1,66
 108 282 108 282 98 258 c 0,67,68
 95 253 95 253 83 240 c 1,69,-1
 65 240 l 1,70,71
 41 251 41 251 35.5 258.5 c 128,-1,72
 30 266 30 266 30 284 c 0,73,74
 30 360 30 360 160 360 c 0,75,76
 205 360 205 360 254 349 c 1,77,78
 276 404 276 404 276 433 c 0,79,80
 276 446 276 446 270 470 c 128,-1,81
 264 494 264 494 264 517 c 0,82,83
 264 561 264 561 296 561 c 0,84,85
 327 561 327 561 348.5 530 c 128,-1,86
 370 499 370 499 392 468 c 0,87,88
 421 429 421 429 450 408 c 1,89,90
 461 478 461 478 461 673 c 1,91,92
 464 679 464 679 472 691 c 1,93,94
 523 694 523 694 523 624 c 0,95,96
 523 611 523 611 520 585 c 0,97,98
 517 553 517 553 520 504 c 0,99,100
 523 436 523 436 523 419 c 1,101,102
 543 446 543 446 581 489 c 1,103,104
 583 512 583 512 602.5 533.5 c 128,-1,105
 622 555 622 555 641 555 c 0,106,107
 659 555 659 555 669 547 c 1,108,109
 677 532 677 532 682 532 c 1,110,111
 597 405 597 405 541 330 c 1,112,113
 552 320 552 320 571 318 c 0,114,115
 584 316 584 316 660 316 c 1,116,117
 658 316 658 316 702.5 317 c 128,-1,118
 747 318 747 318 780 318 c 0,119,120
 827 318 827 318 853 316 c 1,121,122
 855 310 855 310 866 310 c 1,123,124
 866 308 866 308 869 302.5 c 128,-1,125
 872 297 872 297 872 289 c 0,0,1
499 494 m 1,126,-1
 491 502 l 1,127,-1
 485 497 l 1,128,-1
 493 489 l 1,129,-1
 499 494 l 1,126,-1
410 334 m 1,130,131
 358 387 358 387 336 403 c 1,132,133
 335 396 335 396 335 339 c 1,134,135
 346 339 346 339 375 336 c 0,136,137
 401 334 401 334 410 334 c 1,130,131
393 237 m 1,138,-1
 393 266 l 1,139,-1
 385 259 l 1,140,141
 372 264 372 264 349.5 264.5 c 128,-1,142
 327 265 327 265 319 267 c 1,143,-1
 319 255 l 1,144,145
 296 173 296 173 296 149 c 0,146,147
 296 139 296 139 299 132 c 1,148,149
 306 141 306 141 356 191 c 0,150,151
 394 229 394 229 393 237 c 1,138,-1
EndSplineSet
EndChar

StartChar: plus
Encoding: 43 43 12
Width: 622
Flags: W
LayerCount: 2
Fore
SplineSet
592 370 m 1,0,1
 585 362 585 362 571 350 c 1,2,3
 554 341 554 341 533 341 c 0,4,5
 529 341 529 341 525 347 c 128,-1,6
 521 353 521 353 517 353 c 0,7,8
 511 353 511 353 507.5 349 c 128,-1,9
 504 345 504 345 501 342 c 1,10,11
 403 324 403 324 413 324 c 2,12,13
 361 324 l 2,14,15
 309 323 309 323 282 323 c 0,16,17
 268 323 268 323 259 313 c 1,18,19
 259 311 259 311 259 217 c 0,20,21
 260 209 260 209 268 178 c 0,22,23
 275 153 275 153 275 148 c 0,24,25
 275 141 275 141 260.5 129 c 128,-1,26
 246 117 246 117 240 117 c 0,27,28
 210 117 210 117 210 160 c 0,29,30
 210 166 210 166 208 165 c 0,31,32
 204 164 204 164 203 164 c 1,33,34
 202 206 202 206 204 298 c 1,35,36
 203 308 203 308 206 326 c 1,37,38
 151 340 151 340 106 343 c 0,39,40
 80 344 80 344 25 346 c 0,41,42
 5 346 5 346 -16 346 c 1,43,44
 -42 350 -42 350 -42 375 c 0,45,46
 -42 402 -42 402 17 402 c 0,47,48
 22 402 22 402 80 399.5 c 128,-1,49
 138 397 138 397 142.5 397 c 128,-1,50
 147 397 147 397 163 395 c 0,51,52
 184 391 184 391 207 389 c 1,53,54
 213 405 213 405 214.5 453.5 c 128,-1,55
 216 502 216 502 223 519 c 1,56,-1
 237 519 l 2,57,58
 239 518 239 518 246 507 c 128,-1,59
 253 496 253 496 257 496 c 0,60,61
 260 496 260 496 263 499 c 1,62,63
 261 480 261 480 264 447 c 0,64,65
 267 404 267 404 268 392 c 1,66,67
 289 381 289 381 314 381 c 0,68,69
 337 381 337 381 350 382 c 0,70,71
 389 384 389 384 460 390 c 1,72,73
 468 392 468 392 488 399 c 128,-1,74
 508 406 508 406 513 406 c 256,75,76
 518 406 518 406 518 404 c 128,-1,77
 518 402 518 402 523 402 c 0,78,79
 527 402 527 402 529 408 c 128,-1,80
 531 414 531 414 537 414 c 0,81,82
 548 414 548 414 566.5 398.5 c 128,-1,83
 585 383 585 383 592 370 c 1,0,1
EndSplineSet
EndChar

StartChar: comma
Encoding: 44 44 13
Width: 141
Flags: W
LayerCount: 2
Fore
SplineSet
97 106 m 0,0,1
 97 51 97 51 80 0 c 0,2,3
 56 -74 56 -74 7 -180 c 1,4,5
 7 -185 7 -185 11 -185 c 1,6,7
 -1 -185 -1 -185 -1 -195 c 1,8,-1
 -35 -195 l 1,9,10
 -35 -194 -35 -194 -37.5 -190.5 c 128,-1,11
 -40 -187 -40 -187 -40 -180 c 0,12,13
 -40 -175 -40 -175 -24 -139 c 0,14,15
 -6 -98 -6 -98 -2 -83 c 0,16,17
 10 -43 10 -43 21 -4 c 0,18,19
 35 49 35 49 38 80 c 0,20,21
 38 83 38 83 37 97 c 128,-1,22
 36 111 36 111 36 120 c 0,23,24
 36 166 36 166 66 166 c 0,25,26
 97 166 97 166 97 106 c 0,0,1
EndSplineSet
EndChar

StartChar: hyphen
Encoding: 45 45 14
AltUni2: 002010.ffffffff.0
Width: 310
Flags: W
LayerCount: 2
Fore
SplineSet
295 156 m 1,0,1
 293 150 293 150 287 139 c 1,2,3
 275 126 275 126 260 126 c 0,4,5
 257 126 257 126 250 130.5 c 128,-1,6
 243 135 243 135 240 135 c 0,7,8
 236 135 236 135 207 129 c 128,-1,9
 178 123 178 123 174 123 c 2,10,-1
 165 126 l 1,11,12
 147 126 147 126 31 110 c 1,13,-1
 24 104 l 1,14,15
 25 104 25 104 4 104 c 0,16,17
 -25 104 -25 104 -25 123 c 0,18,19
 -25 135 -25 135 -15 143 c 1,20,21
 40 154 40 154 46 154 c 2,22,-1
 248 173 l 1,23,24
 280 173 280 173 295 156 c 1,0,1
EndSplineSet
EndChar

StartChar: period
Encoding: 46 46 15
Width: 126
Flags: W
LayerCount: 2
Fore
SplineSet
71 9 m 0,0,1
 71 -2 71 -2 59.5 -14 c 128,-1,2
 48 -26 48 -26 37 -26 c 0,3,4
 23 -26 23 -26 7 -11 c 1,5,6
 11 4 11 4 14 19 c 1,7,8
 21 41 21 41 41 41 c 0,9,10
 49 41 49 41 60 29 c 128,-1,11
 71 17 71 17 71 9 c 0,0,1
EndSplineSet
EndChar

StartChar: slash
Encoding: 47 47 16
Width: 340
Flags: W
LayerCount: 2
Fore
SplineSet
373 441 m 0,0,1
 373 427 373 427 351 398 c 0,2,3
 339 381 339 381 326 365 c 1,4,5
 321 351 321 351 305 325 c 1,6,7
 284 304 284 304 279 274 c 1,8,9
 214 187 214 187 150 99 c 1,10,11
 54 -39 54 -39 54 -79 c 1,12,13
 51 -79 51 -79 42.5 -82.5 c 128,-1,14
 34 -86 34 -86 29 -86 c 0,15,16
 7 -86 7 -86 7 -65 c 0,17,18
 7 -46 7 -46 107 103 c 0,19,20
 229 283 l 1,21,22
 342 459 342 459 353 459 c 0,23,24
 373 459 373 459 373 441 c 0,0,1
EndSplineSet
EndChar

StartChar: zero
Encoding: 48 48 17
Width: 383
Flags: W
LayerCount: 2
Fore
SplineSet
359 322 m 0,0,1
 359 268 359 268 323 154 c 0,2,3
 321 149 321 149 329 141 c 1,4,5
 326 141 326 141 321 147 c 1,6,7
 316 141 316 141 309 128 c 1,8,9
 291 81 291 81 229.5 32 c 128,-1,10
 168 -17 168 -17 130 -17 c 0,11,12
 126 -17 126 -17 127 -15 c 128,-1,13
 128 -13 128 -13 124 -13 c 0,14,15
 119 -13 119 -13 120 -15 c 128,-1,16
 121 -17 121 -17 117 -17 c 128,-1,17
 113 -17 113 -17 104.5 -18.5 c 128,-1,18
 96 -20 96 -20 92 -20 c 0,19,20
 48 -20 48 -20 20 13 c 128,-1,21
 -8 46 -8 46 -8 88 c 0,22,23
 -8 186 -8 186 132 328 c 1,24,25
 124 333 124 333 106 341 c 1,26,27
 106 342 106 342 109 346 c 128,-1,28
 112 350 112 350 113 351 c 1,29,30
 111 355 l 1,31,32
 129 395 129 395 181 424 c 0,33,34
 226 450 226 450 260 450 c 0,35,36
 310 450 310 450 337 406 c 0,37,38
 359 370 359 370 359 322 c 0,0,1
329 314 m 1,39,40
 320 321 320 321 318 337 c 0,41,42
 314 361 314 361 314 362 c 0,43,44
 306 384 306 384 283 402 c 0,45,46
 273 410 273 410 250 410 c 0,47,48
 232 410 232 410 190.5 383 c 128,-1,49
 149 356 149 356 146 340 c 1,50,51
 163 351 163 351 179 361 c 0,52,53
 205 377 205 377 222 377 c 0,54,55
 255 377 255 377 255 342 c 0,56,57
 255 337 255 337 244 327 c 1,58,59
 230 337 230 337 210 337 c 1,60,61
 173 319 173 319 166 297 c 1,62,63
 147 296 147 296 93 224 c 0,64,65
 35 147 35 147 35 103 c 0,66,67
 35 99 35 99 37 89 c 128,-1,68
 39 79 39 79 39 75 c 0,69,70
 42 17 42 17 125 17 c 0,71,72
 129 17 129 17 166 34 c 0,73,74
 197 49 197 49 229 78.5 c 128,-1,75
 261 108 261 108 267 130 c 1,76,77
 274 124 274 124 275 124 c 1,78,79
 275 133 275 133 274 135 c 1,80,81
 307 214 307 214 319 308 c 1,82,83
 324 314 324 314 329 314 c 1,39,40
EndSplineSet
EndChar

StartChar: one
Encoding: 49 49 18
Width: 403
Flags: W
LayerCount: 2
Fore
SplineSet
390 371 m 1,0,-1
 386 371 l 1,1,2
 375 357 375 357 372 300 c 0,3,4
 367 223 367 223 336 141 c 1,5,6
 336 131 336 131 329 110 c 0,7,8
 328 104 328 104 335 97 c 1,9,10
 331 100 331 100 329 96 c 0,11,12
 321 67 321 67 331 1 c 1,13,14
 324 -18 324 -18 299 -18 c 0,15,16
 273 -18 273 -18 273 34 c 0,17,18
 273 39 273 39 275.5 40 c 128,-1,19
 278 41 278 41 278 42 c 0,20,21
 272 75 272 75 288 142 c 0,22,23
 303 200 303 200 318 266 c 1,24,-1
 318 292 l 1,25,-1
 313 298 l 1,26,27
 251 241 251 241 159 169 c 1,28,29
 157 166 157 166 160 166 c 1,30,31
 158 164 158 164 155 168 c 1,32,33
 137 157 137 157 104 128 c 1,34,35
 102 125 102 125 105 125 c 1,36,37
 103 123 103 123 100 126 c 1,38,39
 51 103 51 103 -6 42 c 0,40,41
 -8 39 -8 39 -5 39 c 1,42,43
 -7 37 -7 37 -10 40 c 1,44,45
 -15 33 -15 33 -34 18 c 128,-1,46
 -53 3 -53 3 -62 3 c 0,47,48
 -77 3 -77 3 -77 20 c 0,49,50
 -77 35 -77 35 -66.5 45.5 c 128,-1,51
 -56 56 -56 56 -45 66 c 0,52,53
 -7 101 -7 101 52 144 c 0,54,55
 150 214 l 0,56,57
 224 268 224 268 271 308 c 1,58,59
 313 354 l 0,60,61
 355 398 355 398 364 398 c 0,62,63
 372 398 372 398 390 371 c 1,0,-1
EndSplineSet
EndChar

StartChar: two
Encoding: 50 50 19
Width: 357
Flags: W
LayerCount: 2
Fore
SplineSet
391 55 m 1,0,1
 375 35 375 35 364 35 c 0,2,3
 360 35 360 35 332.5 38.5 c 128,-1,4
 305 42 305 42 300 42 c 0,5,6
 296 42 296 42 281.5 40.5 c 128,-1,7
 267 39 267 39 262 39 c 256,8,9
 257 39 257 39 258 40.5 c 128,-1,10
 259 42 259 42 255 42 c 0,11,12
 252 42 252 42 191 21 c 128,-1,13
 130 0 130 0 119 -2 c 0,14,15
 98 -6 98 -6 77 -11 c 128,-1,16
 56 -16 56 -16 51 -26 c 1,17,18
 50 -26 50 -26 47 -24 c 128,-1,19
 44 -22 44 -22 39 -22 c 256,20,21
 34 -22 34 -22 11 -29.5 c 128,-1,22
 -12 -37 -12 -37 -16 -37 c 0,23,24
 -26 -37 -26 -37 -32.5 -28 c 128,-1,25
 -39 -19 -39 -19 -39 -9 c 0,26,27
 -39 4 -39 4 47 70 c 0,28,29
 150 149 150 149 159 158 c 1,30,31
 162 159 162 159 170 160 c 1,32,33
 180 173 180 173 198 201 c 0,34,35
 222 240 222 240 222 270 c 0,36,37
 222 283 222 283 217 297 c 0,38,39
 210 315 210 315 200 315 c 0,40,41
 195 315 195 315 193 313 c 128,-1,42
 191 311 191 311 186 311 c 0,43,44
 183 311 183 311 175 319 c 1,45,46
 165 308 165 308 124.5 290.5 c 128,-1,47
 84 273 84 273 68 251 c 0,48,49
 57 238 57 238 57 213 c 256,50,51
 57 188 57 188 67 169 c 1,52,53
 66 168 66 168 54 161 c 0,54,55
 46 156 46 156 41 156 c 0,56,57
 3 156 3 156 3 207 c 0,58,59
 3 255 3 255 36 287 c 1,60,61
 36 288 36 288 112 344 c 1,62,63
 121 344 121 344 133 346 c 1,64,65
 159 360 159 360 181 363 c 0,66,67
 190 364 190 364 230 364 c 1,68,-1
 234 358 l 1,69,70
 275 333 275 333 275 279 c 0,71,72
 275 219 275 219 240 164 c 1,73,74
 220 148 220 148 184 113 c 1,75,76
 180 105 180 105 168 93 c 1,77,78
 148 84 148 84 142 79 c 0,79,80
 128 70 128 70 120 56 c 1,81,82
 122 54 122 54 130 54 c 0,83,84
 134 54 134 54 147 60.5 c 128,-1,85
 160 67 160 67 163 67 c 0,86,87
 279 95 279 95 338 95 c 0,88,89
 379 95 379 95 387 80 c 1,90,-1
 390 80 l 1,91,92
 390 50 390 50 391 55 c 1,0,1
EndSplineSet
EndChar

StartChar: three
Encoding: 51 51 20
Width: 368
Flags: W
LayerCount: 2
Fore
SplineSet
357 141 m 0,0,1
 357 125 357 125 344.5 101 c 128,-1,2
 332 77 332 77 324 72 c 0,3,4
 291 54 291 54 269 50 c 0,5,6
 193 36 193 36 170 36 c 0,7,8
 167 36 167 36 156 39 c 128,-1,9
 145 42 145 42 141 42 c 0,10,11
 101 42 101 42 52 61 c 0,12,13
 -1 82 -1 82 -16 108 c 0,14,15
 -17 109 -17 109 -22 111 c 1,16,17
 -30 121 -30 121 -30 134 c 0,18,19
 -30 158 -30 158 -4 158 c 0,20,21
 4 158 4 158 15.5 142 c 128,-1,22
 27 126 27 126 30 126 c 0,23,24
 34 126 34 126 35 127.5 c 128,-1,25
 36 129 36 129 37 129 c 1,26,27
 37 127 37 127 31 121 c 1,28,29
 43 106 43 106 85 92 c 128,-1,30
 127 78 127 78 155 78 c 0,31,32
 159 78 159 78 190 79.5 c 128,-1,33
 221 81 221 81 225 81 c 1,34,35
 223 81 223 81 278 95 c 0,36,37
 289 97 289 97 301 113 c 0,38,39
 312 126 312 126 312 142 c 0,40,41
 312 177 312 177 293 186 c 0,42,43
 231 216 231 216 189 216 c 0,44,45
 186 216 186 216 176 214.5 c 128,-1,46
 166 213 166 213 162 213 c 0,47,48
 143 213 143 213 122 224 c 1,49,-1
 122 238 l 1,50,51
 126 248 126 248 139 254 c 0,52,53
 206 284 206 284 221 292 c 0,54,55
 267 318 267 318 280 344 c 1,56,-1
 277 347 l 1,57,58
 263 349 263 349 209 349 c 0,59,60
 205 349 205 349 201.5 345.5 c 128,-1,61
 198 342 198 342 194 342 c 0,62,63
 191 342 191 342 186.5 343.5 c 128,-1,64
 182 345 182 345 178 345 c 0,65,66
 175 345 175 345 170 340.5 c 128,-1,67
 165 336 165 336 160 336 c 0,68,69
 156 336 156 336 154.5 337.5 c 128,-1,70
 153 339 153 339 149 339 c 0,71,72
 136 339 136 339 103 311 c 1,73,74
 100 306 100 306 105 295 c 1,75,76
 100 284 100 284 86 284 c 0,77,78
 76 284 76 284 65 293.5 c 128,-1,79
 54 303 54 303 54 315 c 0,80,81
 54 353 54 353 164 374 c 0,82,83
 237 387 237 387 293 387 c 1,84,-1
 296 382 l 1,85,86
 325 372 325 372 325 349 c 0,87,88
 325 324 325 324 290 293 c 1,89,90
 234 251 l 1,91,92
 266 240 266 240 298 230 c 1,93,94
 335 214 335 214 351 180 c 1,95,96
 351 177 351 177 354 161 c 128,-1,97
 357 145 357 145 357 141 c 0,0,1
EndSplineSet
EndChar

StartChar: four
Encoding: 52 52 21
Width: 319
Flags: W
LayerCount: 2
Fore
SplineSet
291 232 m 0,0,1
 291 228 291 228 286.5 222 c 128,-1,2
 282 216 282 216 282 213 c 1,3,4
 277 213 277 213 271 218 c 1,5,6
 258 214 258 214 257 192 c 0,7,8
 257 175 257 175 257 159 c 1,9,10
 247 64 247 64 247 34 c 0,11,12
 247 28 247 28 250 15.5 c 128,-1,13
 253 3 253 3 254 -2 c 0,14,15
 254 -6 254 -6 248 -15.5 c 128,-1,16
 242 -25 242 -25 235 -25 c 2,17,-1
 224 -25 l 2,18,19
 210 -25 210 -25 204 21 c 0,20,21
 200 49 200 49 200 69 c 0,22,23
 200 73 200 73 207.5 123 c 128,-1,24
 215 173 215 173 215 177 c 0,25,26
 215 212 215 212 198 212 c 0,27,28
 194 212 194 212 116 201.5 c 128,-1,29
 38 191 38 191 34.5 191 c 128,-1,30
 31 191 31 191 19 188 c 128,-1,31
 7 185 7 185 3 185 c 0,32,33
 -13 185 -13 185 -40 200 c 1,34,35
 -44 204 -44 204 -44 211 c 0,36,37
 -44 216 -44 216 -33 230.5 c 128,-1,38
 -22 245 -22 245 -18 247 c 0,39,40
 13 269 13 269 108.5 324.5 c 128,-1,41
 204 380 204 380 209 380 c 0,42,43
 213 380 213 380 217 378.5 c 128,-1,44
 221 377 221 377 222 377 c 1,45,46
 226 391 226 391 240 418 c 1,47,48
 244 420 244 420 250 420 c 0,49,50
 260 420 260 420 266 413 c 1,51,52
 267 409 267 409 263 345 c 0,53,54
 262 340 262 340 264 263 c 1,55,56
 270 260 270 260 280.5 253.5 c 128,-1,57
 291 247 291 247 291 232 c 0,0,1
221 310 m 0,58,59
 221 326 221 326 218 337 c 1,60,-1
 207 337 l 1,61,62
 180 320 180 320 133 296 c 1,63,64
 135 294.5 l 130,-1,65
 137 293 137 293 137 292 c 1,66,67
 136 292 136 292 133 292 c 0,68,69
 129 292 129 292 129.5 293.5 c 128,-1,70
 130 295 130 295 127 295 c 0,71,72
 120 295 120 295 35 235 c 1,73,74
 38 232 38 232 40 228 c 1,75,76
 40 230 40 230 43 234 c 1,77,78
 49 228 49 228 50 228 c 0,79,80
 65 228 65 228 147 241 c 0,81,82
 187 247 187 247 217 256 c 1,83,84
 217 264 217 264 219 287 c 0,85,86
 221 306 221 306 221 310 c 0,58,59
EndSplineSet
EndChar

StartChar: five
Encoding: 53 53 22
Width: 441
Flags: W
LayerCount: 2
Fore
SplineSet
588 490 m 1,0,1
 587 489 587 489 583 463 c 1,2,3
 576 455 576 455 565 443 c 1,4,5
 535 419 535 419 516 419 c 0,6,7
 513 419 513 419 494.5 428.5 c 128,-1,8
 476 438 476 438 471 438 c 256,9,10
 466 438 466 438 455 435 c 128,-1,11
 444 432 444 432 439 432 c 0,12,13
 399 428 399 428 360 419 c 0,14,15
 330 412 330 412 291 412 c 0,16,17
 262 412 262 412 227 405 c 1,18,19
 208 404 208 404 189 404 c 0,20,21
 158 403 158 403 142 393 c 1,22,23
 134 370 134 370 122 324 c 1,24,25
 134 326 134 326 171 333 c 0,26,27
 203 340 203 340 207 340 c 0,28,29
 228 340 228 340 245 328 c 0,30,31
 275 305 275 305 281 302 c 1,32,-1
 277 299 l 1,33,34
 296 262 296 262 296 234 c 0,35,36
 296 229 296 229 293 221 c 128,-1,37
 290 213 290 213 290 209 c 0,38,39
 292 196 292 196 293 171 c 1,40,41
 289 157 289 157 282 134 c 1,42,43
 264 93 264 93 255 77 c 0,44,45
 229 36 229 36 190 11 c 0,46,47
 169 -1 169 -1 143 -1 c 2,48,-1
 128 -1 l 2,49,50
 119 -1 119 -1 82 20 c 1,51,52
 76 20 76 20 63 23 c 1,53,54
 52 31 52 31 29 47 c 1,55,56
 10 55 10 55 -8 63 c 1,57,58
 -33 77 -33 77 -33 95 c 0,59,60
 -33 111 -33 111 -13 120 c 0,61,62
 2 128 2 128 20 128 c 0,63,64
 44 128 44 128 81.5 90 c 128,-1,65
 119 52 119 52 143 52 c 0,66,67
 166 52 166 52 195 90 c 0,68,69
 219 120 219 120 231 149.5 c 128,-1,70
 243 179 243 179 243 209 c 0,71,72
 243 233 243 233 238 253.5 c 128,-1,73
 233 274 233 274 210 285 c 0,74,75
 193 294 193 294 192 294 c 0,76,77
 187 294 187 294 179 286 c 128,-1,78
 171 278 171 278 169 276 c 1,79,80
 155 274 155 274 133 267 c 1,81,82
 125 262 125 262 116 247 c 128,-1,83
 107 232 107 232 111 223 c 1,84,85
 107 223 107 223 99 220.5 c 128,-1,86
 91 218 91 218 86 218 c 0,87,88
 54 218 54 218 54 256 c 0,89,90
 54 280 54 280 92 413 c 1,91,92
 54 433 54 433 54 450 c 256,93,94
 54 467 54 467 69.5 469 c 128,-1,95
 85 471 85 471 100 472 c 1,96,97
 105 487 105 487 110 502.5 c 128,-1,98
 115 518 115 518 132 518 c 0,99,100
 140 518 140 518 145.5 515 c 128,-1,101
 151 512 151 512 155 505 c 1,102,103
 156 495 156 495 160 476 c 1,104,-1
 156 473 l 1,105,106
 162 457 162 457 181 457 c 0,107,108
 186 457 186 457 257 459 c 128,-1,109
 328 461 328 461 332.5 461 c 128,-1,110
 337 461 337 461 447 482 c 128,-1,111
 557 503 557 503 562 503 c 1,112,113
 559 503 559 503 588 490 c 1,0,1
EndSplineSet
EndChar

StartChar: six
Encoding: 54 54 23
Width: 326
Flags: W
LayerCount: 2
Fore
SplineSet
317 368 m 256,0,1
 317 359 317 359 295 350 c 0,2,3
 282 346 282 346 268.5 340 c 128,-1,4
 255 334 255 334 208 292 c 1,5,6
 207 288 207 288 210 284 c 1,7,-1
 206 284 l 1,8,9
 145 228 145 228 151 203 c 0,10,11
 151 205 151 205 147 210 c 1,12,13
 126 178 126 178 108 136 c 1,14,15
 105 133 105 133 114 133 c 0,16,17
 118 133 118 133 130 139.5 c 128,-1,18
 142 146 142 146 146 146 c 0,19,20
 192 155 192 155 202 155 c 0,21,22
 231 155 231 155 268 132 c 0,23,24
 277 126 277 126 290 109 c 0,25,26
 306 87 306 87 306 73 c 0,27,28
 306 48 306 48 278 17 c 0,29,30
 270 7 270 7 241 -12 c 0,31,32
 201 -38 l 1,33,34
 200 -42 200 -42 203 -45 c 1,35,36
 193 -43 193 -43 168 -50 c 0,37,38
 139 -57 139 -57 128 -57 c 0,39,40
 70 -57 70 -57 47 -13 c 1,41,42
 26 -19 26 -19 26 -37 c 0,43,44
 26 -45 26 -45 32 -62.5 c 128,-1,45
 38 -80 38 -80 37 -85 c 1,46,47
 23 -101 23 -101 17 -101 c 0,48,49
 12 -101 12 -101 1 -95.5 c 128,-1,50
 -10 -90 -10 -90 -16 -90 c 1,51,52
 -16 -82 -16 -82 -18 -66 c 128,-1,53
 -20 -50 -20 -50 -20 -46 c 0,54,55
 -20 -2 -20 -2 38 74 c 0,56,57
 46 84 46 84 51 124 c 1,58,59
 55 134 55 134 63 150 c 1,60,61
 83 204 83 204 113 250 c 0,62,63
 155 313 155 313 200 349 c 0,64,65
 256 393 256 393 282 393 c 0,66,67
 295 393 295 393 306 385 c 128,-1,68
 317 377 317 377 317 368 c 256,0,1
255 71 m 0,69,70
 255 84 255 84 225 97 c 0,71,72
 199 108 199 108 180 108 c 0,73,74
 159 108 159 108 132 92 c 0,75,76
 109 78 109 78 86 63 c 1,77,78
 92 25 92 25 93 21 c 0,79,80
 99 -2 99 -2 109 -9 c 1,81,82
 147 -9 147 -9 173 -1 c 0,83,84
 189 4 189 4 218 26 c 0,85,86
 255 52 255 52 255 71 c 0,69,70
EndSplineSet
EndChar

StartChar: seven
Encoding: 55 55 24
Width: 323
Flags: W
LayerCount: 2
Fore
SplineSet
341 156 m 0,0,1
 341 135 341 135 311 135 c 1,2,3
 312 135 312 135 292 137 c 0,4,5
 276 138 276 138 267 137 c 0,6,7
 237 131 237 131 218 129 c 0,8,9
 190 127 190 127 177 111 c 0,10,11
 173 106 173 106 173 90 c 0,12,13
 172 78 172 78 172 66 c 0,14,15
 171 63 171 63 168 56 c 1,16,17
 166 22 166 22 163 -50 c 1,18,19
 153 -69 153 -69 140 -69 c 0,20,21
 116 -69 116 -69 116 -39 c 0,22,23
 116 -35 116 -35 123.5 29 c 128,-1,24
 131 93 131 93 131 97 c 0,25,26
 131 107 131 107 120 107 c 1,27,28
 134 107 134 107 -11 80 c 1,29,30
 -18 90 -18 90 -18 110 c 1,31,32
 -2 122 -2 122 55.5 131.5 c 128,-1,33
 113 141 113 141 137 155 c 1,34,-1
 137 252 l 2,35,36
 137 256 137 256 140 257.5 c 128,-1,37
 143 259 143 259 146 261 c 1,38,39
 143 263 143 263 140 263 c 1,40,41
 141 323 141 323 135 340 c 0,42,43
 124 366 124 366 84 366 c 0,44,45
 79 366 79 366 77.5 362 c 128,-1,46
 76 359 76 359 76 358 c 1,47,48
 65 355 65 355 60 353 c 0,49,50
 51 349 51 349 48 342 c 1,51,52
 47 342 47 342 45.5 343.5 c 128,-1,53
 44 345 44 345 39 345 c 0,54,55
 30 345 30 345 9 326 c 128,-1,56
 -12 307 -12 307 -19 294 c 1,57,58
 -36 290 -36 290 -32 290 c 1,59,60
 -49 290 -49 290 -49 310 c 0,61,62
 -49 332 -49 332 -12 355 c 0,63,64
 71 406 71 406 116 406 c 0,65,66
 182 406 182 406 182 296 c 0,67,68
 182 284 182 284 181 269 c 128,-1,69
 180 254 180 254 180 252 c 0,70,71
 180 218 180 218 182 162 c 1,72,73
 267 183 267 183 294 183 c 0,74,75
 341 183 341 183 341 156 c 0,0,1
153 221 m 1,76,-1
 153 232 l 1,77,-1
 148 232 l 1,78,-1
 148 221 l 1,79,-1
 153 221 l 1,76,-1
147 232 m 1,80,-1
 143 232 l 1,81,-1
 139 221 l 1,82,-1
 143 220 l 1,83,-1
 147 232 l 1,80,-1
EndSplineSet
EndChar

StartChar: eight
Encoding: 56 56 25
Width: 271
Flags: W
LayerCount: 2
Fore
SplineSet
262 408 m 0,0,1
 262 384 262 384 249 344 c 1,2,3
 240 328 240 328 187 228 c 0,4,5
 148 157 148 157 148 152 c 0,6,7
 148 149 148 149 161 123 c 128,-1,8
 174 97 174 97 178 84 c 0,9,10
 186 52 186 52 186 37 c 0,11,12
 186 11 186 11 174 -11 c 0,13,14
 158 -39 158 -39 133 -39 c 0,15,16
 104 -39 104 -39 85 -7 c 0,17,18
 69 20 69 20 69 46 c 0,19,20
 69 68 69 68 86 77 c 1,21,22
 85 79 85 79 81.5 80.5 c 128,-1,23
 78 82 78 82 76 83 c 1,24,25
 97 118 97 118 97 145 c 0,26,27
 97 154 97 154 82.5 175 c 128,-1,28
 68 196 68 196 38 225 c 0,29,30
 -6 268 -6 268 -12 275 c 1,31,32
 -14 283 -14 283 -19 298 c 1,33,34
 -22 295 -22 295 -22 291 c 1,35,36
 -21 294 -21 294 -29.5 301.5 c 128,-1,37
 -38 309 -38 309 -40 313 c 0,38,39
 -51 337 -51 337 -51 355 c 0,40,41
 -51 387 -51 387 -36 411 c 0,42,43
 -31 420 -31 420 -7 441.5 c 128,-1,44
 17 463 17 463 21 463 c 256,45,46
 25 463 25 463 24.5 461.5 c 128,-1,47
 24 460 24 460 28 460 c 0,48,49
 33 460 33 460 34 464 c 128,-1,50
 35 468 35 468 36 469 c 0,51,52
 49 469 49 469 74 474 c 1,53,54
 80 479 80 479 94 489 c 1,55,56
 126 508 126 508 150 508 c 0,57,58
 164 508 164 508 192 499 c 0,59,60
 217 492 217 492 250 456 c 0,61,62
 262 442 262 442 262 408 c 0,0,1
143 389 m 1,63,-1
 138 391 l 1,64,-1
 133 382 l 1,65,-1
 138 380 l 1,66,-1
 143 389 l 1,63,-1
198 290 m 1,67,-1
 193 292 l 1,68,-1
 188 283 l 1,69,-1
 193 281 l 1,70,-1
 198 290 l 1,67,-1
220 400 m 0,71,72
 220 418 220 418 201 439 c 128,-1,73
 182 460 182 460 163 459 c 2,74,-1
 128 459 l 1,75,76
 140 441 140 441 152 422 c 0,77,78
 172 391 172 391 172 381 c 0,79,80
 172 367 172 367 157 367 c 0,81,82
 153 367 153 367 152 368.5 c 128,-1,83
 151 370 151 370 147 370 c 1,84,85
 115.5 397.5 l 130,-1,86
 84 425 84 425 61 425 c 0,87,88
 56 425 56 425 33 414.5 c 128,-1,89
 10 404 10 404 8 400 c 0,90,91
 -6 360 -6 360 -6 355 c 0,92,93
 -6 343 -6 343 19 311 c 0,94,95
 38 286 38 286 47 279 c 1,96,97
 74 251 74 251 126 202 c 1,98,99
 144 229 144 229 175 288 c 0,100,101
 220 374 220 374 220 400 c 0,71,72
138 56 m 1,102,103
 135 66 135 66 126 82 c 1,104,105
 114 64 114 64 114 47 c 0,106,107
 114 15 114 15 134 10 c 1,108,109
 134 7 134 7 136 20 c 128,-1,110
 138 33 138 33 138 56 c 1,102,103
EndSplineSet
EndChar

StartChar: nine
Encoding: 57 57 26
Width: 343
Flags: W
LayerCount: 2
Fore
SplineSet
334 190 m 1,0,1
 325 184 325 184 328 157 c 0,2,3
 329 154 329 154 325 110 c 1,4,5
 330 84 330 84 330 61 c 0,6,7
 330 -2 330 -2 289 -45 c 0,8,9
 285 -49 285 -49 257 -57 c 128,-1,10
 229 -65 229 -65 218 -65 c 0,11,12
 214 -65 214 -65 182 -63 c 128,-1,13
 150 -61 150 -61 146.5 -61 c 128,-1,14
 143 -61 143 -61 133 -55 c 1,15,16
 102 -47 102 -47 72 -40 c 1,17,18
 32 -28 32 -28 8 -8 c 1,19,20
 -8 3 -8 3 -25 14 c 1,21,22
 -51 34 -51 34 -51 49 c 0,23,24
 -51 62 -51 62 -43 72 c 128,-1,25
 -35 82 -35 82 -25 82 c 0,26,27
 -22 82 -22 82 -10.5 78 c 128,-1,28
 1 74 1 74 5 73 c 1,29,30
 8 68 8 68 13 59 c 1,31,32
 17 29 17 29 91 2 c 0,33,34
 157 -21 157 -21 202 -21 c 0,35,36
 218 -21 218 -21 258 -9 c 0,37,38
 263 -7 263 -7 272.5 16.5 c 128,-1,39
 282 40 282 40 282 51 c 2,40,-1
 282 288 l 2,41,42
 282 293 282 293 271 369 c 1,43,-1
 265 375 l 1,44,45
 225 347 225 347 190 332 c 0,46,47
 135 309 135 309 106 309 c 2,48,-1
 88 309 l 2,49,50
 64 309 64 309 43 324 c 0,51,52
 19 340 19 340 19 364 c 0,53,54
 19 401 19 401 64 434 c 0,55,56
 103 462 103 462 122 459 c 1,57,58
 131 474 131 474 185 474 c 0,59,60
 193 474 193 474 244 423 c 1,61,62
 249 428 249 428 252 432 c 1,63,64
 249 437 249 437 249 444 c 0,65,66
 249 474 249 474 271 474 c 0,67,68
 295 474 295 474 305 437 c 0,69,70
 312 408 312 408 318 378 c 1,71,72
 321 378 321 378 325 379 c 0,73,74
 328 379 328 379 326 379 c 1,75,76
 326 245 326 245 322 194 c 1,77,78
 326 191 326 191 334 190 c 1,0,1
213 395 m 1,79,80
 208 398 208 398 196.5 412 c 128,-1,81
 185 426 185 426 180 426 c 0,82,83
 114 426 114 426 70 378 c 1,84,-1
 70 365 l 1,85,86
 94 353 94 353 95 353 c 0,87,88
 98 353 98 353 123.5 357 c 128,-1,89
 149 361 149 361 159 361 c 1,90,-1
 157 366 l 1,91,92
 176 375 176 375 213 395 c 1,79,80
EndSplineSet
EndChar

StartChar: colon
Encoding: 58 58 27
Width: 235
Flags: W
LayerCount: 2
Fore
SplineSet
172 347 m 0,0,1
 172 340 172 340 157 330 c 128,-1,2
 142 320 142 320 134 320 c 0,3,4
 123 320 123 320 113 333 c 128,-1,5
 103 346 103 346 103 355 c 0,6,7
 103 361 103 361 113 377 c 128,-1,8
 123 393 123 393 134 393 c 0,9,10
 143 393 143 393 157.5 376 c 128,-1,11
 172 359 172 359 172 347 c 0,0,1
152 184 m 0,12,13
 152 170 152 170 141.5 160 c 128,-1,14
 131 150 131 150 117 150 c 0,15,16
 87 150 87 150 87 178 c 0,17,18
 87 211 87 211 120 211 c 0,19,20
 132 211 132 211 142 202 c 128,-1,21
 152 193 152 193 152 184 c 0,12,13
EndSplineSet
EndChar

StartChar: semicolon
Encoding: 59 59 28
Width: 172
Flags: W
LayerCount: 2
Fore
SplineSet
134 285 m 0,0,1
 134 276 134 276 122 267 c 128,-1,2
 110 258 110 258 101 258 c 0,3,4
 76 258 76 258 73 303 c 1,5,6
 89 319 89 319 105 319 c 0,7,8
 110 319 110 319 116 316.5 c 128,-1,9
 122 314 122 314 126 314 c 1,10,11
 126 309 126 309 122 306 c 1,12,13
 134 295 134 295 134 285 c 0,0,1
92 75 m 0,14,15
 92 37 92 37 41.5 -49.5 c 128,-1,16
 -9 -136 -9 -136 -33 -136 c 0,17,18
 -38 -136 -38 -136 -41 -133.5 c 128,-1,19
 -44 -131 -44 -131 -48 -131 c 1,20,21
 -48 -130 -48 -130 -50 -125 c 128,-1,22
 -52 -120 -52 -120 -52 -115 c 0,23,24
 -52 -107 -52 -107 -31 -74.5 c 128,-1,25
 -10 -42 -10 -42 5 -34 c 1,26,27
 5 -29 5 -29 -3 -29 c 1,28,29
 24 16 24 16 34 52 c 1,30,31
 33 68 33 68 40 98 c 1,32,33
 46 111 46 111 62 111 c 0,34,35
 92 111 92 111 92 75 c 0,14,15
EndSplineSet
EndChar

StartChar: less
Encoding: 60 60 29
Width: 506
Flags: W
LayerCount: 2
Fore
SplineSet
642 29 m 1,0,1
 638 31 638 31 630 36 c 1,2,3
 612 29 612 29 569 29 c 0,4,5
 561 29 561 29 556.5 33 c 128,-1,6
 552 37 552 37 549 41 c 1,7,8
 492 47 492 47 450 43 c 0,9,10
 448 43 448 43 440 47.5 c 128,-1,11
 432 52 432 52 426 52 c 256,12,13
 420 52 420 52 421 50 c 128,-1,14
 422 48 422 48 416 48 c 128,-1,15
 410 48 410 48 394.5 43 c 128,-1,16
 379 38 379 38 373 38 c 2,17,-1
 28 43 l 1,18,19
 -67 43 -67 43 -67 76 c 0,20,21
 -67 92 -67 92 -19 141 c 0,22,23
 15 177 15 177 35 193 c 0,24,25
 126 262 126 262 311 402 c 0,26,27
 321 410 321 410 338 410 c 0,28,29
 366 410 366 410 366 376 c 0,30,31
 366 363 366 363 347.5 350.5 c 128,-1,32
 329 338 329 338 313 327 c 1,33,34
 289 306 289 306 241 268 c 1,35,36
 228 265 228 265 208 256 c 1,37,38
 196 244 196 244 127 189 c 0,39,40
 69 144 69 144 43 107 c 1,41,42
 44 105 44 105 45.5 102.5 c 128,-1,43
 47 100 47 100 54 100 c 2,44,-1
 550 105 l 2,45,46
 555 105 555 105 577 100 c 0,47,48
 603 95 603 95 612 93 c 0,49,50
 617 93 617 93 627.5 82.5 c 128,-1,51
 638 72 638 72 642 70 c 1,52,-1
 642 29 l 1,0,1
80 193 m 1,53,-1
 80 202 l 1,54,-1
 62 202 l 1,55,-1
 62 193 l 1,56,-1
 80 193 l 1,53,-1
EndSplineSet
EndChar

StartChar: equal
Encoding: 61 61 30
Width: 415
Flags: W
LayerCount: 2
Fore
SplineSet
431 340 m 0,0,1
 431 330 431 330 409.5 316.5 c 128,-1,2
 388 303 388 303 381 303 c 0,3,4
 377 303 377 303 374 304.5 c 128,-1,5
 371 306 371 306 367 306 c 256,6,7
 363 306 363 306 349.5 301 c 128,-1,8
 336 296 336 296 331 296 c 0,9,10
 313 296 313 296 297 314 c 1,11,12
 147 292 147 292 142 292 c 0,13,14
 27 292 27 292 41 293 c 1,15,16
 41 294 41 294 39 300 c 128,-1,17
 37 306 37 306 37 310 c 0,18,19
 37 319 37 319 47 328.5 c 128,-1,20
 57 338 57 338 62 338 c 0,21,22
 66 338 66 338 100 336.5 c 128,-1,23
 134 335 134 335 138 335 c 256,24,25
 142 335 142 335 271 349 c 128,-1,26
 400 363 400 363 404 363 c 0,27,28
 411 363 411 363 421 355 c 128,-1,29
 431 347 431 347 431 340 c 0,0,1
413 212 m 256,30,31
 413 202 413 202 394 193 c 0,32,33
 379 186 379 186 374 186 c 0,34,35
 370 186 370 186 357 191 c 128,-1,36
 344 196 344 196 340 196 c 0,37,38
 273 196 273 196 230 192 c 0,39,40
 221 191 221 191 195.5 185 c 128,-1,41
 170 179 170 179 165.5 179 c 128,-1,42
 161 179 161 179 136.5 177 c 128,-1,43
 112 175 112 175 108 175 c 0,44,45
 65 175 65 175 65 196 c 0,46,47
 65 204 65 204 81 216 c 1,48,49
 110 217 110 217 173.5 226 c 128,-1,50
 236 235 236 235 237 235 c 0,51,52
 241 235 241 235 256.5 233.5 c 128,-1,53
 272 232 272 232 276 232 c 256,54,55
 280 232 280 232 286.5 235.5 c 128,-1,56
 293 239 293 239 298 239 c 0,57,58
 359 239 359 239 394 238 c 1,59,60
 413 222 413 222 413 212 c 256,30,31
EndSplineSet
EndChar

StartChar: greater
Encoding: 62 62 31
Width: 455
Flags: W
LayerCount: 2
Fore
SplineSet
464 118 m 1,0,1
 448 108 448 108 426 105 c 0,2,3
 425 104 425 104 426 100 c 256,4,5
 427 96 427 96 422 96 c 256,6,7
 417 96 417 96 418 98 c 0,8,9
 419 101 419 101 418 103 c 1,10,11
 354 85 354 85 285 51.5 c 128,-1,12
 216 18 216 18 149 -15 c 0,13,14
 139 -20 139 -20 89 -53 c 0,15,16
 44 -83 44 -83 39 -83 c 0,17,18
 36 -83 36 -83 14 -67 c 1,19,20
 12 -73 12 -73 12 -47 c 1,21,22
 57 -10 57 -10 164 43 c 0,23,24
 344 131 l 1,25,26
 344 134 344 134 337 138 c 1,27,28
 308 146 308 146 254 159 c 0,29,30
 244 161 244 161 228 166 c 0,31,32
 204 172 204 172 123 200 c 1,33,34
 125 202 125 202 126 203 c 0,35,36
 127 205 127 205 121 205 c 0,37,38
 116 205 116 205 117 203 c 128,-1,39
 118 201 118 201 114 201 c 0,40,41
 100 201 100 201 60.5 220 c 128,-1,42
 21 239 21 239 13 249 c 1,43,44
 10 245 10 245 10 242 c 1,45,46
 7 246 7 246 -25.5 264.5 c 128,-1,47
 -58 283 -58 283 -58 291 c 0,48,49
 -58 300 -58 300 -46.5 309 c 128,-1,50
 -35 318 -35 318 -29 318 c 1,51,52
 105 250 l 1,53,54
 113 249 113 249 127 247 c 1,55,56
 181 230 181 230 295 195 c 1,57,58
 337 186 337 186 379 176 c 0,59,60
 431 163 431 163 464 139 c 1,61,-1
 464 118 l 1,0,1
EndSplineSet
EndChar

StartChar: question
Encoding: 63 63 32
Width: 392
Flags: W
LayerCount: 2
Fore
SplineSet
353 472 m 0,0,1
 353 441 353 441 340 406 c 1,2,3
 329 387 329 387 311 351 c 1,4,5
 312 348 312 348 315 348 c 1,6,-1
 308 345 l 1,7,8
 272 299 272 299 265 250 c 1,9,10
 253 221 253 221 253 199 c 0,11,12
 253 194 253 194 260 172.5 c 128,-1,13
 267 151 267 151 267 147 c 0,14,15
 267 138 267 138 260 129 c 128,-1,16
 253 120 253 120 244 120 c 0,17,18
 228 120 228 120 220 146 c 0,19,20
 213 169 213 169 218 184 c 1,21,22
 217 186 217 186 215 186 c 1,23,24
 211 224 211 224 223.5 259 c 128,-1,25
 236 294 236 294 241 305 c 0,26,27
 252 331 252 331 265 345 c 1,28,-1
 263 348 l 1,29,30
 315 430 315 430 315 484 c 2,31,-1
 315 501 l 1,32,33
 308 508 308 508 305 525 c 0,34,35
 304 530 304 530 289 549 c 0,36,37
 271 571 271 571 260 571 c 0,38,39
 257 571 257 571 228 556 c 0,40,41
 206 544 206 544 192 521 c 0,42,43
 183 505 183 505 173 489 c 1,44,45
 173 483 173 483 171.5 470 c 128,-1,46
 170 457 170 457 170 451 c 1,47,48
 167 443 167 443 171 428 c 128,-1,49
 175 413 175 413 175 412 c 0,50,51
 174 411 174 411 168 406.5 c 128,-1,52
 162 402 162 402 158 402 c 0,53,54
 145 402 145 402 136 419 c 0,55,56
 128 433 128 433 128 447 c 0,57,58
 128 455 128 455 138 502 c 0,59,60
 143 529 143 529 187 569.5 c 128,-1,61
 231 610 231 610 259 610 c 0,62,63
 262 610 262 610 260.5 607 c 128,-1,64
 259 604 259 604 263 604 c 256,65,66
 267 604 267 604 268.5 605.5 c 128,-1,67
 270 607 270 607 273 607 c 0,68,69
 313 607 313 607 337 546 c 0,70,71
 353 504 353 504 353 472 c 0,0,1
253 -3 m 0,72,73
 253 -7 253 -7 243.5 -14.5 c 128,-1,74
 234 -22 234 -22 230 -22 c 0,75,76
 225 -22 225 -22 215 -13 c 128,-1,77
 205 -4 205 -4 205 0 c 0,78,79
 205 7 205 7 213 15 c 128,-1,80
 221 23 221 23 229 23 c 0,81,82
 239 23 239 23 246 14 c 128,-1,83
 253 5 253 5 253 -3 c 0,72,73
EndSplineSet
EndChar

StartChar: at
Encoding: 64 64 33
Width: 522
Flags: W
LayerCount: 2
Fore
SplineSet
14 89 m 1,0,1
 5 126 5 126 5 161 c 0,2,3
 5 246 5 246 55 345 c 0,4,5
 110 453 110 453 188 491 c 1,6,7
 209 506 209 506 251 530 c 1,8,9
 257 532 257 532 294 541 c 0,10,11
 335 551 335 551 347 551 c 0,12,13
 368 551 368 551 404.5 539 c 128,-1,14
 441 527 441 527 452 515 c 1,15,16
 461 507 461 507 475 490 c 1,17,18
 493 460 493 460 498 440 c 1,19,20
 499 422 499 422 503 388 c 0,21,22
 506 368 506 368 506 327 c 0,23,24
 506 325 506 325 508.5 316.5 c 128,-1,25
 511 308 511 308 511 304 c 0,26,27
 511 270 511 270 498 241 c 0,28,29
 492 225 492 225 475 196 c 1,30,31
 462 180 462 180 434 151 c 1,32,33
 422 140 422 140 401 127 c 0,34,35
 375 112 375 112 363 112 c 0,36,37
 286 112 286 112 272 213 c 1,38,39
 252 200 252 200 232.5 186.5 c 128,-1,40
 213 173 213 173 191 173 c 0,41,42
 190 173 190 173 182 178 c 1,43,44
 187 176 187 176 173 176 c 0,45,46
 168 176 168 176 165 179 c 128,-1,47
 163 181 163 181 162 182 c 0,48,49
 156 187 156 187 147 211 c 128,-1,50
 138 235 138 235 138 241 c 0,51,52
 138 269 138 269 153 295 c 0,53,54
 166 316 166 316 200 334 c 128,-1,55
 234 352 234 352 252 352 c 0,56,57
 255 352 255 352 261 346 c 1,58,59
 264 349 264 349 259 354 c 1,60,61
 263 354 263 354 274.5 358.5 c 128,-1,62
 286 363 286 363 290 363 c 0,63,64
 308 363 308 363 315 319 c 0,65,66
 318 301 318 301 322 283 c 0,67,68
 325 265 325 265 322 255 c 0,69,70
 318 242 318 242 318 219 c 0,71,72
 318 153 318 153 360 153 c 0,73,74
 366 153 366 153 389 167 c 128,-1,75
 412 181 412 181 424 193 c 0,76,77
 447 216 447 216 460 249 c 128,-1,78
 473 282 473 282 473 322 c 0,79,80
 473 420 473 420 445 462 c 0,81,82
 435 478 435 478 416 489 c 1,83,84
 415 494 415 494 408 498 c 0,85,86
 395 503 395 503 373 510 c 1,87,88
 350 514 350 514 327 514 c 0,89,90
 305 514 305 514 284 506 c 0,91,92
 259 496 259 496 209 467 c 0,93,94
 203 463 203 463 171 438 c 0,95,96
 163 432 163 432 163 430 c 0,97,98
 163 429 163 429 167 429 c 1,99,100
 165 427 165 427 162 430 c 1,101,102
 86 365 86 365 72 285 c 0,103,104
 72 281 72 281 74 281 c 0,105,106
 67 282 67 282 61 263 c 0,107,108
 43 210 43 210 43 186 c 0,109,110
 43 108 43 108 77 54 c 0,111,112
 116 -9 116 -9 186 -9 c 2,113,-1
 220 -9 l 2,114,115
 224 -9 224 -9 242 -0.5 c 128,-1,116
 260 8 260 8 264 8 c 0,117,118
 273 8 273 8 276 4 c 0,119,120
 284 -6 284 -6 291 -16 c 1,121,122
 284 -32 284 -32 276 -35 c 0,123,124
 244 -44 244 -44 221 -49 c 0,125,126
 217 -50 217 -50 190 -50 c 0,127,128
 142 -50 142 -50 112.5 -36 c 128,-1,129
 83 -22 83 -22 49 15 c 0,130,131
 48 17 48 17 29 49 c 0,132,133
 19 67 19 67 14 86 c 1,134,-1
 14 89 l 1,0,1
280 284 m 0,135,136
 280 291 280 291 274 302.5 c 128,-1,137
 268 314 268 314 261 314 c 0,138,139
 251 314 251 314 210 298 c 1,140,141
 218 298 218 298 214 294 c 0,142,143
 213 294 213 294 213 295.5 c 128,-1,144
 213 297 213 297 209 297 c 0,145,146
 196 297 196 297 188 273 c 0,147,148
 181 255 181 255 181 245 c 0,149,150
 181 225 181 225 194 210 c 1,151,152
 211 213 211 213 245.5 240 c 128,-1,153
 280 267 280 267 280 284 c 0,135,136
EndSplineSet
EndChar

StartChar: A
Encoding: 65 65 34
Width: 442
Flags: W
LayerCount: 2
Fore
SplineSet
460 -91 m 0,0,1
 460 -102 460 -102 449.5 -111 c 128,-1,2
 439 -120 439 -120 432 -120 c 0,3,4
 418 -120 418 -120 400 -94 c 0,5,6
 385 -72 385 -72 385 -67 c 0,7,8
 385 -66 385 -66 386 -55.5 c 128,-1,9
 387 -45 387 -45 387 -40 c 1,10,11
 391 -36 l 1,12,13
 388 -33 388 -33 382 -26 c 1,14,15
 376 30 376 30 361 87 c 1,16,17
 364 87 364 87 371 90 c 1,18,19
 366 91 366 91 357.5 100.5 c 128,-1,20
 349 110 349 110 344 113 c 1,21,22
 337 113 337 113 343 107 c 1,23,24
 294 100 294 100 130 85 c 1,25,26
 112 68 112 68 83 26 c 0,27,28
 47 -26 47 -26 39 -35 c 128,-1,29
 31 -44 31 -44 13 -44 c 0,30,31
 -6 -44 -6 -44 -6 -25 c 0,32,33
 -6 -11 -6 -11 45 84 c 1,34,35
 40 86 40 86 29 84 c 0,36,37
 14 82 14 82 13 82 c 0,38,39
 -6 82 -6 82 -6 103 c 0,40,41
 -6 115 -6 115 6 123 c 0,42,43
 15 130 15 130 25 130 c 0,44,45
 29 130 29 130 48.5 128.5 c 128,-1,46
 68 127 68 127 73 127 c 0,47,48
 77 127 77 127 91 141 c 0,49,50
 108 159 108 159 115 163 c 1,51,52
 113 167 l 1,53,54
 148 209 148 209 205 287 c 1,55,56
 230 330 230 330 279 410 c 1,57,58
 282 425 282 425 296 444 c 1,59,60
 299 444 299 444 306 446 c 1,61,62
 309 449 309 449 309 455 c 1,63,-1
 321 455 l 2,64,65
 327 456 327 456 342 437 c 1,66,67
 345 316 345 316 388 210 c 0,68,69
 389 209 389 209 390 184 c 0,70,71
 391 167 391 167 401 162.5 c 128,-1,72
 411 158 411 158 421 154 c 0,73,74
 436 147 436 147 436 141 c 0,75,76
 436 136 436 136 424 115.5 c 128,-1,77
 412 95 412 95 412 91 c 0,78,79
 412 103 412 103 428 23 c 0,80,81
 436 -21 436 -21 443 -49 c 0,82,83
 445 -55 445 -55 452.5 -70.5 c 128,-1,84
 460 -86 460 -86 460 -91 c 0,0,1
340 147 m 1,85,-1
 340 173 l 1,86,87
 334 179 334 179 331 196 c 0,88,89
 330 198 330 198 298 318 c 1,90,91
 278 299 278 299 259 280 c 0,92,93
 233 253 233 253 227 236 c 1,94,95
 210 224 210 224 187 188 c 0,96,97
 170 159 170 159 152 130 c 1,98,-1
 208 126 l 1,99,100
 252 133 252 133 340 147 c 1,85,-1
EndSplineSet
EndChar

StartChar: B
Encoding: 66 66 35
Width: 484
Flags: W
LayerCount: 2
Fore
SplineSet
471 166 m 0,0,1
 471 130 471 130 451 105 c 1,2,3
 448 95 448 95 457 91 c 1,4,5
 450 91 450 91 446 87 c 1,6,7
 429 61 429 61 389 34.5 c 128,-1,8
 349 8 349 8 318 4 c 1,9,10
 311 -1 311 -1 297 -8 c 0,11,12
 251 -27 251 -27 199 -27 c 0,13,14
 196 -27 196 -27 181.5 -25.5 c 128,-1,15
 167 -24 167 -24 162 -25 c 0,16,17
 157 -25 157 -25 146 -27.5 c 128,-1,18
 135 -30 135 -30 130 -30 c 0,19,20
 121 -30 121 -30 89 -24 c 0,21,22
 50 -16 50 -16 31 -8 c 0,23,24
 -2 6 -2 6 -26 30 c 0,25,26
 -34 39 -34 39 -34 61 c 0,27,28
 -34 68 -34 68 -26 77 c 128,-1,29
 -18 86 -18 86 -11 86 c 0,30,31
 2 86 2 86 50 53 c 1,32,33
 54 45 54 45 62 32 c 0,34,35
 65 28 65 28 88 21 c 0,36,37
 121 12 121 12 134 12 c 0,38,39
 167 12 167 12 219 20 c 128,-1,40
 271 28 271 28 289 35 c 1,41,42
 304 38 304 38 331 48 c 1,43,44
 364 67 364 67 372 73 c 0,45,46
 400 91 400 91 410 110 c 0,47,48
 429 144 429 144 429 164 c 0,49,50
 429 186 429 186 407 210.5 c 128,-1,51
 385 235 385 235 360 235 c 0,52,53
 353 236 353 236 334.5 239 c 128,-1,54
 316 242 316 242 312 242 c 256,55,56
 308 242 308 242 249.5 229.5 c 128,-1,57
 191 217 191 217 187 217 c 0,58,59
 184 217 184 217 177 221.5 c 128,-1,60
 170 226 170 226 170 228 c 256,61,62
 170 230 170 230 175 230 c 1,63,64
 173 232 173 232 164 232 c 1,65,-1
 164 247 l 2,66,67
 164 254 164 254 176 261 c 1,68,69
 180 262 180 262 192 267.5 c 128,-1,70
 204 273 204 273 208 273 c 256,71,72
 212 273 212 273 211.5 271.5 c 128,-1,73
 211 270 211 270 215 270 c 0,74,75
 220 270 220 270 224 276 c 128,-1,76
 228 282 228 282 228 283 c 1,77,78
 261 295 261 295 320 324 c 0,79,80
 332 331 332 331 369 362 c 0,81,82
 386 376 386 376 386 394 c 256,83,84
 386 412 386 412 335 424 c 0,85,86
 296 432 296 432 265 432 c 0,87,88
 261 432 261 432 232.5 428.5 c 128,-1,89
 204 425 204 425 199 425 c 0,90,91
 195 425 195 425 187.5 428.5 c 128,-1,92
 180 432 180 432 176 432 c 0,93,94
 161 432 161 432 158 413 c 1,95,-1
 118 183 l 1,96,97
 118 180 118 180 128.5 169.5 c 128,-1,98
 139 159 139 159 139 153 c 0,99,100
 139 140 139 140 120 94 c 0,101,102
 114 79 114 79 91 79 c 0,103,104
 65 79 65 79 65 134 c 0,105,106
 65 145 65 145 74 215 c 0,107,108
 85 298 85 298 95 343 c 0,109,110
 98 362 98 362 101 382 c 0,111,112
 105 406 105 406 118 420 c 1,113,114
 108 425 108 425 91 425 c 0,115,116
 77 425 77 425 46 414 c 0,117,118
 42 412 42 412 30 403 c 128,-1,119
 18 394 18 394 12 394 c 0,120,121
 -9 394 -9 394 -9 422 c 0,122,123
 -9 435 -9 435 13 445 c 0,124,125
 53 464 53 464 115 464 c 1,126,127
 119 480 119 480 124 496 c 0,128,129
 130 517 130 517 146 517 c 0,130,131
 147 517 147 517 162 508 c 1,132,133
 171 492 171 492 171 489 c 0,134,135
 171 484 171 484 167 480 c 1,136,-1
 170 477 l 1,137,138
 246 473 246 473 322 470 c 1,139,140
 432 456 432 456 432 392 c 0,141,142
 432 367 432 367 405 338.5 c 128,-1,143
 378 310 378 310 340 291 c 1,144,145
 336 291 336 291 340 288 c 1,146,147
 336 289 336 289 330 283 c 1,148,149
 352 278 352 278 374 274 c 0,150,151
 407 267 407 267 421 256 c 0,152,153
 449 236 449 236 459 216 c 0,154,155
 463 209 463 209 470 184 c 0,156,157
 471 179 471 179 471 166 c 0,0,1
EndSplineSet
EndChar

StartChar: C
Encoding: 67 67 36
Width: 401
Flags: W
LayerCount: 2
Fore
SplineSet
440 113 m 0,0,1
 440 97 440 97 420 86 c 0,2,3
 407 79 407 79 393 72 c 0,4,5
 383 66 383 66 369 56 c 1,6,-1
 372 51 l 1,7,8
 369 52.5 l 130,-1,9
 366 54 366 54 360 54 c 0,10,11
 357 54 357 54 336 42 c 0,12,13
 313 27 313 27 302 24 c 0,14,15
 190 -16 190 -16 159 -16 c 0,16,17
 155 -16 155 -16 140 -10.5 c 128,-1,18
 125 -5 125 -5 120 -5 c 256,19,20
 115 -5 115 -5 114 -7 c 128,-1,21
 113 -9 113 -9 108 -9 c 0,22,23
 92 -9 92 -9 39 20 c 0,24,25
 14 34 14 34 -1 69 c 0,26,27
 -14 99 -14 99 -14 132 c 0,28,29
 -14 142 -14 142 -12 151 c 1,30,31
 -9 152 -9 152 -1 157 c 1,32,33
 -5 160 -5 160 -8 160 c 1,34,35
 0 236 0 236 92 326.5 c 128,-1,36
 184 417 184 417 265 417 c 0,37,38
 292 417 292 417 323 375 c 0,39,40
 351 338 351 338 351 323 c 1,41,42
 345 293 l 1,43,44
 339 291 339 291 325 280 c 1,45,46
 323 282 323 282 297 330 c 0,47,48
 277 366 277 366 247 366 c 0,49,50
 215 366 215 366 173 335 c 0,51,52
 136 308 136 308 120 282 c 1,53,54
 111 278 111 278 91 250 c 1,55,56
 85 247 85 247 74 235 c 1,57,58
 42 164 42 164 42 136 c 0,59,60
 42 42 42 42 161 42 c 2,61,-1
 208 42 l 2,62,63
 225 42 225 42 317 82 c 0,64,65
 331 88 331 88 370 116 c 0,66,67
 404 140 404 140 409 140 c 0,68,69
 413 140 413 140 423 135.5 c 128,-1,70
 433 131 433 131 436 131 c 1,71,72
 434 129 434 129 437 122.5 c 128,-1,73
 440 116 440 116 440 113 c 0,0,1
EndSplineSet
EndChar

StartChar: D
Encoding: 68 68 37
Width: 344
Flags: W
LayerCount: 2
Fore
SplineSet
241 315 m 1,0,1
 274 276 274 276 302 210 c 128,-1,2
 330 144 330 144 330 101 c 0,3,4
 330 -12 330 -12 233 -23 c 0,5,6
 231 -24 231 -24 223.5 -28 c 128,-1,7
 216 -32 216 -32 212 -32 c 256,8,9
 208 -32 208 -32 208 -31 c 1,10,-1
 208 -31 l 1,11,12
 208 -29 208 -29 204 -29 c 0,13,14
 199 -29 199 -29 199 -31 c 1,15,-1
 199 -31 l 1,16,17
 199 -32 199 -32 196 -32 c 128,-1,18
 193 -32 193 -32 171 -35 c 128,-1,19
 149 -38 149 -38 137 -38 c 0,20,21
 127 -38 127 -38 102.5 -37 c 128,-1,22
 78 -36 78 -36 75 -36 c 0,23,24
 56 -36 56 -36 6 -11 c 1,25,26
 -6 0 -6 0 -31 19 c 1,27,28
 -30 20 -30 20 -26 24 c 1,29,30
 -35 27 l 1,31,32
 -43 40 -43 40 -43 48 c 0,33,34
 -43 60 -43 60 -32 70 c 1,35,36
 -22 77 -22 77 -16 77 c 0,37,38
 0 77 0 77 17 56 c 1,39,40
 22 45 22 45 35 26 c 1,41,42
 42 21 42 21 78 11.5 c 128,-1,43
 114 2 114 2 130 2 c 0,44,45
 134 2 134 2 162.5 5.5 c 128,-1,46
 191 9 191 9 195 9 c 1,47,48
 190 9 190 9 212 14 c 0,49,50
 256 26 256 26 272 47 c 0,51,52
 286 64 286 64 286 96 c 0,53,54
 286 129 286 129 254 205 c 0,55,56
 245 225 245 225 189 311 c 1,57,58
 193 315 l 1,59,60
 182 316 182 316 169 334 c 0,61,62
 150 362 150 362 146 365 c 1,63,-1
 138 365 l 1,64,65
 137 362 137 362 132 308 c 0,66,67
 121 174 121 174 121 161 c 0,68,69
 122 152 122 152 125 121 c 0,70,71
 127 94 127 94 127 79 c 0,72,73
 127 72 127 72 117 64.5 c 128,-1,74
 107 57 107 57 99 57 c 0,75,76
 67 57 67 57 67 132 c 1,77,-1
 94 406 l 1,78,79
 94 441 94 441 29 441 c 1,80,81
 29 442 29 442 27 445.5 c 128,-1,82
 25 449 25 449 25 454 c 0,83,84
 25 478 25 478 61 478 c 0,85,86
 99 478 99 478 144 437 c 0,87,88
 174 410 174 410 209 361 c 0,89,90
 238 320 238 320 239 320 c 1,91,-1
 241 315 l 1,0,1
EndSplineSet
EndChar

StartChar: E
Encoding: 69 69 38
Width: 537
Flags: W
LayerCount: 2
Fore
SplineSet
574 180 m 0,0,1
 574 149 574 149 459 103 c 1,2,3
 433 89 433 89 389 69 c 1,4,5
 370 65 370 65 350 60 c 128,-1,6
 330 55 330 55 325 44 c 1,7,8
 314 44 314 44 282 42 c 128,-1,9
 250 40 250 40 247 40 c 0,10,11
 180 40 180 40 136 82 c 0,12,13
 117 101 117 101 105 134 c 0,14,15
 103 137 103 137 94 137 c 0,16,17
 89 137 89 137 83 131 c 128,-1,18
 77 125 77 125 72 125 c 2,19,-1
 45 125 l 2,20,21
 29 125 29 125 15 134 c 128,-1,22
 1 143 1 143 1 156 c 0,23,24
 1 173 1 173 49.5 181 c 128,-1,25
 98 189 98 189 101 193 c 1,26,27
 103 211 103 211 107 249 c 1,28,29
 115 275 115 275 131 330 c 1,30,-1
 124 337 l 1,31,32
 4 304 4 304 -18 304 c 0,33,34
 -23 304 -23 304 -29.5 306.5 c 128,-1,35
 -36 309 -36 309 -37.5 309.5 c 128,-1,36
 -39 310 -39 310 -41.5 315.5 c 128,-1,37
 -44 321 -44 321 -44 326 c 0,38,39
 -44 330 -44 330 -36.5 341.5 c 128,-1,40
 -29 353 -29 353 -22 355 c 0,41,42
 9 364 9 364 148 386 c 1,43,44
 184 442 184 442 204 442 c 0,45,46
 215 442 215 442 225 426 c 128,-1,47
 235 410 235 410 242 410 c 1,48,-1
 474 450 l 2,49,50
 487 452 487 452 501.5 437 c 128,-1,51
 516 422 516 422 517 413 c 1,52,53
 514 412 514 412 516 410 c 256,54,55
 518 408 518 408 521 408 c 1,56,57
 508 398 508 398 483 382 c 1,58,59
 456 370 456 370 414.5 357.5 c 128,-1,60
 373 345 373 345 364 345 c 0,61,62
 356 345 356 345 335 372 c 1,63,64
 322 373 322 373 285 373 c 0,65,66
 281 373 281 373 272 365.5 c 128,-1,67
 263 358 263 358 259 358 c 0,68,69
 244 356 244 356 230 355 c 0,70,71
 212 352 212 352 198.5 343 c 128,-1,72
 185 334 185 334 177 307 c 0,73,74
 171 284 171 284 164 261 c 1,75,76
 164 249 164 249 159 225 c 1,77,78
 166 219 166 219 186 219 c 0,79,80
 199 219 199 219 188 229 c 1,81,82
 233 240 233 240 323 254 c 1,83,84
 336 263 336 263 356 258 c 1,85,86
 371 263 371 263 373 263 c 0,87,88
 394 263 394 263 411 253 c 128,-1,89
 428 243 428 243 443 234 c 1,90,-1
 443 216 l 1,91,92
 427 198 427 198 417 198 c 0,93,94
 412 198 412 198 405 200 c 128,-1,95
 398 202 398 202 393 202 c 128,-1,96
 388 202 388 202 387 206.5 c 128,-1,97
 386 211 386 211 381 211 c 0,98,99
 361 211 361 211 304 203 c 0,100,101
 270 199 270 199 194 167 c 1,102,103
 186 166 186 166 178 166 c 1,104,105
 163 163 163 163 163 152 c 0,106,107
 163 143 163 143 186 115 c 1,108,109
 191 116 191 116 193 115 c 1,110,111
 196 109 196 109 206 102 c 1,112,113
 213 101 213 101 234 96 c 0,114,115
 251 93 251 93 257 93 c 0,116,117
 267 93 267 93 387 118 c 1,118,119
 391 125 391 125 469 163 c 0,120,121
 475 165 475 165 513 188 c 0,122,123
 544 206 544 206 549 206 c 0,124,125
 558 206 558 206 566 197.5 c 128,-1,126
 574 189 574 189 574 180 c 0,0,1
EndSplineSet
EndChar

StartChar: F
Encoding: 70 70 39
Width: 375
Flags: W
LayerCount: 2
Fore
SplineSet
404 341 m 0,0,1
 404 333 404 333 395 320.5 c 128,-1,2
 386 308 386 308 377 308 c 0,3,4
 372 308 372 308 362 306.5 c 128,-1,5
 352 305 352 305 348 305 c 0,6,7
 342 305 342 305 333 313.5 c 128,-1,8
 324 322 324 322 321 329 c 1,9,10
 304 334 304 334 260 334 c 0,11,12
 186 334 186 334 164 320 c 1,13,14
 164 304 164 304 160 270 c 1,15,16
 160 186 160 186 159 176 c 1,17,18
 255 174 l 0,19,20
 331 171 331 171 331 153 c 0,21,22
 331 122 331 122 287 122 c 0,23,24
 284 122 284 122 267 125.5 c 128,-1,25
 250 129 250 129 246 129 c 0,26,27
 193 129 193 129 166 121 c 0,28,29
 157 118 157 118 157 102 c 0,30,31
 157 93 157 93 158 72 c 0,32,33
 158 51 158 51 158 40 c 0,34,35
 158 36 158 36 160.5 19.5 c 128,-1,36
 163 3 163 3 162 -4 c 1,37,38
 143 -16 143 -16 132 -16 c 0,39,40
 110 -16 110 -16 105 33 c 1,41,42
 105 64 105 64 104 94 c 1,43,44
 101 109 101 109 97 109 c 0,45,46
 95 109 95 109 93 108 c 0,47,48
 19 89 19 89 13 89 c 2,49,-1
 -2 89 l 2,50,51
 -30 89 -30 89 -30 111 c 0,52,53
 -30 124 -30 124 -14 128 c 0,54,55
 -1 131 -1 131 45 145 c 0,56,57
 82 155 82 155 87 155 c 0,58,59
 91 155 91 155 90.5 153 c 128,-1,60
 90 151 90 151 94 151 c 0,61,62
 99 151 99 151 97 155 c 128,-1,63
 95 159 95 159 100 159 c 256,64,65
 105 159 105 159 103 156 c 256,66,67
 101 153 101 153 103 151 c 1,68,69
 106 165 106 165 112 194 c 1,70,71
 112 307 112 307 113 323 c 1,72,73
 117 323 117 323 65 323 c 0,74,75
 61 323 61 323 28 314 c 128,-1,76
 -5 305 -5 305 -10 305 c 0,77,78
 -16 305 -16 305 -23 310.5 c 128,-1,79
 -30 316 -30 316 -30 323 c 0,80,81
 -30 327 -30 327 -17 343 c 1,82,83
 22 360 22 360 136 373 c 0,84,85
 245 385 245 385 319 385 c 0,86,87
 348 385 348 385 372 376 c 0,88,89
 404 365 404 365 404 341 c 0,0,1
EndSplineSet
EndChar

StartChar: G
Encoding: 71 71 40
Width: 456
Flags: W
LayerCount: 2
Fore
SplineSet
441 148 m 1,0,-1
 437 145 l 1,1,-1
 432 150 l 1,2,-1
 435 154 l 1,3,-1
 441 148 l 1,0,-1
448 -23 m 1,4,5
 415 -39 415 -39 408 -39 c 0,6,7
 398 -39 398 -39 385 -30 c 1,8,9
 376 6 376 6 376 3 c 0,10,11
 376 14 376 14 385 16 c 1,12,13
 373 19 373 19 367 52 c 0,14,15
 359 94 359 94 351 108 c 1,16,-1
 329 108 l 1,17,18
 315 84 315 84 288 75 c 0,19,20
 202 48 202 48 201 48 c 0,21,22
 196 48 196 48 183.5 44 c 128,-1,23
 171 40 171 40 167 40 c 0,24,25
 162 40 162 40 137.5 42 c 128,-1,26
 113 44 113 44 108 44 c 0,27,28
 79 44 79 44 46 70 c 0,29,30
 10 98 10 98 15 129 c 1,31,32
 11 139 11 139 16 148 c 0,33,34
 17 150 17 150 13.5 151 c 128,-1,35
 10 152 10 152 10 157 c 0,36,37
 10 187 10 187 32.5 236 c 128,-1,38
 55 285 55 285 77 304 c 1,39,40
 80 312 80 312 91 330 c 1,41,42
 147 401 147 401 223 430 c 0,43,44
 225 430 225 430 233 436 c 0,45,46
 238 440 238 440 244 440 c 0,47,48
 249 440 249 440 252 436 c 128,-1,49
 255 432 255 432 256 432 c 0,50,51
 261 437 261 437 255 443 c 1,52,-1
 287 443 l 2,53,54
 294 444 294 444 314.5 436 c 128,-1,55
 335 428 335 428 342 421 c 1,56,57
 347 409 347 409 358 390 c 1,58,59
 368 378 368 378 376 377 c 2,60,61
 377 377 l 1,62,63
 377 376 l 1,64,65
 376 375 376 375 372 374 c 1,66,67
 387 359 387 359 387 344 c 0,68,69
 387 339 387 339 385 337 c 128,-1,70
 383 335 383 335 383 331 c 1,71,72
 382 331 382 331 374.5 329 c 128,-1,73
 367 327 367 327 363 327 c 0,74,75
 350 327 350 327 324.5 363 c 128,-1,76
 299 399 299 399 282 399 c 0,77,78
 193 399 193 399 94 256 c 0,79,80
 88 247 88 247 83 231 c 0,81,82
 75 206 75 206 75 204 c 1,83,84
 71 200 71 200 64 192 c 1,85,86
 63 187 63 187 61 174.5 c 128,-1,87
 59 162 59 162 59 157 c 0,88,89
 59 156 59 156 71 114 c 1,90,91
 76 113 76 113 84 110 c 1,92,93
 89 89 89 89 146 89 c 0,94,95
 199 89 199 89 223 98 c 0,96,97
 292 122 292 122 335 158 c 0,98,99
 342 163 342 163 354 201 c 0,100,101
 360 217 360 217 382 217 c 0,102,103
 401 217 401 217 405 201 c 1,104,105
 406 171 406 171 410 114 c 0,106,107
 412 101 412 101 436 27 c 1,108,109
 433 28 433 28 433 19 c 256,110,111
 433 10 433 10 448 -23 c 1,4,5
EndSplineSet
EndChar

StartChar: H
Encoding: 72 72 41
Width: 380
Flags: W
LayerCount: 2
Fore
SplineSet
363 184 m 256,0,1
 363 173 363 173 350 162.5 c 128,-1,2
 337 152 337 152 324 143 c 1,3,4
 326 129 326 129 333 109 c 1,5,6
 337 56 337 56 344 -8 c 1,7,8
 341 -9 341 -9 331 -16.5 c 128,-1,9
 321 -24 321 -24 316 -24 c 0,10,11
 309 -24 309 -24 294 -12 c 128,-1,12
 279 0 279 0 278 9 c 0,13,14
 278 10 278 10 279.5 16 c 128,-1,15
 281 22 281 22 281 27 c 0,16,17
 281 41 281 41 263 154 c 1,18,19
 266 154 266 154 273 158 c 1,20,21
 245 164 245 164 213 164 c 0,22,23
 208 164 208 164 179.5 158.5 c 128,-1,24
 151 153 151 153 146 153 c 0,25,26
 86 153 86 153 57 140 c 1,27,28
 55 88 55 88 56 72 c 1,29,30
 59 57 l 130,-1,31
 62 42 62 42 62 32 c 0,32,33
 62 0 62 0 36 0 c 0,34,35
 19 0 19 0 17 1 c 0,36,37
 6 6 6 6 0 32 c 0,38,39
 -9 71 -9 71 -9 172 c 0,40,41
 -9 173 -9 173 -0.5 224.5 c 128,-1,42
 8 276 8 276 9 300 c 0,43,44
 12 366 12 366 8 426 c 1,45,46
 12 432 12 432 19 443 c 1,47,-1
 45 443 l 1,48,49
 66 427 66 427 66 387 c 0,50,51
 66 376 66 376 64 358 c 128,-1,52
 62 340 62 340 63 335 c 0,53,54
 63 311 63 311 54 206 c 1,55,56
 64 200 64 200 115 200 c 0,57,58
 118 200 118 200 169 206 c 0,59,60
 226 213 226 213 254 215 c 1,61,62
 257 234 257 234 257 259 c 0,63,64
 257 290 257 290 253 341 c 0,65,66
 247 411 247 411 246 422 c 1,67,68
 262 439 262 439 279 439 c 0,69,70
 286 439 286 439 301 422 c 1,71,72
 309 374 309 374 309 329 c 0,73,74
 309 326 309 326 313 297 c 128,-1,75
 317 268 317 268 317 256 c 0,76,77
 317 252 317 252 313 244 c 1,78,79
 314 235 314 235 321 218 c 1,80,81
 324 214 324 214 346 204 c 0,82,83
 363 195 363 195 363 184 c 256,0,1
EndSplineSet
EndChar

StartChar: I
Encoding: 73 73 42
Width: 147
Flags: W
LayerCount: 2
Fore
SplineSet
123 5 m 0,0,1
 123 -16 123 -16 109 -16 c 0,2,3
 104 -16 104 -16 99 -20 c 128,-1,4
 94 -24 94 -24 90 -24 c 0,5,6
 71 -24 71 -24 64.5 -14 c 128,-1,7
 58 -4 58 -4 53 36 c 0,8,9
 41 137 41 137 42 177 c 1,10,11
 34 193 34 193 33 224 c 1,12,-1
 29 384 l 1,13,14
 29 417 29 417 52 417 c 0,15,16
 86 417 86 417 91 322 c 0,17,18
 92 303 92 303 92 193 c 0,19,20
 92 185 92 185 97 169 c 0,21,22
 102 148 102 148 103 143 c 1,23,24
 99 141 99 141 99 136 c 0,25,26
 99 120 99 120 112 96 c 1,27,28
 123 -8 123 -8 123 5 c 0,0,1
EndSplineSet
EndChar

StartChar: J
Encoding: 74 74 43
Width: 326
Flags: W
LayerCount: 2
Fore
SplineSet
327 -54 m 1,0,1
 318 -62 318 -62 302 -75 c 0,2,3
 295 -80 295 -80 278 -80 c 2,4,-1
 246 -80 l 2,5,6
 241 -80 241 -80 213 -69.5 c 128,-1,7
 185 -59 185 -59 180 -59 c 0,8,9
 176 -59 176 -59 176 -60 c 1,10,-1
 176 -60 l 1,11,12
 176 -62 176 -62 172 -62 c 0,13,14
 154 -62 154 -62 77 -26 c 0,15,16
 62 -19 62 -19 31 6 c 1,17,18
 25 15 25 15 10 28 c 1,19,20
 9 31 9 31 7.5 34.5 c 128,-1,21
 6 38 6 38 6 44 c 0,22,23
 6 55 6 55 14 63.5 c 128,-1,24
 22 72 22 72 30 72 c 0,25,26
 33 72 33 72 47 67 c 1,27,28
 54 57 54 57 68 41 c 1,29,30
 93 21 93 21 113.5 9.5 c 128,-1,31
 134 -2 134 -2 171 -15 c 0,32,33
 205 -27 205 -27 212 -27 c 0,34,35
 216 -27 216 -27 233 -28.5 c 128,-1,36
 250 -30 250 -30 255 -30 c 0,37,38
 270 -30 270 -30 272 -21 c 0,39,40
 271 -26 271 -26 271 -6 c 0,41,42
 271 9 271 9 251.5 78 c 128,-1,43
 232 147 232 147 232 184 c 2,44,-1
 232 289 l 2,45,46
 232 353 232 353 226 358 c 1,47,48
 227 358 227 358 173.5 344 c 128,-1,49
 120 330 120 330 103 330 c 0,50,51
 99 330 99 330 80 326.5 c 128,-1,52
 61 323 61 323 57 323 c 0,53,54
 35 323 35 323 -3 339 c 0,55,56
 -51 360 -51 360 -51 388 c 0,57,58
 -51 392 -51 392 -49 401.5 c 128,-1,59
 -47 411 -47 411 -47 414 c 1,60,61
 -46 414 -46 414 -43 416 c 128,-1,62
 -40 418 -40 418 -35 418 c 0,63,64
 -31 418 -31 418 -20 405 c 0,65,66
 -7 389 -7 389 1 384 c 0,67,68
 25 369 25 369 73 369 c 0,69,70
 85 369 85 369 129 377 c 0,71,72
 184 386 184 386 212 398 c 0,73,74
 234 407 234 407 261 437 c 1,75,76
 265 436 265 436 272 436 c 0,77,78
 276 437 276 437 279 437 c 0,79,80
 299 437 299 437 299 418 c 0,81,82
 299 415 299 415 292.5 406 c 128,-1,83
 286 397 286 397 285 395 c 0,84,85
 278 370 278 370 278 344 c 1,86,87
 280 296 l 130,-1,88
 282 248 282 248 282 229 c 0,89,90
 281 156 281 156 319 19 c 1,91,92
 325 26 325 26 327 26 c 1,93,-1
 327 -54 l 1,0,1
EndSplineSet
EndChar

StartChar: K
Encoding: 75 75 44
Width: 439
Flags: W
LayerCount: 2
Fore
SplineSet
470 2 m 0,0,1
 470 -5 470 -5 462.5 -13 c 128,-1,2
 455 -21 455 -21 448 -21 c 0,3,4
 438 -21 438 -21 425 -8 c 0,5,6
 402 14 402 14 397 18 c 0,7,8
 305 88 l 1,9,10
 249 133 249 133 221 169 c 1,11,12
 213 171 213 171 204 159 c 1,13,14
 201 150 201 150 192 136 c 1,15,16
 182 127 182 127 164 109 c 1,17,18
 142 80 142 80 119 51 c 0,19,20
 77 -1 77 -1 64 -1 c 0,21,22
 60 -1 60 -1 62 2.5 c 128,-1,23
 64 6 64 6 59 6 c 0,24,25
 55 6 55 6 56 2.5 c 128,-1,26
 57 -1 57 -1 53 -1 c 0,27,28
 8 -1 8 -1 8 77 c 0,29,30
 8 81 8 81 14.5 170 c 128,-1,31
 21 259 21 259 21 263 c 0,32,33
 21 266 21 266 14.5 299 c 128,-1,34
 8 332 8 332 8 336 c 0,35,36
 8 361 8 361 28 361 c 0,37,38
 42 361 42 361 51 339 c 0,39,40
 56 324 56 324 62 309 c 1,41,42
 61 298 61 298 66 273.5 c 128,-1,43
 71 249 71 249 71 246 c 0,44,45
 71 241 71 241 68.5 240.5 c 128,-1,46
 66 240 66 240 65 239 c 0,47,48
 62 211 62 211 62 190 c 0,49,50
 61 157 61 157 62 155 c 1,51,52
 59 152 59 152 61 138 c 1,53,54
 54 127 54 127 55 114 c 1,55,56
 57 111 57 111 64 111 c 1,57,58
 55 100 l 1,59,60
 55 95 55 95 53 85 c 128,-1,61
 51 75 51 75 51 72 c 0,62,63
 51 75 51 75 60 52 c 1,64,65
 97 84 97 84 145 144 c 0,66,67
 214 233 214 233 215 234 c 0,68,69
 244 262 244 262 296 317 c 1,70,71
 303 331 303 331 311 346 c 0,72,73
 325 371 325 371 338 371 c 0,74,75
 363 371 363 371 363 346 c 0,76,77
 363 342 363 342 356 322 c 0,78,79
 348 299 348 299 345 290 c 128,-1,80
 342 281 342 281 329 281 c 0,81,82
 325 281 325 281 322 285 c 1,83,-1
 247 209 l 1,84,85
 259 179 259 179 289 156 c 0,86,87
 348 110 348 110 353 106 c 0,88,89
 360 99 360 99 380 94 c 1,90,91
 387 81 387 81 431 49 c 0,92,93
 470 22 470 22 470 2 c 0,0,1
EndSplineSet
EndChar

StartChar: L
Encoding: 76 76 45
Width: 329
Flags: W
LayerCount: 2
Fore
SplineSet
397 96 m 0,0,1
 397 86 397 86 383.5 76.5 c 128,-1,2
 370 67 370 67 364 67 c 0,3,4
 360 67 360 67 353.5 68.5 c 128,-1,5
 347 70 347 70 344 70 c 0,6,7
 337 70 337 70 300 62 c 128,-1,8
 263 54 263 54 262 54 c 0,9,10
 218 51 218 51 173 38 c 0,11,12
 35 -2 35 -2 27 -2 c 0,13,14
 2 -2 2 -2 -7 3 c 0,15,16
 -21 10 -21 10 -21 32 c 0,17,18
 -21 52 -21 52 -5 88 c 0,19,20
 10 119 10 119 24 137 c 1,21,22
 28 151 l 1,23,24
 115 266 115 266 156 323 c 1,25,26
 179 361 179 361 224 431 c 1,27,28
 227 433 227 433 236 433 c 0,29,30
 260 433 260 433 260 416 c 0,31,32
 260 396 260 396 200 314 c 0,33,34
 145 237 145 237 150 237 c 0,35,36
 154 239 l 1,37,38
 152 239 152 239 127 211 c 1,39,40
 126 206 126 206 127 202 c 1,41,42
 115 192 115 192 99 177 c 1,43,44
 70 138 70 138 30 51 c 1,45,46
 36 46 36 46 37 46 c 0,47,48
 41 46 41 46 55 47.5 c 128,-1,49
 69 49 69 49 73 49 c 128,-1,50
 77 49 77 49 91 56.5 c 128,-1,51
 105 64 105 64 110 65 c 0,52,53
 161 80 161 80 203 89 c 0,54,55
 316 114 316 114 330 114 c 0,56,57
 334 114 334 114 336.5 112.5 c 128,-1,58
 339 111 339 111 344 111 c 0,59,60
 345 111 345 111 347 116 c 1,61,62
 350 117 350 117 361.5 119 c 128,-1,63
 373 121 373 121 378 121 c 0,64,65
 385 121 385 121 391 111 c 128,-1,66
 397 101 397 101 397 96 c 0,0,1
EndSplineSet
EndChar

StartChar: M
Encoding: 77 77 46
Width: 427
Flags: W
LayerCount: 2
Fore
SplineSet
436 63 m 1,0,-1
 427 63 l 1,1,2
 424 52 424 52 427 44 c 0,3,4
 431 36 431 36 431 35 c 0,5,6
 431 7 431 7 400 7 c 0,7,8
 379 7 379 7 377 22 c 128,-1,9
 375 37 375 37 373 53 c 1,10,11
 365 79 365 79 364 120 c 0,12,13
 360 216 l 1,14,15
 328 189 328 189 283 166 c 0,16,17
 227 137 227 137 192 137 c 2,18,-1
 156 137 l 2,19,20
 138 137 138 137 113 150 c 0,21,22
 73 172 l 1,23,24
 62 167 62 167 62 156 c 0,25,26
 62 151 62 151 58 102 c 0,27,28
 54 58 54 58 55 36 c 0,29,30
 55 26 55 26 44 15 c 128,-1,31
 33 4 33 4 25 4 c 0,32,33
 3 4 3 4 3 52 c 1,34,-1
 23 243 l 1,35,36
 23 248 23 248 -14.5 319.5 c 128,-1,37
 -52 391 -52 391 -52 396 c 0,38,39
 -52 418 -52 418 -30 418 c 0,40,41
 -15 418 -15 418 10 375 c 128,-1,42
 35 332 35 332 34 332 c 1,43,44
 38 332 38 332 40.5 335.5 c 128,-1,45
 43 339 43 339 47 339 c 0,46,47
 54 339 54 339 63 332 c 128,-1,48
 72 325 72 325 73 317 c 1,49,50
 71 298 71 298 72 259 c 1,51,52
 76 239 76 239 108 211 c 128,-1,53
 140 183 140 183 155 183 c 0,54,55
 159 182 159 182 172.5 180 c 128,-1,56
 186 178 186 178 191 178 c 0,57,58
 219 178 219 178 271 203 c 0,59,60
 274 204 274 204 279 213 c 1,61,62
 284 219 284 219 289 219 c 0,63,64
 293 219 293 219 292 217.5 c 128,-1,65
 291 216 291 216 296 216 c 0,66,67
 304 216 304 216 348 260 c 0,68,69
 360 272 360 272 364 287 c 0,70,71
 367 297 367 297 376 313 c 1,72,73
 373 316 373 316 370 316 c 1,74,75
 369 330 369 330 378 340 c 128,-1,76
 387 350 387 350 398 350 c 0,77,78
 403 350 403 350 416 335 c 1,79,80
 416 326 416 326 414 307 c 0,81,82
 411 285 411 285 411 276 c 0,83,84
 411 258 411 258 413 218 c 128,-1,85
 415 178 415 178 414 156 c 0,86,87
 414 83 414 83 423 74 c 1,88,89
 429 75 429 75 424 67 c 1,90,91
 426 65 426 65 436 63 c 1,0,-1
EndSplineSet
EndChar

StartChar: N
Encoding: 78 78 47
Width: 406
Flags: W
LayerCount: 2
Fore
SplineSet
410 313 m 0,0,1
 410 309 410 309 401 297 c 128,-1,2
 392 285 392 285 391 279 c 0,3,4
 385 241 385 241 393 216 c 1,5,6
 383 196 383 196 375 124 c 128,-1,7
 367 52 367 52 352 21 c 0,8,9
 330 -28 330 -28 280 -28 c 0,10,11
 231 -28 231 -28 192 14 c 0,12,13
 163 44 163 44 136 100 c 0,14,15
 119 138 119 138 103 175 c 1,16,17
 102 181 102 181 99 193 c 1,18,19
 79 233 79 233 58 267 c 1,20,21
 53 267 53 267 51 264 c 0,22,23
 32 211 32 211 37 173 c 1,24,25
 35 170 35 170 30 159 c 1,26,27
 36 153 36 153 37 153 c 1,28,29
 35 151 35 151 32 154 c 1,30,31
 28 130 28 130 21 90 c 0,32,33
 20 81 20 81 18 49 c 0,34,35
 15 0 15 0 -10 0 c 0,36,37
 -32 0 -32 0 -32 46 c 0,38,39
 -32 77 -32 77 -11 183 c 1,40,41
 -11 192 -11 192 -11 211 c 0,42,43
 -10 215 -10 215 -9 296 c 0,44,45
 -9 298 -9 298 -11 309.5 c 128,-1,46
 -13 321 -13 321 -12 328 c 0,47,48
 -11 338 -11 338 -4 344 c 1,49,50
 5 345 5 345 24 346 c 1,51,52
 43 373 43 373 48 373 c 0,53,54
 69 373 69 373 92 326 c 1,55,56
 109 282 109 282 147 206 c 1,57,58
 209 20 209 20 274 20 c 2,59,-1
 290 20 l 2,60,61
 302 20 302 20 313 38 c 0,62,63
 325 60 l 1,64,65
 345 235 345 235 345 272 c 2,66,-1
 345 354 l 2,67,68
 345 362 345 362 353.5 371 c 128,-1,69
 362 380 362 380 370 380 c 0,70,71
 373 380 373 380 391 369 c 1,72,73
 393 362 393 362 402 338 c 0,74,75
 410 318 410 318 410 313 c 0,0,1
347 57 m 1,76,-1
 347 63 l 1,77,-1
 331 63 l 1,78,-1
 331 57 l 1,79,-1
 347 57 l 1,76,-1
EndSplineSet
EndChar

StartChar: O
Encoding: 79 79 48
Width: 338
Flags: W
LayerCount: 2
Fore
SplineSet
341 194 m 0,0,1
 341 172 341 172 319 126 c 1,2,3
 320 123 320 123 323 123 c 1,4,5
 256 54 256 54 185 24 c 1,6,7
 179 19 179 19 166 14 c 0,8,9
 163 12 163 12 166 9 c 1,10,11
 156 9 156 9 134.5 5 c 128,-1,12
 113 1 113 1 109 1 c 0,13,14
 106 1 106 1 93 2.5 c 128,-1,15
 80 4 80 4 75 4 c 0,16,17
 62 4 62 4 37 26 c 0,18,19
 23 39 23 39 13 70 c 0,20,21
 5 97 5 97 5 119 c 0,22,23
 5 185 5 185 64 270 c 0,24,25
 126 360 126 360 183 360 c 0,26,27
 187 360 187 360 219.5 343 c 128,-1,28
 252 326 252 326 257 326 c 256,29,30
 262 326 262 326 265 327 c 128,-1,31
 268 328 268 328 269 328 c 1,32,33
 267 328 267 328 262 325 c 1,34,35
 269 321 269 321 282 314 c 0,36,37
 283 313 283 313 315 277 c 1,38,39
 318 278 318 278 320 276 c 0,40,41
 322 275 322 275 320 274 c 1,42,43
 322 262 322 262 331.5 230 c 128,-1,44
 341 198 341 198 341 194 c 0,0,1
296 194 m 0,45,46
 296 204 296 204 285 232 c 0,47,48
 273 264 273 264 263 264 c 0,49,50
 259 264 259 264 255.5 262.5 c 128,-1,51
 252 261 252 261 248 261 c 0,52,53
 243 261 243 261 240 262 c 0,54,55
 232 268 232 268 214 287 c 0,56,57
 201 302 201 302 197 302 c 256,58,59
 193 302 193 302 175 289 c 0,60,61
 154 273 154 273 143 268 c 0,62,63
 139 267 139 267 113 263 c 1,64,65
 108 252 108 252 97 238 c 1,66,67
 105 238 105 238 105 236 c 256,68,69
 105 234 105 234 102.5 231 c 128,-1,70
 100 228 100 228 100 227 c 1,71,72
 96 229 96 229 96 237 c 1,73,74
 80 213 80 213 57 167 c 1,75,76
 50 140 50 140 50 127 c 0,77,78
 50 132 50 132 54 115 c 1,79,80
 52 85 52 85 67 65 c 128,-1,81
 82 45 82 45 106 45 c 2,82,-1
 128 45 l 2,83,84
 135 45 135 45 161.5 55 c 128,-1,85
 188 65 188 65 203 74 c 0,86,87
 296 129 296 129 296 194 c 0,45,46
112 227 m 1,88,-1
 106 227 l 1,89,-1
 106 236 l 1,90,-1
 112 236 l 1,91,-1
 112 227 l 1,88,-1
EndSplineSet
EndChar

StartChar: P
Encoding: 80 80 49
Width: 278
Flags: W
LayerCount: 2
Fore
SplineSet
276 245 m 0,0,1
 276 232 276 232 262 208 c 0,2,3
 251 189 251 189 243 182 c 1,4,5
 226 164 226 164 209 162 c 0,6,7
 206 161 206 161 197.5 155 c 128,-1,8
 189 149 189 149 184.5 149 c 128,-1,9
 180 149 180 149 164 147.5 c 128,-1,10
 148 146 148 146 143 146 c 0,11,12
 135 146 135 146 106 153 c 1,13,14
 100 129 100 129 100 106 c 0,15,16
 100 102 100 102 109 52 c 128,-1,17
 118 2 118 2 118 -2 c 0,18,19
 118 -29 118 -29 88 -29 c 1,20,21
 92 -29 92 -29 73 -25 c 1,22,23
 61 -5 61 -5 46 34 c 1,24,25
 46 38 46 38 50 55.5 c 128,-1,26
 54 73 54 73 54 79 c 0,27,28
 57 125 57 125 54 171 c 0,29,30
 54 178 54 178 44.5 195.5 c 128,-1,31
 35 213 35 213 35 218 c 0,32,33
 35 222 35 222 44.5 236 c 128,-1,34
 54 250 54 250 57 258 c 1,35,36
 60 283 60 283 63 307 c 1,37,38
 71 348 71 348 90 348 c 0,39,40
 91 348 91 348 106 340 c 1,41,42
 113 321 113 321 104 305 c 1,43,44
 104 206 104 206 103 200 c 1,45,46
 136 187 136 187 152 187 c 0,47,48
 185 187 185 187 206 207 c 128,-1,49
 227 227 227 227 227 257 c 0,50,51
 227 277 227 277 208 310 c 0,52,53
 192 336 192 336 182 345 c 0,54,55
 154 372 154 372 107 391 c 128,-1,56
 60 410 60 410 20 410 c 0,57,58
 16 410 16 410 1 408 c 128,-1,59
 -14 406 -14 406 -21 406 c 0,60,61
 -22 405 -22 405 -35 389 c 0,62,63
 -44 379 -44 379 -54 379 c 0,64,65
 -67 379 -67 379 -68 405 c 0,66,67
 -68 452 -68 452 64 452 c 0,68,69
 69 452 69 452 77 447 c 128,-1,70
 85 442 85 442 88 442 c 0,71,72
 161 434 161 434 220 367 c 0,73,74
 276 304 276 304 276 245 c 0,0,1
EndSplineSet
EndChar

StartChar: Q
Encoding: 81 81 50
Width: 730
Flags: W
LayerCount: 2
Fore
SplineSet
776 -4 m 0,0,1
 776 -28 776 -28 747 -28 c 0,2,3
 728 -28 728 -28 696 -12 c 1,4,5
 687 1 687 1 663 18 c 1,6,7
 629 33 629 33 595 47 c 0,8,9
 545 68 545 68 520 68 c 0,10,11
 504 68 504 68 458 49 c 0,12,13
 429 38 429 38 401 26 c 0,14,15
 397 25 397 25 344 13 c 0,16,17
 312 6 312 6 300 -9 c 1,18,19
 300 -3 300 -3 296 1 c 1,20,21
 292 -3 292 -3 292 -8 c 1,22,23
 289 -8 289 -8 280 1 c 1,24,25
 259 -9 259 -9 209 -9 c 0,26,27
 178 -9 178 -9 122 7 c 1,28,29
 116 14 116 14 98 23 c 1,30,31
 51 35 51 35 15 86 c 0,32,33
 -19 134 -19 134 -19 179 c 0,34,35
 -19 188 -19 188 -17 195 c 0,36,37
 -17 196 -17 196 -20 201 c 128,-1,38
 -23 206 -23 206 -23 214 c 0,39,40
 -23 220 -23 220 -20.5 226.5 c 128,-1,41
 -18 233 -18 233 -17 238 c 0,42,43
 -7 324 -7 324 22 373 c 0,44,45
 47 415 47 415 79 448 c 1,46,47
 92 455 92 455 112 470 c 1,48,49
 149 511 149 511 207 535 c 0,50,51
 258 556 258 556 298 556 c 0,52,53
 318 556 318 556 359 488 c 1,54,55
 386 486 386 486 439 478 c 1,56,57
 472 471 472 471 497 458 c 0,58,59
 603 406 603 406 649 335 c 1,60,61
 658 315 658 315 675 282 c 1,62,-1
 675 217 l 1,63,64
 672 216 672 216 664 221 c 1,65,66
 647 164 647 164 594 127 c 1,67,68
 594 123 594 123 612 112 c 0,69,70
 617 109 617 109 683 85 c 0,71,72
 687 84 687 84 722 59 c 0,73,74
 776 21 776 21 776 -4 c 0,0,1
613 266 m 0,75,76
 613 290 613 290 597 309 c 0,77,78
 560 352 560 352 531 377 c 0,79,80
 525 382 525 382 507 387 c 0,81,82
 495 391 495 391 483 394 c 1,83,84
 466 403 466 403 450 412 c 0,85,86
 419 427 419 427 398 427 c 0,87,88
 360 427 360 427 304 420 c 0,89,90
 290 418 290 418 269 398 c 1,91,92
 267 395 267 395 267 388 c 0,93,94
 267 371 267 371 277 340.5 c 128,-1,95
 287 310 287 310 294 299 c 0,96,97
 316 267 316 267 376 218 c 0,98,99
 387 209 387 209 440 181 c 0,100,101
 500 149 500 149 515 149 c 0,102,103
 528 149 528 149 548 160 c 0,104,105
 613 196 613 196 613 266 c 0,75,76
441 106 m 1,106,107
 207 246 207 246 207 379 c 0,108,109
 207 392 207 392 213 410 c 0,110,111
 220 433 220 433 238.5 445.5 c 128,-1,112
 257 458 257 458 276 470 c 1,113,114
 284 461 284 461 292 461 c 1,115,116
 288 471 288 471 285 481 c 0,117,118
 279 494 279 494 271 494 c 0,119,120
 262 494 262 494 235.5 483.5 c 128,-1,121
 209 473 209 473 194 463 c 0,122,123
 157 436 157 436 139 421 c 0,124,125
 104 391 104 391 84 364 c 0,126,127
 81 359 81 359 81 350 c 0,128,129
 81 340 81 340 81 339 c 0,130,131
 44 264 44 264 44 209 c 0,132,133
 44 173 44 173 63 131 c 0,134,135
 89 73 89 73 135 73 c 0,136,137
 142 73 142 73 142 66 c 0,138,139
 142 70 142 70 147 73 c 1,140,141
 152 49 152 49 228 49 c 0,142,143
 229 49 229 49 364 69 c 1,144,145
 392 82 392 82 441 106 c 1,106,107
EndSplineSet
EndChar

StartChar: R
Encoding: 82 82 51
Width: 401
Flags: W
LayerCount: 2
Fore
SplineSet
421 -8 m 1,0,1
 399 -22 399 -22 385 -22 c 0,2,3
 370 -22 370 -22 346 20 c 0,4,5
 332 46 332 46 319 71 c 1,6,7
 300 97 300 97 265 153 c 1,8,9
 215 187 215 187 198 187 c 0,10,11
 184 187 184 187 170 178 c 1,12,13
 174 132 174 132 181 55 c 0,14,15
 182 51 182 51 190 41 c 128,-1,16
 198 31 198 31 198 26 c 0,17,18
 198 17 198 17 189.5 6 c 128,-1,19
 181 -5 181 -5 172 -5 c 0,20,21
 144 -5 144 -5 136 25.5 c 128,-1,22
 128 56 128 56 117 164 c 1,23,24
 108 174 108 174 79.5 181 c 128,-1,25
 51 188 51 188 42 202 c 1,26,27
 46 206 l 1,28,29
 44 208 44 208 36 208 c 1,30,-1
 36 226 l 1,31,32
 44 233 44 233 44 232 c 0,33,34
 44 233 44 233 40 233 c 1,35,36
 86 264 86 264 110 256 c 1,37,38
 116 260 116 260 116 271 c 0,39,40
 116 275 116 275 114.5 285.5 c 128,-1,41
 113 296 113 296 113 301 c 0,42,43
 113 321 113 321 136 321 c 0,44,45
 154 321 154 321 160 294 c 0,46,47
 164 275 164 275 167 255 c 1,48,49
 205 235 205 235 211 235 c 0,50,51
 233 235 233 235 267 260 c 0,52,53
 287 274 287 274 299 303 c 0,54,55
 301 306 301 306 301 323 c 0,56,57
 301 337 301 337 291 357 c 1,58,59
 291 360 291 360 289 367 c 1,60,61
 287 368 287 368 276 381 c 0,62,63
 268 390 268 390 263 390 c 0,64,65
 259 390 259 390 259.5 388.5 c 128,-1,66
 260 387 260 387 256 387 c 256,67,68
 252 387 252 387 245.5 391 c 128,-1,69
 239 395 239 395 237 396 c 0,70,71
 213 402 213 402 185 405 c 0,72,73
 179 405 179 405 164 408 c 128,-1,74
 149 411 149 411 144 411 c 0,75,76
 140 411 140 411 135 408 c 128,-1,77
 130 405 130 405 127 405 c 0,78,79
 104 401 104 401 31 384 c 0,80,81
 -17 373 -17 373 -22 360 c 0,82,83
 -28 342 -28 342 -24 309 c 1,84,85
 -36 297 -36 297 -40 297 c 0,86,87
 -53 297 -53 297 -61 322 c 0,88,89
 -67 340 -67 340 -67 349 c 0,90,91
 -67 404 -67 404 45 431 c 0,92,93
 116 448 116 448 189 448 c 0,94,95
 197 448 197 448 233.5 439.5 c 128,-1,96
 270 431 270 431 279 426 c 0,97,98
 293 416 293 416 318 404 c 1,99,-1
 314 402 l 1,100,101
 325 387 325 387 335 372.5 c 128,-1,102
 345 358 345 358 345 335 c 0,103,104
 345 292 345 292 324 264 c 0,105,106
 318 256 318 256 270 210 c 1,107,108
 309 171 309 171 333 135 c 1,109,110
 351 105 351 105 384 49 c 1,111,112
 391 44 391 44 402 35 c 1,113,114
 408 25 408 25 421 4 c 1,115,-1
 421 -8 l 1,0,1
EndSplineSet
EndChar

StartChar: S
Encoding: 83 83 52
Width: 366
Flags: W
LayerCount: 2
Fore
SplineSet
357 87 m 0,0,1
 357 52 357 52 338.5 32.5 c 128,-1,2
 320 13 320 13 272 -3 c 1,3,4
 269 -6 269 -6 272 -9 c 1,5,6
 263 -7 263 -7 242 -8 c 0,7,8
 214 -10 214 -10 218 -10 c 1,9,10
 183 -10 183 -10 147 5 c 0,11,12
 105 22 105 22 87 49 c 1,13,14
 74 58 74 58 54 83 c 1,15,16
 27 137 27 137 27 149 c 0,17,18
 27 160 27 160 33 170 c 0,19,20
 40 184 40 184 51 184 c 0,21,22
 63 184 63 184 81.5 168.5 c 128,-1,23
 100 153 100 153 103 142 c 1,24,25
 100 133 100 133 94 117 c 1,26,27
 115 86 115 86 145 62 c 1,28,29
 169 41 169 41 180 41 c 2,30,-1
 190 41 l 2,31,32
 194 41 194 41 212.5 37.5 c 128,-1,33
 231 34 231 34 236 34 c 2,34,-1
 249 34 l 2,35,36
 269 34 269 34 289 48.5 c 128,-1,37
 309 63 309 63 309 82 c 0,38,39
 309 99 309 99 308 103 c 0,40,41
 304 114 304 114 287 130 c 0,42,43
 273 142 273 142 202 177 c 0,44,45
 136 210 136 210 133 210 c 0,46,47
 129 210 129 210 127 208 c 128,-1,48
 125 206 125 206 121 206 c 256,49,50
 117 206 117 206 29 253 c 0,51,52
 -35 286 -35 286 -35 351 c 0,53,54
 -35 379 -35 379 -23 404 c 0,55,56
 -10 434 -10 434 14 443 c 0,57,58
 63 461 63 461 66.5 461.5 c 128,-1,59
 70 462 70 462 99 462 c 0,60,61
 142 462 142 462 176 443 c 1,62,63
 186 435 186 435 203 427 c 1,64,-1
 199 424 l 1,65,66
 217 410 217 410 230 386.5 c 128,-1,67
 243 363 243 363 243 347 c 0,68,69
 243 327 243 327 231 309 c 1,70,71
 203 311 203 311 207 315 c 1,72,73
 205 332 205 332 195 365 c 1,74,75
 180 393 180 393 153 403 c 0,76,77
 108 419 108 419 86 419 c 0,78,79
 71 419 71 419 48.5 406 c 128,-1,80
 26 393 26 393 21 380.5 c 128,-1,81
 16 368 16 368 16 343 c 0,82,83
 16 319 16 319 40.5 297 c 128,-1,84
 65 275 65 275 87 274 c 1,85,86
 83 268 83 268 91 268 c 0,87,88
 97 268 97 268 97 270 c 0,89,90
 95 276 95 276 95 274 c 0,91,92
 95 271 95 271 107 262 c 1,93,94
 145 248 145 248 184 235 c 1,95,96
 256 207 256 207 298 176 c 0,97,98
 357 134 357 134 357 87 c 0,0,1
EndSplineSet
EndChar

StartChar: T
Encoding: 84 84 53
Width: 391
Flags: W
LayerCount: 2
Fore
SplineSet
398 380 m 0,0,1
 398 356 398 356 362 356 c 0,2,3
 358 356 358 356 307.5 361.5 c 128,-1,4
 257 367 257 367 253 367 c 0,5,6
 237 367 237 367 234 350 c 1,7,8
 235 335 235 335 235 297 c 2,9,-1
 235 194 l 2,10,11
 235 56 235 56 238 13 c 1,12,13
 236 7 236 7 227.5 -0.5 c 128,-1,14
 219 -8 219 -8 213 -8 c 0,15,16
 198 -8 198 -8 182 13 c 0,17,18
 167 31 167 31 167 41 c 0,19,20
 167 44 167 44 174 66.5 c 128,-1,21
 181 89 181 89 181 100 c 2,22,23
 181 286 l 2,24,25
 181 298 181 298 183.5 323.5 c 128,-1,26
 186 349 186 349 186 352 c 0,27,28
 186 365 186 365 173 366 c 0,29,30
 151 367 151 367 84 367 c 0,31,32
 79 367 79 367 37.5 365 c 128,-1,33
 -4 363 -4 363 -9 363 c 0,34,35
 -12 363 -12 363 -18.5 367 c 128,-1,36
 -25 371 -25 371 -31 371 c 0,37,38
 -71 371 -71 371 -95 366 c 0,39,40
 -109 363 -109 363 -118 344 c 1,41,42
 -126 347 -126 347 -136.5 359 c 128,-1,43
 -147 371 -147 371 -147 378 c 0,44,45
 -147 395 -147 395 -121 405 c 0,46,47
 -100 413 -100 413 -80 412 c 2,48,-1
 176 412 l 1,49,50
 182 422 182 422 188.5 430.5 c 128,-1,51
 195 439 195 439 205 439 c 0,52,53
 210 439 210 439 219 428.5 c 128,-1,54
 228 418 228 418 230 417 c 0,55,56
 245 413 245 413 268 412 c 0,57,58
 303 412 303 412 325 410 c 0,59,60
 327 409 327 409 336.5 407 c 128,-1,61
 346 405 346 405 351 405 c 256,62,63
 356 405 356 405 358 407 c 128,-1,64
 360 409 360 409 364 409 c 0,65,66
 373 409 373 409 385.5 400 c 128,-1,67
 398 391 398 391 398 380 c 0,0,1
EndSplineSet
EndChar

StartChar: U
Encoding: 85 85 54
Width: 397
Flags: W
LayerCount: 2
Fore
SplineSet
382 333 m 0,0,1
 382 329 382 329 372 279.5 c 128,-1,2
 362 230 362 230 362 226 c 2,3,-1
 362 56 l 1,4,5
 370 33 370 33 378 26 c 1,6,7
 368 22 368 22 360 13.5 c 128,-1,8
 352 5 352 5 343 5 c 0,9,10
 333 5 333 5 328.5 7.5 c 128,-1,11
 324 10 324 10 319 16 c 1,12,13
 319 22 319 22 315.5 39.5 c 128,-1,14
 312 57 312 57 312 66 c 0,15,16
 312 158 312 158 307 179 c 1,17,-1
 307 184 l 1,18,19
 291 170 291 170 283 152 c 0,20,21
 253 89 253 89 192.5 43.5 c 128,-1,22
 132 -2 132 -2 79 -2 c 0,23,24
 75 -2 75 -2 67 3 c 128,-1,25
 59 8 59 8 56 8 c 0,26,27
 50 8 50 8 56 2 c 1,28,29
 30 7 30 7 15 50 c 0,30,31
 3 82 3 82 3 113 c 1,32,33
 10 173 l 1,34,35
 10 181 10 181 10 196 c 1,36,37
 15 244 15 244 17 258 c 0,38,39
 22 294 22 294 30 319 c 0,40,41
 35 333 35 333 47.5 349.5 c 128,-1,42
 60 366 60 366 71 367 c 1,43,44
 78 364 78 364 85.5 354.5 c 128,-1,45
 93 345 93 345 93 338 c 0,46,47
 93 334 93 334 85.5 326 c 128,-1,48
 78 318 78 318 77 315 c 0,49,50
 68 281 68 281 64 225 c 1,51,52
 54 206 54 206 57 163 c 1,53,54
 54 159 54 159 52 143 c 1,55,56
 56 131 l 1,57,58
 50 125 50 125 49 114 c 0,59,60
 49 98 49 98 59 89 c 1,61,62
 57 89 57 89 52 94 c 1,63,64
 52 84 52 84 57 75 c 1,65,66
 57 45 57 45 86 45 c 0,67,68
 142 45 142 45 197 105 c 0,69,70
 212 122 212 122 276 214 c 1,71,72
 282 248 282 248 323 296 c 1,73,74
 334 336 334 336 343 355 c 0,75,76
 347 363 347 363 360 363 c 0,77,78
 382 363 382 363 382 333 c 0,0,1
EndSplineSet
EndChar

StartChar: V
Encoding: 86 86 55
Width: 324
Flags: W
LayerCount: 2
Fore
SplineSet
360 348 m 0,0,1
 360 331 360 331 355 323 c 1,2,3
 347 320 347 320 334 311 c 1,4,5
 327 304 327 304 300 254 c 1,6,7
 286 234 286 234 258 192 c 1,8,9
 247 170 247 170 227.5 128 c 128,-1,10
 208 86 208 86 166 0 c 1,11,12
 158 -11 158 -11 140 -11 c 0,13,14
 123 -11 123 -11 119 1 c 0,15,16
 112 21 112 21 108 26 c 1,17,18
 113 27 113 27 113 31 c 1,19,20
 110 33 110 33 104 38 c 1,21,22
 72 128 72 128 55 220 c 0,23,24
 53 234 53 234 40 268 c 128,-1,25
 27 302 27 302 27 305 c 0,26,27
 27 336 27 336 51 336 c 0,28,29
 68 336 68 336 79 304 c 0,30,31
 89 269 89 269 109 207 c 1,32,33
 116 133 116 133 146 74 c 1,34,35
 150 74 150 74 156 87 c 0,36,37
 196 167 196 167 234 237 c 1,38,39
 256 271 256 271 297 342 c 0,40,41
 304 353 304 353 313 379 c 0,42,43
 317 391 317 391 331 391 c 0,44,45
 346 391 346 391 354 373 c 0,46,47
 360 360 360 360 360 348 c 0,0,1
231 209 m 1,48,-1
 231 218 l 1,49,-1
 225 218 l 1,50,-1
 225 209 l 1,51,-1
 231 209 l 1,48,-1
EndSplineSet
EndChar

StartChar: W
Encoding: 87 87 56
Width: 697
Flags: W
LayerCount: 2
Fore
SplineSet
715 420 m 0,0,1
 715 422 715 422 681 300 c 0,2,3
 681 298 681 298 675 280 c 0,4,5
 670 266 670 266 670 258 c 0,6,7
 670 252 670 252 672 249 c 1,8,9
 666 239 666 239 646 167 c 0,10,11
 632 114 632 114 593 91 c 0,12,13
 584 86 584 86 554.5 80 c 128,-1,14
 525 74 525 74 515 74 c 0,15,16
 488 74 488 74 446 101 c 1,17,18
 433 102 433 102 410 111 c 1,19,20
 392 126 392 126 362 160 c 0,21,22
 314 216 l 1,23,24
 306 222 306 222 289 235 c 1,25,26
 282 235 282 235 277 228 c 1,27,28
 270 213 270 213 225 116 c 1,29,30
 229 112 229 112 243 112 c 1,31,32
 236 112 236 112 228 109 c 1,33,34
 221 100 221 100 199 50 c 0,35,36
 185 20 185 20 159 20 c 0,37,38
 125 20 125 20 96 65 c 1,39,40
 77 99 77 99 58 134 c 0,41,42
 57 135 57 135 38 182 c 0,43,44
 31 199 31 199 10 293 c 1,45,46
 23 293 23 293 25 296 c 1,47,48
 23 299 23 299 6 299 c 1,49,50
 8 313 8 313 -1 341.5 c 128,-1,51
 -10 370 -10 370 -23 376 c 1,52,53
 -56 365 l 1,54,55
 -56 368 -56 368 -58.5 377.5 c 128,-1,56
 -61 387 -61 387 -61 392 c 0,57,58
 -61 409 -61 409 -46 436 c 128,-1,59
 -31 463 -31 463 -16 463 c 0,60,61
 10 463 10 463 25 431 c 0,62,63
 36 406 36 406 46 382 c 1,64,65
 57 334 57 334 68 287 c 0,66,67
 83 227 83 227 100 187 c 1,68,69
 102 185 102 185 108 187 c 1,70,71
 102 180 102 180 102 175 c 1,72,73
 116 157 l 1,74,75
 128 122 128 122 146 86 c 1,76,77
 153 86 153 86 157 93 c 0,78,79
 171 124 171 124 216 214 c 0,80,81
 257 295 257 295 257 296 c 0,82,83
 257 300 257 300 249 312.5 c 128,-1,84
 241 325 241 325 241 331 c 0,85,86
 241 361 241 361 272 361 c 0,87,88
 286 361 286 361 293 357 c 1,89,90
 297 368 297 368 309.5 382 c 128,-1,91
 322 396 322 396 331 396 c 0,92,93
 346 396 346 396 355 383 c 0,94,95
 362 374 362 374 362 367 c 0,96,97
 362 344 362 344 346.5 319.5 c 128,-1,98
 331 295 331 295 331 294 c 0,99,100
 331 284 331 284 377 228 c 128,-1,101
 423 172 423 172 427 172 c 0,102,103
 433 172 433 172 433 173 c 0,104,105
 432 175 432 175 431 176 c 0,106,107
 433 174 433 174 429 171 c 1,108,109
 441 161 441 161 463 146 c 0,110,111
 495 125 495 125 531 125 c 0,112,113
 550 125 550 125 563 134 c 0,114,115
 581 145 581 145 594.5 179 c 128,-1,116
 608 213 608 213 613 217 c 1,117,118
 610 220 610 220 606 220 c 1,119,-1
 606 233 l 2,120,121
 606 238 606 238 618 282 c 0,122,123
 634 335 634 335 636 343 c 0,124,125
 641 381 641 381 654 453 c 0,126,127
 657 470 657 470 682 470 c 0,128,129
 715 470 715 470 715 420 c 0,0,1
EndSplineSet
EndChar

StartChar: X
Encoding: 88 88 57
Width: 379
Flags: W
LayerCount: 2
Fore
SplineSet
400 62 m 0,0,1
 400 46 400 46 388 36.5 c 128,-1,2
 376 27 376 27 363 27 c 1,3,4
 347 32 l 1,5,6
 321 68 321 68 264 149 c 0,7,8
 242 181 242 181 209 219 c 1,9,10
 190 213 190 213 177 187 c 0,11,12
 156 147 156 147 155 145 c 0,13,14
 148 138 148 138 136 119 c 0,15,16
 134 115 134 115 137 115 c 1,17,18
 135 113 135 113 132 117 c 1,19,20
 114 94 114 94 57 8 c 0,21,22
 49 -5 49 -5 33 -5 c 0,23,24
 22 -5 22 -5 13 1.5 c 128,-1,25
 4 8 4 8 4 15 c 0,26,27
 4 33 4 33 19 63 c 0,28,29
 39 102 39 102 42 111 c 0,30,31
 50 141 50 141 73 194 c 1,32,33
 73 210 73 210 79 214 c 1,34,-1
 79 393 l 2,35,36
 79 398 79 398 73.5 403.5 c 128,-1,37
 68 409 68 409 68 413 c 0,38,39
 68 421 68 421 65.5 438.5 c 128,-1,40
 63 456 63 456 63 460 c 0,41,42
 63 470 63 470 69.5 481.5 c 128,-1,43
 76 493 76 493 88 493 c 0,44,45
 118 493 118 493 194 364 c 1,46,47
 200 364 200 364 201 365.5 c 128,-1,48
 202 367 202 367 203 367 c 1,49,50
 203 365 203 365 196 358 c 1,51,52
 203 348 203 348 214 324 c 1,53,54
 218 327 218 327 265 381 c 0,55,56
 306 427 306 427 318 427 c 0,57,58
 323 427 323 427 332 417 c 0,59,60
 345 404 345 404 349 401 c 1,61,62
 323 373 323 373 296 345 c 1,63,64
 251 294 251 294 251 278 c 0,65,66
 251 255 251 255 263 259 c 2,67,68
 263.5 259 l 130,-1,69
 264 259 264 259 263 258 c 256,70,71
 262 257 262 257 259 255 c 1,72,73
 321 153 321 153 398 75 c 0,74,75
 400 72 400 72 400 62 c 0,0,1
177 272 m 0,76,77
 177 276 177 276 151 321.5 c 128,-1,78
 125 367 125 367 114 371 c 1,79,80
 122 349 122 349 122 317 c 0,81,82
 122 299 122 299 119 262.5 c 128,-1,83
 116 226 116 226 116 209 c 0,84,85
 116 195 116 195 117 183 c 1,86,87
 126 198 126 198 154 236 c 0,88,89
 177 266 177 266 177 272 c 0,76,77
EndSplineSet
EndChar

StartChar: Y
Encoding: 89 89 58
Width: 385
Flags: W
LayerCount: 2
Fore
SplineSet
136 375 m 1,0,-1
 136 385 l 1,1,-1
 136 375 l 1,0,-1
395 446 m 256,2,3
 395 441 395 441 391.5 439 c 128,-1,4
 389 437 389 437 388 437 c 0,5,6
 348 406 348 406 313 359 c 1,7,8
 288 322 288 322 262 285 c 1,9,10
 255 278 255 278 255 275 c 0,11,12
 266 229 266 229 266 226 c 1,13,14
 258 220 258 220 256 215 c 1,15,16
 254 215 254 215 245 212.5 c 128,-1,17
 236 210 236 210 231 210 c 256,18,19
 226 210 226 210 226 212 c 128,-1,20
 226 214 226 214 222 214 c 256,21,22
 218 214 218 214 188 169 c 0,23,24
 157 121 157 121 146 94 c 0,25,26
 145 91 145 91 148 82.5 c 128,-1,27
 151 74 151 74 152 71 c 1,28,29
 135 52 135 52 117 31.5 c 128,-1,30
 99 11 99 11 93 11 c 0,31,32
 82 11 82 11 72.5 19 c 128,-1,33
 63 27 63 27 63 36 c 0,34,35
 63 59 63 59 106 134 c 0,36,37
 145 205 145 205 141 213 c 1,38,39
 169 233 169 233 169 247 c 0,40,41
 169 241 169 241 164 265 c 1,42,43
 149 268 149 268 113 307 c 0,44,45
 83 340 83 340 69 363 c 1,46,47
 49 379 49 379 21 409.5 c 128,-1,48
 -7 440 -7 440 -7 446 c 0,49,50
 -7 476 -7 476 20 476 c 0,51,52
 33 476 33 476 79 429 c 128,-1,53
 125 382 125 382 124 382 c 1,54,55
 129 382 129 382 130.5 383.5 c 128,-1,56
 132 385 132 385 133 385 c 1,57,58
 132 366 132 366 203 304 c 1,59,60
 205 304 205 304 209 305 c 1,61,62
 244 351 244 351 279 398 c 1,63,64
 342 476 342 476 374 476 c 0,65,66
 379 476 379 476 387 463.5 c 128,-1,67
 395 451 395 451 395 446 c 256,2,3
EndSplineSet
EndChar

StartChar: Z
Encoding: 90 90 59
Width: 380
Flags: W
LayerCount: 2
Fore
SplineSet
476 64 m 1,0,1
 477 58 477 58 468.5 44.5 c 128,-1,2
 460 31 460 31 453 31 c 0,3,4
 395 31 395 31 376 28 c 0,5,6
 349 22 349 22 284 12 c 1,7,8
 279 7 279 7 287 7 c 1,9,10
 286 7 286 7 284 8 c 0,11,12
 282 8 282 8 276 8 c 0,13,14
 272 8 272 8 183 -13 c 128,-1,15
 94 -34 94 -34 89 -34 c 0,16,17
 -4 -34 -4 -34 -4 31 c 0,18,19
 -4 43 -4 43 4 50 c 1,20,21
 2 86 2 86 59 131 c 1,22,23
 55 136 55 136 21 144 c 0,24,25
 -8 151 -8 151 -8 167 c 0,26,27
 -8 192 -8 192 17 192 c 0,28,29
 21 192 21 192 30.5 188 c 128,-1,30
 40 184 40 184 43 184 c 0,31,32
 51 184 51 184 69 183 c 128,-1,33
 87 182 87 182 91 182 c 0,34,35
 105 182 105 182 116 193 c 0,36,37
 139 214 139 214 181 259 c 1,38,39
 208 292 208 292 208 311 c 0,40,41
 208 307 208 307 203 331 c 1,42,43
 155 348 155 348 144 348 c 0,44,45
 116 348 116 348 68 339 c 0,46,47
 62 338 62 338 45.5 330.5 c 128,-1,48
 29 323 29 323 26 323 c 0,49,50
 21 323 21 323 12 329 c 0,51,52
 0 337 0 337 -4 339.5 c 128,-1,53
 -8 342 -8 342 -8 351 c 0,54,55
 -8 357 -8 357 0.5 368 c 128,-1,56
 9 379 9 379 13 379 c 0,57,58
 18 379 18 379 33.5 377.5 c 128,-1,59
 49 376 49 376 54 376 c 0,60,61
 57 376 57 376 70 382 c 128,-1,62
 83 388 83 388 89 389 c 0,63,64
 120 394 120 394 192 394 c 0,65,66
 204 394 204 394 230 374 c 0,67,68
 236 370 236 370 248.5 351 c 128,-1,69
 261 332 261 332 261 325 c 0,70,71
 261 312 261 312 229 243 c 1,72,73
 203 219 203 219 193 202 c 1,74,75
 209 199 209 199 220 199 c 0,76,77
 232 199 232 199 254 204.5 c 128,-1,78
 276 210 276 210 301 210 c 0,79,80
 323 210 323 210 325 209 c 0,81,82
 338 205 338 205 352 183 c 1,83,84
 327 164 327 164 326 163 c 0,85,86
 315 157 315 157 299 157 c 0,87,88
 296 157 296 157 286.5 158.5 c 128,-1,89
 277 160 277 160 273 160 c 0,90,91
 268 160 268 160 234.5 153 c 128,-1,92
 201 146 201 146 197 146 c 256,93,94
 193 146 193 146 190 148 c 128,-1,95
 187 150 187 150 183 150 c 0,96,97
 134 150 134 150 115 131 c 1,98,99
 85 95 85 95 56 60 c 1,100,101
 59 56 59 56 68 56 c 1,102,103
 62 56 62 56 55 53 c 1,104,105
 45 37 45 37 45 33 c 0,106,107
 45 16 45 16 62 14 c 1,108,109
 47 16 47 16 86 16 c 0,110,111
 113 16 113 16 226 42 c 0,112,113
 256 48 256 48 322 62 c 1,114,115
 406 83 406 83 444 83 c 0,116,117
 461 83 461 83 476 64 c 1,0,1
EndSplineSet
EndChar

StartChar: bracketleft
Encoding: 91 91 60
Width: 417
Flags: W
LayerCount: 2
Fore
SplineSet
446 26 m 0,0,1
 446 22 446 22 444 14 c 128,-1,2
 442 6 442 6 442 2 c 1,3,4
 438 2 438 2 428 -2.5 c 128,-1,5
 418 -7 418 -7 413 -7 c 0,6,7
 409 -7 409 -7 393.5 1.5 c 128,-1,8
 378 10 378 10 372 10 c 0,9,10
 368 10 368 10 343 2 c 0,11,12
 315 -8 315 -8 305 -10 c 0,13,14
 256 -16 256 -16 169 -38 c 1,15,16
 144 -43 144 -43 95 -53 c 0,17,18
 89 -55 89 -55 61.5 -66 c 128,-1,19
 34 -77 34 -77 29 -77 c 256,20,21
 24 -77 24 -77 12 -69.5 c 128,-1,22
 0 -62 0 -62 -1 -54 c 0,23,24
 -10 26 -10 26 -10 103 c 2,25,-1
 -10 283 l 2,26,27
 -10 317 -10 317 -22.5 338 c 128,-1,28
 -35 359 -35 359 -35 366 c 0,29,30
 -35 381 -35 381 -21.5 391 c 128,-1,31
 -8 401 -8 401 8 401 c 0,32,33
 14 401 14 401 18.5 399 c 128,-1,34
 23 397 23 397 24 397 c 2,35,-1
 316 446 l 2,36,37
 324 447 324 447 336 435 c 128,-1,38
 348 423 348 423 348 411 c 0,39,40
 348 404 348 404 331 397 c 0,41,42
 318 391 318 391 313 391 c 0,43,44
 232 387 232 387 165 374 c 1,45,46
 155 368 155 368 137 361 c 1,47,48
 110 358 110 358 54 350 c 1,49,50
 47 344 47 344 47 329 c 1,51,-1
 59 9 l 1,52,53
 66 2 66 2 74 2 c 0,54,55
 79 2 79 2 76 6 c 128,-1,56
 73 10 73 10 78 10 c 256,57,58
 83 10 83 10 81 6 c 128,-1,59
 79 2 79 2 84 2 c 256,60,61
 89 2 89 2 119 11 c 0,62,63
 155 22 155 22 168 25 c 0,64,65
 216 36 216 36 303 48 c 0,66,67
 378 59 378 59 391 59 c 0,68,69
 446 59 446 59 446 26 c 0,0,1
EndSplineSet
EndChar

StartChar: backslash
Encoding: 92 92 61
Width: 375
Flags: W
LayerCount: 2
Fore
SplineSet
363 108 m 0,0,1
 363 80 363 80 335 80 c 0,2,3
 316 80 316 80 292 114 c 0,4,5
 279 134 279 134 267 154 c 1,6,7
 196 225 196 225 100 374 c 1,8,9
 93 379 93 379 81 392 c 1,10,11
 63 417 63 417 32 466 c 1,12,13
 -11 540 -11 540 -11 552 c 0,14,15
 -11 576 -11 576 10 576 c 0,16,17
 25 576 25 576 37 560 c 0,18,19
 40 556 40 556 56 526 c 1,20,21
 73 502 73 502 106 455 c 0,22,23
 158 380 158 380 266 229 c 1,24,25
 291 201 291 201 316 174 c 1,26,27
 363 120 363 120 363 108 c 0,0,1
EndSplineSet
EndChar

StartChar: bracketright
Encoding: 93 93 62
Width: 340
Flags: W
LayerCount: 2
Fore
SplineSet
331 74 m 0,0,1
 331 60 331 60 296 48 c 1,2,3
 292 48 292 48 283.5 57 c 128,-1,4
 275 66 275 66 269 68 c 0,5,6
 250 75 250 75 214 84 c 1,7,8
 147 93 147 93 24 105 c 1,9,10
 19 111 19 111 9 119 c 1,11,12
 12 131 12 131 15 142 c 0,13,14
 19 157 19 157 36 157 c 0,15,16
 38 157 38 157 60.5 151 c 128,-1,17
 83 145 83 145 95 143 c 0,18,19
 161 136 161 136 235 129 c 2,20,-1
 246 129 l 1,21,22
 257 118 257 118 262 118 c 1,23,24
 263 145 263 145 254 192 c 0,25,26
 246 229 246 229 239 266 c 1,27,28
 235 273 235 273 230 287 c 1,29,30
 215 356 215 356 216 411 c 1,31,-1
 216 504 l 1,32,33
 213 506 213 506 207 506 c 0,34,35
 203 506 203 506 194 502 c 128,-1,36
 185 498 185 498 183 498 c 0,37,38
 96 485 96 485 67 485 c 0,39,40
 21 485 21 485 -8 507 c 1,41,42
 -8 510 -8 510 -6 521 c 128,-1,43
 -4 532 -4 532 -4 537 c 1,44,45
 16 535 16 535 65 529 c 0,46,47
 108 524 108 524 112 524 c 0,48,49
 117 524 117 524 179 541.5 c 128,-1,50
 241 559 241 559 245 559 c 0,51,52
 272 559 272 559 272 539 c 0,53,54
 272 528 272 528 261 514 c 1,55,-1
 261 406 l 2,56,57
 261 376 261 376 281 288 c 0,58,59
 288 257 288 257 312 158 c 0,60,61
 331 79 331 79 331 74 c 0,0,1
EndSplineSet
EndChar

StartChar: asciicircum
Encoding: 94 94 63
Width: 354
Flags: W
LayerCount: 2
Fore
SplineSet
348 416 m 1,0,1
 340 409 340 409 331 401.5 c 128,-1,2
 322 394 322 394 312 394 c 0,3,4
 305 394 305 394 300 396 c 1,5,6
 277 431 277 431 238 507 c 1,7,8
 233 528 233 528 221 569 c 1,9,10
 217 567 217 567 217 564 c 0,11,12
 217 572 217 572 217 573 c 1,13,-1
 208 573 l 1,14,15
 208 571 208 571 210 567.5 c 128,-1,16
 212 564 212 564 212 563 c 1,17,18
 210 563 210 563 204 569 c 1,19,20
 173 538 173 538 148 524 c 0,21,22
 139 519 139 519 51 453 c 0,23,24
 44 448 44 448 23 420 c 0,25,26
 17 412 17 412 6 412 c 0,27,28
 -15 412 -15 412 -15 436 c 0,29,30
 -15 462 -15 462 40 496 c 1,31,32
 45 501 45 501 84 528 c 1,33,34
 106 548 106 548 161 584 c 1,35,36
 178 600 178 600 194 616 c 0,37,38
 226 646 226 646 238 646 c 0,39,40
 257 646 257 646 270 604 c 1,41,42
 276 579 276 579 284.5 555.5 c 128,-1,43
 293 532 293 532 303 509 c 128,-1,44
 313 486 313 486 321 488 c 1,45,46
 319 485 319 485 319 482 c 0,47,48
 319 475 319 475 334 450.5 c 128,-1,49
 349 426 349 426 348 416 c 1,0,1
EndSplineSet
EndChar

StartChar: underscore
Encoding: 95 95 64
Width: 287
Flags: W
LayerCount: 2
Fore
SplineSet
286 -27 m 1,0,1
 277 -32 277 -32 261 -38 c 1,2,3
 259 -40 259 -40 260 -42 c 256,4,5
 261 -44 261 -44 262 -45 c 1,6,7
 256 -44 256 -44 252.5 -39 c 128,-1,8
 249 -34 249 -34 227 -34 c 0,9,10
 221 -34 221 -34 210.5 -40 c 128,-1,11
 200 -46 200 -46 198 -52 c 1,12,13
 190 -50 190 -50 176 -45 c 1,14,15
 175 -50 175 -50 170 -62 c 1,16,17
 167 -61 167 -61 162 -54.5 c 128,-1,18
 157 -48 157 -48 152 -48 c 0,19,20
 149 -48 149 -48 123 -50 c 128,-1,21
 97 -52 97 -52 83 -52 c 1,22,23
 80 -58 80 -58 75 -73 c 1,24,25
 44 -52 44 -52 43 -52 c 0,26,27
 29 -52 29 -52 29 -55 c 0,28,29
 30 -47 30 -47 28 -45 c 1,30,-1
 19 -52 l 1,31,32
 -11 -35 -11 -35 -11 -29 c 256,33,34
 -11 -23 -11 -23 -6 -14.5 c 128,-1,35
 -1 -6 -1 -6 3 -6 c 256,36,37
 7 -6 7 -6 24.5 -8 c 128,-1,38
 42 -10 42 -10 47 -10 c 0,39,40
 80 -10 80 -10 85 8 c 1,41,42
 100 -6 100 -6 110 -6 c 0,43,44
 114 -6 114 -6 138.5 -2.5 c 128,-1,45
 163 1 163 1 167.5 1 c 128,-1,46
 172 1 172 1 213 6 c 128,-1,47
 254 11 254 11 258 11 c 0,48,49
 271 11 271 11 286 -3 c 1,50,-1
 286 -27 l 1,0,1
EndSplineSet
EndChar

StartChar: grave
Encoding: 96 96 65
Width: 211
Flags: W
LayerCount: 2
Fore
SplineSet
258 428 m 1,0,1
 241 405 241 405 223 405 c 2,2,-1
 201 405 l 2,3,4
 197 405 197 405 189 410 c 128,-1,5
 181 415 181 415 176 415 c 0,6,7
 172 415 172 415 172.5 413.5 c 128,-1,8
 173 412 173 412 169 412 c 0,9,10
 150 412 150 412 80 456 c 0,11,12
 3 504 3 504 3 534 c 0,13,14
 3 552 3 552 20 552 c 0,15,16
 35 552 35 552 62 530 c 0,17,18
 79 515 79 515 97 500 c 0,19,20
 125 477 125 477 177 458 c 0,21,22
 218 443 218 443 258 428 c 1,0,1
EndSplineSet
EndChar

StartChar: a
Encoding: 97 97 66
Width: 413
Flags: W
LayerCount: 2
Fore
SplineSet
381 71 m 2,0,1
 381 68 381 68 375 60 c 1,2,3
 374 44 374 44 374 28 c 0,4,5
 373 6 373 6 365 6 c 0,6,7
 361 6 361 6 362 8 c 128,-1,8
 363 10 363 10 358 10 c 0,9,10
 350 10 350 10 356 4 c 1,11,12
 355 4 355 4 347.5 3.5 c 128,-1,13
 340 3 340 3 336 4 c 1,14,15
 328 21 328 21 309 52 c 1,16,17
 306 52 306 52 302.5 52 c 128,-1,18
 299 52 299 52 302 52 c 1,19,20
 304 54 304 54 304 59 c 0,21,22
 304 68 304 68 260 121 c 0,23,24
 219 171 219 171 210 177 c 0,25,26
 189 192 189 192 166 192 c 0,27,28
 152 192 152 192 134 181 c 0,29,30
 90 155 l 1,31,32
 85 148 85 148 75 137 c 1,33,34
 68 133 68 133 56 122 c 1,35,36
 54 115 54 115 47 102 c 1,37,38
 35 102 35 102 25 84 c 0,39,40
 17 71 17 71 17 62 c 0,41,42
 17 58 17 58 20 55 c 0,43,44
 41 34 41 34 54 34 c 0,45,46
 57 34 57 34 63.5 39.5 c 128,-1,47
 70 45 70 45 75 45 c 0,48,49
 79 45 79 45 82 41.5 c 128,-1,50
 85 38 85 38 89 38 c 256,51,52
 93 38 93 38 170 53.5 c 128,-1,53
 247 69 247 69 252 69 c 0,54,55
 256 69 256 69 266 60.5 c 128,-1,56
 276 52 276 52 276 46 c 0,57,58
 276 32 276 32 237 18 c 0,59,60
 205 6 205 6 192 6 c 0,61,62
 189 6 189 6 180 8 c 128,-1,63
 171 10 171 10 166 10 c 0,64,65
 163 10 163 10 145 3 c 128,-1,66
 127 -4 127 -4 118.5 -5 c 128,-1,67
 110 -6 110 -6 104 -18 c 1,68,69
 97 -18 97 -18 88 -12 c 1,70,71
 71 -14 71 -14 36 -10 c 1,72,73
 17 -5 17 -5 -3 9 c 0,74,75
 -26 25 -26 25 -27 39 c 0,76,77
 -27 43 -27 43 -31 49 c 128,-1,78
 -35 55 -35 55 -35 59 c 0,79,80
 -35 77 -35 77 -12 111 c 0,81,82
 8 140 8 140 22 151 c 0,83,84
 43 169 43 169 85 204 c 0,85,86
 105 220 105 220 145 232 c 1,87,88
 158 234 158 234 186 241 c 1,89,90
 189 265 189 265 234.5 300 c 128,-1,91
 280 335 280 335 302 335 c 0,92,93
 307 335 307 335 307.5 331.5 c 128,-1,94
 308 328 308 328 313 328 c 0,95,96
 317 328 317 328 319 329.5 c 128,-1,97
 321 331 321 331 325 331 c 0,98,99
 335 331 335 331 357 312 c 0,100,101
 365 305 365 305 373 283 c 128,-1,102
 381 261 381 261 381 246 c 2,103,-1
 381 71 l 2,0,1
332 242 m 1,104,105
 325 286 325 286 302 286 c 0,106,107
 284 286 284 286 256.5 261.5 c 128,-1,108
 229 237 229 237 227 224 c 1,109,110
 257 204 257 204 283 173 c 0,111,112
 324 125 324 125 327 122 c 1,113,-1
 332 242 l 1,104,105
42 98 m 1024,114,-1
EndSplineSet
EndChar

StartChar: b
Encoding: 98 98 67
Width: 302
Flags: W
LayerCount: 2
Fore
SplineSet
284 78 m 0,0,1
 284 65 284 65 275 22 c 1,2,3
 275 16 275 16 272 4 c 1,4,5
 265 -11 265 -11 238 -34 c 128,-1,6
 211 -57 211 -57 198 -57 c 2,7,-1
 139 -57 l 2,8,9
 136 -57 136 -57 123 -51.5 c 128,-1,10
 110 -46 110 -46 106 -46 c 256,11,12
 102 -46 102 -46 101 -48 c 1,13,-1
 101 -48 l 1,14,15
 101 -50 101 -50 97 -50 c 256,16,17
 93 -50 93 -50 84.5 -45.5 c 128,-1,18
 76 -41 76 -41 72 -40 c 0,19,20
 26 -35 26 -35 12 -35 c 1,21,22
 8 -29 8 -29 -7 -16 c 0,23,24
 -13 -12 -13 -12 -13 1 c 0,25,26
 -13 16 -13 16 2 30 c 1,27,28
 2 63 2 63 10 131 c 1,29,30
 23 191 23 191 31 279 c 0,31,32
 37 358 37 358 44 436 c 1,33,34
 47 436 47 436 57.5 438 c 128,-1,35
 68 440 68 440 73 440 c 256,36,37
 78 440 78 440 82 433.5 c 128,-1,38
 86 427 86 427 86 414 c 0,39,40
 86 398 86 398 81 389 c 0,41,42
 81 388 81 388 84.5 385 c 128,-1,43
 88 382 88 382 88 377 c 0,44,45
 88 373 88 373 86 367 c 128,-1,46
 84 361 84 361 84 358 c 0,47,48
 80 297 80 297 84 261 c 1,49,50
 67 159 67 159 67 141 c 0,51,52
 67 134 67 134 69 132 c 1,53,54
 96 167 96 167 124 201 c 0,55,56
 164 251 164 251 188 251 c 0,57,58
 195 251 195 251 210 242 c 0,59,60
 240 225 240 225 257 173 c 1,61,62
 265 163 265 163 275 141 c 1,63,64
 276 129 276 129 281 113 c 1,65,66
 279 107 279 107 281 95 c 0,67,68
 284 80 284 80 284 78 c 0,0,1
235 64 m 0,69,70
 235 100 235 100 221 126 c 1,71,-1
 225 129 l 1,72,73
 216 146 216 146 208 163 c 0,74,75
 192 193 192 193 181 199 c 1,76,77
 159 179 159 179 122 119.5 c 128,-1,78
 85 60 85 60 67 15 c 1,79,-1
 82 -1 l 1,80,81
 103 -2 103 -2 137 -7 c 0,82,83
 165 -11 165 -11 169 -11 c 0,84,85
 200 -11 200 -11 219 14 c 0,86,87
 235 36 235 36 235 64 c 0,69,70
EndSplineSet
EndChar

StartChar: c
Encoding: 99 99 68
Width: 365
Flags: W
LayerCount: 2
Fore
SplineSet
379 112 m 1,0,1
 375 104 375 104 365 95 c 1,2,-1
 367 91 l 1,3,4
 345 92 345 92 238 67 c 0,5,6
 230 65 230 65 151 60 c 0,7,8
 150 60 150 60 145 57.5 c 128,-1,9
 140 55 140 55 135 55 c 0,10,11
 128 55 128 55 60 67 c 1,12,13
 2 99 2 99 2 172 c 0,14,15
 2 202 2 202 45.5 266 c 128,-1,16
 89 330 89 330 123 344 c 0,17,18
 187 370 187 370 194 370 c 0,19,20
 219 370 219 370 257.5 340.5 c 128,-1,21
 296 311 296 311 296 288 c 0,22,23
 296 276 296 276 287.5 267 c 128,-1,24
 279 258 279 258 269 258 c 1,25,26
 260 273 260 273 250 289 c 0,27,28
 237 310 237 310 214 310 c 0,29,30
 209 310 209 310 208 308.5 c 128,-1,31
 207 307 207 307 203 307 c 0,32,33
 201 307 201 307 192 314 c 128,-1,34
 183 321 183 321 177 321 c 0,35,36
 168 321 168 321 141.5 300.5 c 128,-1,37
 115 280 115 280 112 270 c 1,38,39
 100 269 100 269 88 250 c 128,-1,40
 76 231 76 231 74 217 c 1,41,42
 66 216 66 216 60 192 c 0,43,44
 54 172 54 172 54 160 c 0,45,46
 54 101 54 101 147 101 c 0,47,48
 174 101 174 101 322 131 c 0,49,50
 362 139 362 139 353 139 c 1,51,52
 363 139 363 139 371 130.5 c 128,-1,53
 379 122 379 122 379 116 c 2,54,-1
 379 112 l 1,0,1
EndSplineSet
EndChar

StartChar: d
Encoding: 100 100 69
Width: 435
Flags: W
LayerCount: 2
Fore
SplineSet
434 -14 m 1,0,1
 430 -20 430 -20 416.5 -26 c 128,-1,2
 403 -32 403 -32 399 -32 c 0,3,4
 379 -32 379 -32 359 36 c 1,5,6
 341 116 l 1,7,8
 330 147 330 147 320 164 c 1,9,10
 303 126 303 126 215.5 78.5 c 128,-1,11
 128 31 128 31 86 31 c 0,12,13
 53 31 53 31 28.5 55.5 c 128,-1,14
 4 80 4 80 4 108 c 0,15,16
 4 112 4 112 6.5 121.5 c 128,-1,17
 9 131 9 131 10 134 c 0,18,19
 13 175 13 175 53 213 c 0,20,21
 90 248 90 248 133 262 c 0,22,23
 153 268 153 268 168 268 c 0,24,25
 191 268 191 268 288 251 c 1,26,27
 300 268 300 268 300 281 c 0,28,29
 300 318 300 318 300 319 c 0,30,31
 302 363 302 363 303 407 c 0,32,33
 306 462 306 462 313 492 c 1,34,35
 332 503 332 503 336 503 c 0,36,37
 342 503 342 503 350 494.5 c 128,-1,38
 358 486 358 486 359 477 c 0,39,40
 368 429 368 429 368 393 c 2,41,-1
 368 298 l 2,42,43
 368 294 368 294 371 276 c 0,44,45
 375 255 375 255 377 246 c 0,46,47
 383 184 l 0,48,49
 388 150 388 150 395 145 c 1,50,51
 395 125 395 125 403 99 c 1,52,53
 407 80 407 80 417 44 c 1,54,55
 422 35 422 35 433 12 c 0,56,57
 434 8 434 8 434 -14 c 1,0,1
290 212 m 1,58,59
 178 223 178 223 165 223 c 256,60,61
 152 223 152 223 112 200 c 1,62,63
 122 200 122 200 117 195 c 0,64,65
 116 195 116 195 115.5 197 c 128,-1,66
 115 199 115 199 111 199 c 0,67,68
 97 199 97 199 75 166 c 128,-1,69
 53 133 53 133 53 116 c 0,70,71
 53 106 53 106 59 95 c 0,72,73
 67 80 67 80 81 80 c 0,74,75
 85 80 85 80 99 83.5 c 128,-1,76
 113 87 113 87 118 87 c 128,-1,77
 123 87 123 87 127 92 c 128,-1,78
 131 97 131 97 135 97 c 256,79,80
 139 97 139 97 141 95.5 c 128,-1,81
 143 94 143 94 147 94 c 256,82,83
 151 94 151 94 159.5 97.5 c 128,-1,84
 168 101 168 101 171.5 101 c 128,-1,85
 175 101 175 101 221 133.5 c 128,-1,86
 267 166 267 166 272 172 c 0,87,88
 282 187 282 187 290 212 c 1,58,59
EndSplineSet
EndChar

StartChar: e
Encoding: 101 101 70
Width: 390
Flags: W
LayerCount: 2
Fore
SplineSet
409 38 m 0,0,1
 409 20 409 20 374 13 c 1,2,3
 354 11 354 11 334 8 c 0,4,5
 306 5 306 5 250 -5 c 1,6,7
 184 -22 184 -22 174 -22 c 0,8,9
 170 -22 170 -22 135 -20 c 128,-1,10
 100 -18 100 -18 95.5 -18 c 128,-1,11
 91 -18 91 -18 90.5 -16.5 c 128,-1,12
 90 -15 90 -15 85 -15 c 0,13,14
 77 -15 77 -15 46 0 c 0,15,16
 39 3 39 3 25 28 c 1,17,18
 20 29 20 29 11 35 c 1,19,20
 -11 67 -11 67 -11 101 c 0,21,22
 -11 104 -11 104 -7 129 c 0,23,24
 -3 158 -3 158 -2 168 c 1,25,26
 -3 172 -3 172 -7 179 c 1,27,28
 -9 206 -9 206 -3 226 c 1,29,30
 17 237 17 237 24 237 c 0,31,32
 29 237 29 237 33.5 235 c 128,-1,33
 38 233 38 233 39 233 c 1,34,35
 62 284 62 284 115 315 c 0,36,37
 162 342 162 342 204 342 c 0,38,39
 229 342 229 342 249 330 c 0,40,41
 255 326 255 326 280 292 c 0,42,43
 307 255 307 255 307 246 c 2,44,-1
 307 217 l 1,45,46
 295 208 295 208 275 186 c 0,47,48
 273 183 273 183 231 163 c 0,49,50
 186 143 186 143 173 143 c 1,51,-1
 162 146 l 2,52,53
 157 146 157 146 154 143 c 128,-1,54
 151 140 151 140 149 137 c 1,55,56
 111 129 111 129 75 129 c 0,57,58
 62 129 62 129 47 132 c 1,59,60
 38 113 38 113 38 106 c 0,61,62
 38 93 38 93 42 82 c 0,63,64
 64 27 64 27 148 27 c 0,65,66
 152 27 152 27 197.5 30.5 c 128,-1,67
 243 34 243 34 247 34 c 128,-1,68
 251 34 251 34 253 40 c 1,69,70
 365 62 365 62 377 62 c 0,71,72
 409 62 409 62 409 38 c 0,0,1
258 239 m 0,73,74
 258 236 258 236 249 260 c 0,75,76
 246 269 246 269 251 274 c 1,77,78
 207 296 207 296 197 296 c 0,79,80
 158 296 158 296 115.5 257.5 c 128,-1,81
 73 219 73 219 63 182 c 1,82,83
 117 174 117 174 136 174 c 0,84,85
 142 174 142 174 186 192 c 1,86,87
 193 185 193 185 195 185 c 1,88,89
 195 192 195 192 198 194 c 1,90,91
 219 200 219 200 238.5 213 c 128,-1,92
 258 226 258 226 258 239 c 0,73,74
25 147 m 1,93,-1
 25 156 l 1,94,-1
 19 156 l 1,95,-1
 19 147 l 1,96,-1
 25 147 l 1,93,-1
EndSplineSet
EndChar

StartChar: f
Encoding: 102 102 71
Width: 382
Flags: W
LayerCount: 2
Fore
SplineSet
363 106 m 0,0,1
 363 80 363 80 321 80 c 0,2,3
 317 80 317 80 309.5 83.5 c 128,-1,4
 302 87 302 87 298 87 c 256,5,6
 294 87 294 87 289 82.5 c 128,-1,7
 284 78 284 78 281 77 c 0,8,9
 270 77 270 77 249 75 c 1,10,11
 227 69 227 69 205 53 c 1,12,13
 209 30 209 30 220 -30 c 0,14,15
 230 -80 230 -80 230 -85 c 0,16,17
 230 -109 230 -109 207 -109 c 0,18,19
 180 -109 180 -109 180 -76 c 0,20,21
 180 -71 180 -71 182 -65 c 1,22,23
 180 -64 180 -64 175 -59 c 1,24,25
 170 -32 170 -32 166 -6 c 0,26,27
 160 26 160 26 150 45 c 1,28,29
 132 41 132 41 88 28 c 0,30,31
 48 17 48 17 44 17 c 0,32,33
 41 17 41 17 31 18.5 c 128,-1,34
 21 20 21 20 15 20 c 128,-1,35
 9 20 9 20 -1 40 c 1,36,37
 1 44 1 44 7 50 c 1,38,39
 47 63 47 63 129 84 c 0,40,41
 134 86 134 86 142 92 c 1,42,-1
 22 450 l 1,43,44
 18 448 18 448 18 445 c 0,45,46
 18 448 18 448 16 457 c 128,-1,47
 14 466 14 466 14 469 c 1,48,49
 10 478 10 478 -7 512 c 0,50,51
 -22 542 -22 542 -22 546 c 0,52,53
 -22 553 -22 553 -16 564 c 0,54,55
 -8 580 -8 580 4 580 c 0,56,57
 10 580 10 580 85 494 c 0,58,59
 127 447 127 447 168 401 c 0,60,61
 222 341 222 341 258 289 c 0,62,63
 279 260 279 260 300 232 c 1,64,65
 335 181 335 181 334 162 c 1,66,-1
 334 150 l 1,67,68
 322 143 322 143 308 143 c 256,69,70
 294 143 294 143 291 148 c 1,71,72
 275 146 275 146 247 146 c 0,73,74
 244 146 244 146 215 155.5 c 128,-1,75
 186 165 186 165 173 167 c 1,76,77
 171 161 171 161 179.5 132.5 c 128,-1,78
 188 104 188 104 197 104 c 0,79,80
 201 104 201 104 216.5 107.5 c 128,-1,81
 232 111 232 111 236 111 c 128,-1,82
 240 111 240 111 248 116.5 c 128,-1,83
 256 122 256 122 259 122 c 0,84,85
 305 132 305 132 336 132 c 0,86,87
 345 132 345 132 354 124 c 128,-1,88
 363 116 363 116 363 106 c 0,0,1
264 192 m 1,89,90
 233 263 233 263 151 351 c 0,91,92
 129 374 129 374 80 415 c 1,93,94
 87 385 87 385 105 329 c 1,95,96
 115 315 115 315 127 291 c 1,97,98
 142 239 142 239 157 214 c 1,99,100
 185 209 185 209 228 199 c 1,101,-1
 235 206 l 1,102,103
 242 199 242 199 252.5 195.5 c 128,-1,104
 263 192 263 192 264 192 c 1,89,90
EndSplineSet
EndChar

StartChar: g
Encoding: 103 103 72
Width: 411
Flags: W
LayerCount: 2
Fore
SplineSet
472 163 m 0,0,1
 472 165 472 165 467 151 c 1,2,3
 422 120 422 120 315 31 c 1,4,5
 301 12 301 12 270 -27 c 1,6,7
 273 -80 273 -80 273 -223 c 1,8,9
 269 -220 269 -220 267 -223 c 1,10,11
 261 -256 261 -256 254 -290 c 0,12,13
 241 -343 241 -343 224 -343 c 0,14,15
 220 -343 220 -343 220 -341 c 1,16,-1
 220 -341 l 1,17,18
 220 -339 220 -339 215 -339 c 0,19,20
 211 -339 211 -339 210 -342.5 c 128,-1,21
 209 -346 209 -346 205 -346 c 0,22,23
 192 -346 192 -346 177 -332 c 128,-1,24
 162 -318 162 -318 159 -306 c 1,25,26
 152 -296 152 -296 142.5 -270 c 128,-1,27
 133 -244 133 -244 133 -208 c 0,28,29
 133 -170 133 -170 153 -115.5 c 128,-1,30
 173 -61 173 -61 216 -18 c 0,31,32
 224 -10 224 -10 224 7 c 0,33,34
 224 30 224 30 208 134 c 1,35,36
 204 144 204 144 191 168 c 1,37,38
 175 157 175 157 139 141 c 1,39,40
 133 140 133 140 118 139 c 1,41,42
 118 138 118 138 113.5 132 c 128,-1,43
 109 126 109 126 104 126 c 2,44,-1
 51 126 l 2,45,46
 30 126 30 126 4.5 144.5 c 128,-1,47
 -21 163 -21 163 -33 186 c 0,48,49
 -38 195 -38 195 -38 222 c 0,50,51
 -38 270 -38 270 19 305 c 1,52,53
 31 315 31 315 57 331 c 1,54,55
 105 350 105 350 147 350 c 0,56,57
 170 350 170 350 185 341 c 1,58,59
 192 334 192 334 207 326 c 1,60,-1
 207 323 l 1,61,62
 215 316 215 316 226 296 c 1,63,64
 235 264 235 264 264 100 c 0,65,66
 266 87 266 87 266 52 c 1,67,68
 265 52 l 129,-1,69
 266.5 52 l 130,-1,70
 268 52 268 52 271 52 c 0,71,72
 275 52 275 52 333 103 c 0,73,74
 412 171 412 171 428 184 c 0,75,76
 434 189 434 189 450 189 c 0,77,78
 457 189 457 189 464.5 178 c 128,-1,79
 472 167 472 167 472 163 c 0,0,1
189 239 m 0,80,81
 189 246 189 246 176.5 273 c 128,-1,82
 164 300 164 300 160 303 c 1,83,84
 121 308 121 308 130 308 c 1,85,86
 125 308 125 308 100 298 c 0,87,88
 71 288 71 288 61 285 c 0,89,90
 57 284 57 284 39 266 c 0,91,92
 29 256 29 256 18 246 c 0,93,94
 4 232 4 232 4 220 c 0,95,96
 4 205 4 205 25.5 186.5 c 128,-1,97
 47 168 47 168 62 168 c 0,98,99
 66 168 66 168 83 169.5 c 128,-1,100
 100 171 100 171 104 171 c 0,101,102
 120 171 120 171 154.5 196.5 c 128,-1,103
 189 222 189 222 189 239 c 0,80,81
223 -77 m 1,104,105
 196 -140 196 -140 192 -152 c 0,106,107
 182 -181 182 -181 182 -217 c 0,108,109
 182 -242 182 -242 190 -271 c 0,110,111
 192 -279 192 -279 206 -290 c 1,112,113
 205 -286 205 -286 210 -274 c 128,-1,114
 215 -262 215 -262 216 -257 c 0,115,116
 224 -166 224 -166 223 -77 c 1,104,105
EndSplineSet
EndChar

StartChar: h
Encoding: 104 104 73
Width: 348
Flags: W
LayerCount: 2
Fore
SplineSet
379 71 m 1,0,1
 370 55 370 55 354 11 c 1,2,3
 353 11 353 11 350 8.5 c 128,-1,4
 347 6 347 6 342 6 c 2,5,-1
 328 6 l 2,6,7
 322 6 322 6 313 15 c 128,-1,8
 304 24 304 24 303 30 c 0,9,10
 288 112 288 112 268 157 c 1,11,12
 253 140 253 140 218 105 c 1,13,14
 196 71 196 71 174 38 c 1,15,16
 126 -29 126 -29 99 -29 c 0,17,18
 77 -29 77 -29 45 21 c 0,19,20
 41 28 41 28 30 49 c 0,21,22
 26 57 26 57 26 72 c 128,-1,23
 26 87 26 87 23 92 c 0,24,25
 23 93 23 93 29 99 c 1,26,27
 24 102 24 102 19 113 c 1,28,29
 12 252 12 252 9 410 c 0,30,31
 9 430 9 430 5 478 c 0,32,33
 1 523 1 523 1 525 c 0,34,35
 1 552 1 552 31 552 c 0,36,37
 47 552 47 552 49 536 c 0,38,39
 54 494 54 494 61 417 c 1,40,41
 67 319 67 319 67 225 c 2,42,-1
 67 130 l 2,43,44
 67 99 67 99 82 54 c 1,45,46
 89 45 89 45 101 27 c 1,47,48
 108 30 108 30 119 44 c 0,49,50
 161 99 161 99 203 153 c 0,51,52
 268 234 268 234 282 234 c 0,53,54
 295 234 295 234 296 234 c 0,55,56
 304 230 304 230 312.5 208.5 c 128,-1,57
 321 187 321 187 330 150 c 0,58,59
 340 103 340 103 344 90 c 1,60,61
 353 88 353 88 364 85.5 c 128,-1,62
 375 83 375 83 379 71 c 1,0,1
EndSplineSet
EndChar

StartChar: i
Encoding: 105 105 74
Width: 202
Flags: W
LayerCount: 2
Fore
SplineSet
73 520 m 0,0,1
 73 517 73 517 68.5 505 c 128,-1,2
 64 493 64 493 65 487 c 1,3,4
 62 482 62 482 52.5 482 c 128,-1,5
 43 482 43 482 43 480 c 1,6,7
 42 482 42 482 36 478 c 1,8,9
 21 501 21 501 21 513 c 0,10,11
 21 552 21 552 49 552 c 0,12,13
 73 552 73 552 73 520 c 0,0,1
171 25 m 1,14,15
 166 21 l 130,-1,16
 161 17 161 17 163 6 c 0,17,18
 162 9 162 9 159 13 c 1,19,20
 160 10 160 10 152 10 c 0,21,22
 148 10 148 10 145 6.5 c 128,-1,23
 142 3 142 3 138 3 c 0,24,25
 131 3 131 3 120 14 c 1,26,27
 119 24 119 24 115.5 44 c 128,-1,28
 112 64 112 64 112 68 c 2,29,-1
 112 329 l 2,30,31
 112 337 112 337 123 343 c 128,-1,32
 134 349 134 349 140 349 c 0,33,34
 154 349 154 349 164 313 c 0,35,36
 171 287 171 287 171 274 c 2,37,-1
 171 25 l 1,14,15
EndSplineSet
EndChar

StartChar: j
Encoding: 106 106 75
Width: 154
Flags: W
LayerCount: 2
Fore
SplineSet
67 556 m 1,0,1
 59 541 59 541 48 541 c 0,2,3
 31 541 31 541 16 560 c 0,4,5
 4 576 4 576 4 588 c 0,6,7
 4 618 4 618 32 618 c 0,8,9
 58 618 58 618 64 585 c 0,10,11
 64 582 64 582 65.5 571.5 c 128,-1,12
 67 561 67 561 67 556 c 1,0,1
123 -236 m 1,13,14
 118 -242 118 -242 116 -255 c 0,15,16
 115 -262 115 -262 113.5 -268.5 c 128,-1,17
 112 -275 112 -275 101.5 -283 c 128,-1,18
 91 -291 91 -291 84 -291 c 0,19,20
 79 -291 79 -291 70 -284 c 128,-1,21
 61 -277 61 -277 60 -272 c 0,22,23
 58 -258 58 -258 59 -237 c 0,24,25
 59 -233 59 -233 57 -210 c 0,26,27
 55 -190 55 -190 57 -177 c 0,28,29
 59 -159 59 -159 67 -149 c 1,30,-1
 67 151 l 1,31,32
 64 154 64 154 60 154 c 1,33,34
 53 297 53 297 53 358 c 0,35,36
 53 363 53 363 63 371.5 c 128,-1,37
 73 380 73 380 79 380 c 0,38,39
 111 380 111 380 108 228 c 0,40,41
 108 226 108 226 107 212 c 128,-1,42
 106 198 106 198 106 190 c 0,43,44
 106 175 106 175 109.5 119.5 c 128,-1,45
 113 64 113 64 113 44 c 1,46,47
 118 37 118 37 122 37 c 1,48,-1
 119 21 l 1,49,50
 113 15 113 15 112 -6 c 1,51,-1
 109 -165 l 1,52,53
 109 -225 109 -225 123 -236 c 1,13,14
EndSplineSet
EndChar

StartChar: k
Encoding: 107 107 76
Width: 383
Flags: W
LayerCount: 2
Fore
SplineSet
424 -5 m 0,0,1
 424 -17 424 -17 415.5 -28.5 c 128,-1,2
 407 -40 407 -40 394 -40 c 256,3,4
 381 -40 381 -40 369 -28 c 1,5,6
 357 -8 357 -8 332 27 c 0,7,8
 322 40 322 40 288 68 c 0,9,10
 266 86 266 86 184 146 c 1,11,12
 172 143 172 143 162 115 c 0,13,14
 154 94 154 94 147 73 c 1,15,16
 139 70 139 70 139 63 c 0,17,18
 139 58 139 58 144 52 c 1,19,20
 139 51 139 51 136 55 c 1,21,22
 128 42 128 42 107 -2 c 0,23,24
 94 -30 94 -30 78 -46 c 0,25,26
 58 -68 58 -68 53 -68 c 0,27,28
 44 -68 44 -68 27 -49 c 0,29,30
 3 -22 3 -22 -2 53 c 0,31,32
 -7 138 -7 138 -19 325 c 1,33,34
 -34 355 -34 355 -34 381 c 0,35,36
 -34 388 -34 388 -24 396 c 128,-1,37
 -14 404 -14 404 -8 404 c 0,38,39
 7 404 7 404 18 373 c 0,40,41
 30 335 l 1,42,43
 29 333 29 333 29 320 c 1,44,-1
 53 22 l 1,45,-1
 59 16 l 1,46,47
 62 19 62 19 72.5 29.5 c 128,-1,48
 83 40 83 40 88 46 c 1,49,50
 85 48 85 48 82 48 c 1,51,52
 128 149 128 149 224 347 c 1,53,54
 227 362 227 362 236 389 c 1,55,56
 243 404 243 404 258 404 c 0,57,58
 265 404 265 404 284 386 c 1,59,60
 288 357 288 357 262 311 c 0,61,62
 222 243 222 243 220 238 c 128,-1,63
 218 233 218 233 208 214 c 0,64,65
 200 199 200 199 200 194 c 0,66,67
 200 192 200 192 308 108 c 0,68,69
 348 76 348 76 365 69 c 1,70,-1
 361 66 l 1,71,72
 382 44 382 44 421 3 c 1,73,74
 424 3 424 3 424 -5 c 0,0,1
EndSplineSet
EndChar

StartChar: l
Encoding: 108 108 77
Width: 120
Flags: W
LayerCount: 2
Fore
SplineSet
92 22 m 0,0,1
 92 10 92 10 78.5 2 c 128,-1,2
 65 -6 65 -6 56 -6 c 0,3,4
 43 -6 43 -6 38 15 c 0,5,6
 34 41 l 1,7,8
 22 69 22 69 23 87 c 1,9,-1
 23 102 l 1,10,11
 39 101 39 101 43 104 c 1,12,13
 39 106 39 106 23 106 c 1,14,-1
 12 382 l 1,15,16
 12 383 12 383 13.5 420.5 c 128,-1,17
 15 458 15 458 15 475 c 1,18,19
 27 492 l 1,20,21
 40 491 40 491 64 493 c 1,22,23
 62 491 62 491 57 489 c 1,24,25
 67 473 67 473 67 455 c 0,26,27
 67 447 67 447 65 434 c 128,-1,28
 63 421 63 421 63 416 c 0,29,30
 63 403 63 403 71 395 c 1,31,32
 65 387 l 1,33,34
 63 374 63 374 66 352 c 1,35,-1
 68 352 l 1,36,-1
 68 341 l 2,37,38
 68 345 68 345 68 346 c 1,39,40
 67 344 l 130,-1,41
 66 342 66 342 65 341 c 0,42,43
 65 340 65 340 69 334 c 1,44,45
 67 325 67 325 67 314 c 0,46,47
 67 275 67 275 70 237 c 0,48,49
 72 190 72 190 76 94 c 0,50,51
 76 81 76 81 84 53 c 128,-1,52
 92 25 92 25 92 22 c 0,0,1
43 234 m 1,53,-1
 43 240 l 1,54,-1
 30 240 l 1,55,-1
 30 234 l 1,56,-1
 43 234 l 1,53,-1
EndSplineSet
EndChar

StartChar: m
Encoding: 109 109 78
Width: 540
Flags: W
LayerCount: 2
Fore
SplineSet
559 161 m 1,0,-1
 537 161 l 1,1,2
 537 155 537 155 538 141 c 0,3,4
 539 123 539 123 539 115 c 0,5,6
 539 73 539 73 510 73 c 0,7,8
 506 73 506 73 487 84 c 1,9,10
 486 104 486 104 483 141 c 0,11,12
 480 169 480 169 475 179 c 1,13,14
 478 186 478 186 478 197 c 256,15,16
 478 208 478 208 475 229 c 128,-1,17
 472 250 472 250 472 256 c 1,18,19
 469 258 469 258 459 258 c 0,20,21
 457 258 457 258 338 161 c 1,22,23
 338 159 338 159 341.5 155.5 c 128,-1,24
 345 152 345 152 345 150 c 1,25,26
 343 150 343 150 337 157 c 1,27,28
 322 137 322 137 285 99 c 0,29,30
 283 96 283 96 286 96 c 1,31,32
 284 94 284 94 281 97 c 1,33,34
 279 97 279 97 269.5 90 c 128,-1,35
 260 83 260 83 255 83 c 0,36,37
 242 83 242 83 235 94 c 128,-1,38
 228 105 228 105 225 132 c 0,39,40
 224 152 224 152 222 172.5 c 128,-1,41
 220 193 220 193 217.5 215 c 128,-1,42
 215 237 215 237 207 255 c 1,43,44
 180 234 180 234 157 203 c 0,45,46
 118 148 118 148 98 112.5 c 128,-1,47
 78 77 78 77 63 36 c 0,48,49
 63 35 63 35 53 22 c 0,50,51
 46 13 46 13 40 13 c 0,52,53
 31 13 31 13 18.5 21 c 128,-1,54
 6 29 6 29 4 36 c 0,55,56
 -3 63 -3 63 -11 115 c 0,57,58
 -18 160 -18 160 -18 169 c 2,59,-1
 -18 259 l 2,60,61
 -18 263 -18 263 -21.5 284.5 c 128,-1,62
 -25 306 -25 306 -25 312 c 0,63,64
 -25 349 -25 349 -1 349 c 0,65,66
 22 349 22 349 27 298 c 1,67,68
 28 270 28 270 28 242 c 0,69,70
 29 238 29 238 32 180 c 0,71,72
 35 141 35 141 44 115 c 1,73,74
 56 126 56 126 77 162 c 128,-1,75
 98 198 98 198 106 207 c 0,76,77
 130 236 130 236 155 265 c 0,78,79
 199 314 199 314 218 314 c 0,80,81
 257 314 257 314 266 218 c 1,82,83
 269 199 269 199 275 156 c 1,84,85
 290 164 290 164 294 185 c 1,86,-1
 301 185 l 1,87,88
 338 218 338 218 377 252 c 128,-1,89
 416 286 416 286 454 297 c 1,90,91
 463 310 463 310 478 310 c 0,92,93
 494 310 494 310 512 284 c 0,94,95
 523 267 523 267 527 236 c 0,96,97
 529 215 529 215 532 194 c 0,98,99
 533 188 533 188 544.5 176 c 128,-1,100
 556 164 556 164 559 161 c 1,0,-1
EndSplineSet
EndChar

StartChar: n
Encoding: 110 110 79
Width: 391
Flags: W
LayerCount: 2
Fore
SplineSet
386 -4 m 1,0,1
 364 -16 364 -16 344 -16 c 0,2,3
 329 -16 329 -16 322 6 c 1,4,5
 319 22 319 22 315 37 c 0,6,7
 314 40 314 40 302 52 c 1,8,9
 306 54 306 54 311 59 c 1,10,11
 316 105 316 105 316 132 c 1,12,13
 313 135 313 135 306 139 c 1,14,15
 306 140 306 140 314 149 c 0,16,17
 320 155 320 155 320 160 c 0,18,19
 320 171 320 171 302 181 c 1,20,21
 311 190 311 190 327 213 c 1,22,-1
 327 222 l 1,23,24
 330 225 330 225 321 225 c 0,25,26
 320 225 320 225 299 205 c 1,27,28
 243 147 243 147 127 32 c 1,29,30
 111 13 111 13 71 -26 c 1,31,32
 65 -30 65 -30 49 -30 c 0,33,34
 37 -30 37 -30 27.5 -19.5 c 128,-1,35
 18 -9 18 -9 20 6 c 1,36,37
 11 12 11 12 9 27 c 0,38,39
 5 63 5 63 5 94 c 0,40,41
 5 109 5 109 9 139 c 0,42,43
 15 177 15 177 22 184 c 1,44,45
 19 187 19 187 16 187 c 1,46,47
 24 251 24 251 21 293 c 0,48,49
 21 295 21 295 16.5 305.5 c 128,-1,50
 12 316 12 316 12 321 c 0,51,52
 12 347 12 347 35 347 c 0,53,54
 46 347 46 347 52 342 c 1,55,56
 65 328 65 328 68.5 300.5 c 128,-1,57
 72 273 72 273 78 264 c 1,58,59
 70 264 70 264 70 267 c 0,60,61
 65 226 65 226 58 150 c 0,62,63
 56 124 56 124 57 36 c 1,64,-1
 310 277 l 1,65,66
 316 277 316 277 326 283.5 c 128,-1,67
 336 290 336 290 340.5 290.5 c 128,-1,68
 345 291 345 291 360 291 c 0,69,70
 373 291 373 291 379 244 c 0,71,72
 379 240 379 240 372 163 c 128,-1,73
 365 86 365 86 365 82 c 0,74,75
 365 54 365 54 372 28 c 128,-1,76
 379 2 379 2 386 -4 c 1,0,1
EndSplineSet
EndChar

StartChar: o
Encoding: 111 111 80
Width: 343
Flags: W
LayerCount: 2
Fore
SplineSet
326 228 m 0,0,1
 326 224 326 224 317 185 c 1,2,3
 309 165 309 165 292 124 c 1,4,5
 290 124 290 124 251 86 c 0,6,7
 217 53 217 53 189 54 c 1,8,9
 189 41 189 41 191 41 c 1,10,11
 188 41 188 41 179.5 42 c 128,-1,12
 171 43 171 43 167 43 c 0,13,14
 162 43 162 43 154 39.5 c 128,-1,15
 146 36 146 36 142 36 c 128,-1,16
 138 36 138 36 122 32.5 c 128,-1,17
 106 29 106 29 102 29 c 0,18,19
 96 29 96 29 73 41 c 1,20,21
 74 44 74 44 73 47 c 1,22,23
 74 47 74 47 74.5 47.5 c 128,-1,24
 75 48 75 48 75 49 c 0,25,26
 74 50 74 50 70 50 c 256,27,28
 66 50 66 50 65 48 c 128,-1,29
 64 46 64 46 60 46 c 0,30,31
 51 46 51 46 32 60.5 c 128,-1,32
 13 75 13 75 8.5 83 c 128,-1,33
 4 91 4 91 -2 117 c 0,34,35
 -2 118 -2 118 -6 123 c 128,-1,36
 -10 128 -10 128 -10 134 c 0,37,38
 -10 152 -10 152 15 230 c 0,39,40
 39 305 39 305 125 365 c 1,41,42
 147 371 147 371 191 371 c 1,43,44
 193 366 193 366 211 357 c 1,45,46
 218 369 218 369 234 389 c 1,47,48
 234 387 234 387 227 360 c 1,49,50
 236 358 236 358 257 345.5 c 128,-1,51
 278 333 278 333 282 333 c 0,52,53
 287 333 287 333 290 334.5 c 128,-1,54
 293 336 293 336 294 336 c 1,55,56
 294 335 294 335 292.5 329 c 128,-1,57
 291 323 291 323 291 321 c 0,58,59
 294 316 294 316 301 310 c 1,60,61
 326 243 326 243 326 228 c 0,0,1
277 217 m 0,62,63
 277 221 277 221 270 228.5 c 128,-1,64
 263 236 263 236 263 239 c 1,65,66
 273 240 273 240 273 249 c 256,67,68
 273 258 273 258 262 278 c 128,-1,69
 251 298 251 298 251 299 c 1,70,71
 242 305 242 305 236 305 c 0,72,73
 235 304 235 304 226 289 c 0,74,75
 221 280 221 280 210 280 c 0,76,77
 205 280 205 280 194 290 c 0,78,79
 179 303 179 303 177 305 c 1,80,81
 166 298 166 298 148 275 c 0,82,83
 132 256 132 256 128 256 c 256,84,85
 124 256 124 256 111 257.5 c 128,-1,86
 98 259 98 259 93 259 c 0,87,88
 84 259 84 259 80 249 c 0,89,90
 74 235 74 235 73 234 c 128,-1,91
 72 233 72 233 65 230 c 1,92,93
 59 215 59 215 47 188 c 0,94,95
 48 192 48 192 50 181 c 1,96,97
 42 168 42 168 42 151 c 0,98,99
 42 117 42 117 65.5 97.5 c 128,-1,100
 89 78 89 78 123 78 c 0,101,102
 133 78 133 78 182 89 c 1,103,104
 192 105 192 105 209 107 c 1,105,106
 213 113 213 113 220 125 c 1,107,108
 226 124 226 124 236 130 c 128,-1,109
 246 136 246 136 251 145 c 1,110,111
 255 159 255 159 263 177 c 1,112,113
 259 181 259 181 259 187 c 1,114,115
 263 191 263 191 271 194 c 1,116,117
 277 214 277 214 277 217 c 0,62,63
EndSplineSet
EndChar

StartChar: p
Encoding: 112 112 81
Width: 274
Flags: W
LayerCount: 2
Fore
SplineSet
273 129 m 0,0,1
 273 91 273 91 239 67 c 0,2,3
 210 46 210 46 178 46 c 1,4,5
 183 46 183 46 141 52 c 0,6,7
 139 52 139 52 116 51 c 0,8,9
 102 50 102 50 99 57 c 0,10,11
 99 56 99 56 95 51 c 1,12,13
 87 12 87 12 87 -20 c 0,14,15
 87 -24 87 -24 89 -43.5 c 128,-1,16
 91 -63 91 -63 91 -67 c 2,17,-1
 91 -159 l 2,18,19
 91 -163 91 -163 98 -185.5 c 128,-1,20
 105 -208 105 -208 105 -212 c 0,21,22
 105 -218 105 -218 98 -227.5 c 128,-1,23
 91 -237 91 -237 85 -237 c 2,24,-1
 65 -237 l 1,25,26
 64 -227.5 l 130,-1,27
 63 -218 63 -218 55 -218 c 0,28,29
 43 -219 43 -219 39 -186 c 0,30,31
 38 -179 38 -179 38 -137 c 2,32,-1
 38 -5 l 2,33,34
 38 130 38 130 36 191 c 0,35,36
 35 199 35 199 33 231 c 0,37,38
 31 259 31 259 31 263 c 0,39,40
 31 270 31 270 40 279 c 128,-1,41
 49 288 49 288 58 288 c 0,42,43
 73 288 73 288 78 260 c 0,44,45
 80 242 80 242 81 223 c 1,46,47
 91 172 91 172 91 105 c 1,48,49
 108 95 108 95 112 95 c 0,50,51
 115 95 115 95 124 96.5 c 128,-1,52
 133 98 133 98 138 98 c 0,53,54
 143 97 143 97 156.5 91 c 128,-1,55
 170 85 170 85 175 85 c 0,56,57
 185 85 185 85 207 98.5 c 128,-1,58
 229 112 229 112 229 122 c 1,59,60
 231 125 231 125 231 130 c 1,61,-1
 227 133 l 1,62,63
 223 190 223 190 170 260 c 0,64,65
 162 271 162 271 115 306 c 1,66,67
 72 319 72 319 51 319 c 0,68,69
 48 319 48 319 42 320 c 0,70,71
 37 320 37 320 34 320 c 0,72,73
 12 320 12 320 -8 285 c 1,74,-1
 -31 285 l 1,75,76
 -31 287 -31 287 -33 293.5 c 128,-1,77
 -35 300 -35 300 -35 305 c 0,78,79
 -35 330 -35 330 0 348 c 0,80,81
 21 358 21 358 37 361 c 1,82,-1
 44 354 l 1,83,84
 51 361 51 361 65 361 c 0,85,86
 107 361 107 361 132 345 c 1,87,88
 143 334 143 334 163 320 c 1,89,90
 180 313 180 313 202 287 c 0,91,92
 221 264 221 264 227 264 c 1,93,-1
 224 261 l 1,94,95
 268 185 268 185 268 146 c 1,96,97
 270.5 140 l 130,-1,98
 273 134 273 134 273 129 c 0,0,1
209 223 m 1,99,-1
 209 229 l 1,100,-1
 193 229 l 1,101,-1
 193 223 l 1,102,-1
 209 223 l 1,99,-1
64 -210 m 1,103,-1
 59 -204 l 1,104,-1
 55 -208 l 1,105,-1
 60 -213 l 1,106,-1
 64 -210 l 1,103,-1
71 -229 m 1,107,-1
 71 -220 l 1,108,-1
 65 -220 l 1,109,-1
 65 -229 l 1,110,-1
 71 -229 l 1,107,-1
EndSplineSet
EndChar

StartChar: q
Encoding: 113 113 82
Width: 316
Flags: W
LayerCount: 2
Fore
SplineSet
301 236 m 1,0,1
 292 227 292 227 289 220 c 0,2,3
 288 215 288 215 289 209 c 0,4,5
 291 201 291 201 291 200 c 0,6,7
 291 196 291 196 287.5 164.5 c 128,-1,8
 284 133 284 133 284 129 c 2,9,-1
 284 16 l 2,10,11
 284 12 284 12 282 -48 c 128,-1,12
 280 -108 280 -108 280 -112 c 2,13,-1
 280 -200 l 2,14,15
 280 -223 280 -223 299 -287 c 1,16,17
 298 -287 298 -287 296 -290 c 0,18,19
 294 -294 294 -294 298 -294 c 1,20,21
 296 -296 296 -296 293 -293 c 1,22,23
 279 -310 279 -310 270 -310 c 0,24,25
 249 -310 249 -310 236 -258 c 0,26,27
 226 -219 226 -219 226 -186 c 0,28,29
 229 -92 229 -92 233 97 c 0,30,31
 233 100 233 100 229 106 c 1,32,33
 215 95 215 95 185 72 c 1,34,-1
 187 68 l 1,35,36
 184.5 69.5 l 130,-1,37
 182 71 182 71 177 71 c 0,38,39
 173 71 173 71 138 60.5 c 128,-1,40
 103 50 103 50 98 50 c 0,41,42
 51 50 51 50 12 107 c 1,43,44
 12 118 12 118 8 144.5 c 128,-1,45
 4 171 4 171 4 174 c 0,46,47
 4 220 4 220 26 259 c 0,48,49
 34 275 34 275 42 292 c 0,50,51
 54 313 54 313 75 325 c 0,52,53
 82 329 82 329 96 330 c 1,54,55
 101 334 101 334 110 339 c 1,56,57
 115 339 115 339 126 341.5 c 128,-1,58
 137 344 137 344 142 344 c 0,59,60
 177 344 177 344 207 319 c 0,61,62
 233 298 233 298 244 270 c 1,63,64
 252 276 252 276 252 284 c 0,65,66
 252 288 252 288 238 308 c 1,67,68
 240 308 240 308 244 306.5 c 128,-1,69
 248 305 248 305 250 305 c 1,70,71
 249 304 249 304 249 312 c 0,72,73
 249 318 249 318 257 324 c 128,-1,74
 265 330 265 330 271 330 c 0,75,76
 282 330 282 330 288 322 c 128,-1,77
 294 314 294 314 301 304 c 1,78,-1
 301 236 l 1,0,1
245 209 m 1,79,80
 237 214 237 214 237 227 c 0,81,82
 237 239 237 239 241 245 c 1,83,84
 232 242 232 242 216 235 c 1,85,86
 207 240 207 240 205 253 c 0,87,88
 203 261 203 261 202 269 c 1,89,90
 200 273 200 273 180 287.5 c 128,-1,91
 160 302 160 302 151 302 c 0,92,93
 111 302 111 302 96 290 c 0,94,95
 53 256 53 256 53 172 c 0,96,97
 53 146 53 146 55 140 c 0,98,99
 59 121 59 121 77 111 c 1,100,101
 71 108 71 108 75 104 c 1,102,103
 102 92 102 92 104 92 c 0,104,105
 138 92 138 92 180 121 c 0,106,107
 228 155 228 155 239 201 c 0,108,109
 241 205 241 205 245 209 c 1,79,80
237 -256 m 1024,110,-1
EndSplineSet
EndChar

StartChar: r
Encoding: 114 114 83
Width: 346
Flags: W
LayerCount: 2
Fore
SplineSet
382 236 m 0,0,1
 382 207 382 207 352 207 c 0,2,3
 332 207 332 207 329.5 227.5 c 128,-1,4
 327 248 327 248 309 248 c 0,5,6
 302 248 302 248 277.5 239.5 c 128,-1,7
 253 231 253 231 242 223 c 0,8,9
 211 202 211 202 154 153 c 1,10,11
 130 127 130 127 103 85 c 1,12,13
 101 75 101 75 108 72 c 1,14,15
 104 70 104 70 101 74 c 1,16,17
 92 55 92 55 85.5 16 c 128,-1,18
 79 -23 79 -23 70 -38 c 1,19,20
 57 -39 57 -39 37 -30 c 1,21,22
 22 9 22 9 22 47 c 0,23,24
 22 50 22 50 26 101 c 0,25,26
 30 157 30 157 31 180 c 1,27,28
 28 208 28 208 30 258 c 1,29,30
 35 280 35 280 53 280 c 0,31,32
 74 280 74 280 77 261 c 0,33,34
 80 229 80 229 80 133 c 1,35,36
 125 193 125 193 193 242 c 0,37,38
 270 297 270 297 328 297 c 0,39,40
 346 297 346 297 364 276 c 128,-1,41
 382 255 382 255 382 236 c 0,0,1
EndSplineSet
EndChar

StartChar: s
Encoding: 115 115 84
Width: 258
Flags: W
LayerCount: 2
Fore
SplineSet
258 217 m 1,0,1
 255 217 255 217 246.5 215 c 128,-1,2
 238 213 238 213 234 213 c 0,3,4
 224 213 224 213 221 218 c 1,5,6
 218 247 218 247 183.5 277.5 c 128,-1,7
 149 308 149 308 122 308 c 0,8,9
 77 308 77 308 41 254 c 1,10,11
 48 241 48 241 65 232 c 0,12,13
 146 185 146 185 166 185 c 0,14,15
 171 185 171 185 174.5 186 c 128,-1,16
 178 187 178 187 180 187 c 1,17,18
 171 187 171 187 167 184 c 1,19,20
 200 162 200 162 224 113 c 128,-1,21
 248 64 248 64 248 23 c 0,22,23
 248 17 248 17 241.5 7 c 128,-1,24
 235 -3 235 -3 229 -6 c 0,25,26
 201 -17 201 -17 180 -17 c 0,27,28
 143 -17 143 -17 99 -2 c 0,29,30
 82 3 82 3 25 47 c 1,31,32
 3 82 3 82 3 91 c 256,33,34
 3 100 3 100 10.5 108 c 128,-1,35
 18 116 18 116 27 116 c 0,36,37
 43 116 43 116 50 103 c 0,38,39
 90 32 90 32 178 32 c 0,40,41
 190 32 190 32 202 41 c 1,42,43
 199 53 199 53 191 78 c 1,44,45
 177 110 177 110 159 130.5 c 128,-1,46
 141 151 141 151 114 165 c 0,47,48
 92 175 92 175 70 184 c 0,49,50
 62 186 62 186 46 190 c 0,51,52
 19 199 19 199 -3 225 c 0,53,54
 -11 234 -11 234 -11 250 c 0,55,56
 -11 288 -11 288 45 323 c 0,57,58
 94 353 94 353 125 353 c 256,59,60
 156 353 156 353 207 312.5 c 128,-1,61
 258 272 258 272 258 247 c 2,62,-1
 258 217 l 1,0,1
EndSplineSet
EndChar

StartChar: t
Encoding: 116 116 85
Width: 388
Flags: W
LayerCount: 2
Fore
SplineSet
414 62 m 0,0,1
 414 55 414 55 412 51 c 0,2,3
 403 37 403 37 386 30 c 0,4,5
 373 26 373 26 360 21 c 1,6,7
 308 -10 308 -10 277 -10 c 2,8,-1
 185 -10 l 2,9,10
 156 -10 156 -10 118 31 c 0,11,12
 82 69 82 69 82 90 c 0,13,14
 82 95 82 95 85 97 c 1,15,16
 83 99 83 99 75 99 c 1,17,18
 75 104 75 104 70 115.5 c 128,-1,19
 65 127 65 127 65 132 c 0,20,21
 61 164 61 164 59 198 c 1,22,23
 52 207 52 207 38 207 c 0,24,25
 33 207 33 207 19 196.5 c 128,-1,26
 5 186 5 186 1 186 c 0,27,28
 -10 186 -10 186 -18 197 c 128,-1,29
 -26 208 -26 208 -23 221 c 1,30,31
 2 242 2 242 17 242 c 0,32,33
 22 242 22 242 23 239 c 128,-1,34
 24 236 24 236 24 235 c 1,35,36
 30 235 30 235 28 241 c 1,37,38
 39 243 39 243 63 255 c 1,39,40
 67 343 67 343 71 440 c 1,41,-1
 71 524 l 1,42,43
 89 543 89 543 97 543 c 0,44,45
 121 543 121 543 122 513 c 0,46,47
 122 520 122 520 117 398 c 0,48,49
 116 361 116 361 116 266 c 1,50,51
 119 266 119 266 124.5 264.5 c 128,-1,52
 130 263 130 263 134 263 c 256,53,54
 138 263 138 263 187 275.5 c 128,-1,55
 236 288 236 288 241 288 c 0,56,57
 245 288 245 288 245 286 c 128,-1,58
 245 284 245 284 249 284 c 0,59,60
 255 284 255 284 249 290 c 1,61,62
 289 291 289 291 312 289 c 1,63,-1
 312 286 l 1,64,65
 326 280 326 280 326 267 c 0,66,67
 326 257 326 257 318 249.5 c 128,-1,68
 310 242 310 242 300 242 c 0,69,70
 296 242 296 242 276.5 245.5 c 128,-1,71
 257 249 257 249 253 249 c 256,72,73
 249 249 249 249 239.5 243 c 128,-1,74
 230 237 230 237 227 236 c 0,75,76
 198 232 198 232 195 232 c 0,77,78
 191 232 191 232 188 233.5 c 128,-1,79
 185 235 185 235 181 235 c 256,80,81
 177 235 177 235 164.5 230 c 128,-1,82
 152 225 152 225 147 225 c 1,83,84
 147 214 l 1,85,86
 146 216 146 216 143 221 c 1,87,88
 140 218 140 218 140 215 c 1,89,90
 138 215 138 215 132 221 c 1,91,92
 109 216 109 216 109 195 c 0,93,94
 109 175 109 175 124 108 c 0,95,96
 130 81 130 81 166 55 c 128,-1,97
 202 29 202 29 228 29 c 0,98,99
 232 29 232 29 248 30.5 c 128,-1,100
 264 32 264 32 268 32 c 0,101,102
 288 32 288 32 317 47 c 0,103,104
 326 52 326 52 338 76 c 1,105,106
 345 77 345 77 362.5 84.5 c 128,-1,107
 380 92 380 92 384 92 c 0,108,109
 396 92 396 92 405 81.5 c 128,-1,110
 414 71 414 71 414 62 c 0,0,1
EndSplineSet
EndChar

StartChar: u
Encoding: 117 117 86
Width: 363
Flags: W
LayerCount: 2
Fore
SplineSet
376 271 m 1,0,-1
 360 275 l 1,1,-1
 360 281 l 1,2,-1
 376 277 l 1,3,-1
 376 271 l 1,0,-1
359 7 m 0,4,5
 359 -6 359 -6 348 -15.5 c 128,-1,6
 337 -25 337 -25 329 -25 c 0,7,8
 298 -25 298 -25 298 37 c 0,9,10
 298 54 298 54 301 77 c 0,11,12
 302 88 302 88 303 100 c 1,13,-1
 303 120 l 1,14,-1
 298 126 l 1,15,16
 278 104 278 104 240 64 c 1,17,18
 165 -4 165 -4 127 -4 c 0,19,20
 123 -4 123 -4 108.5 -7.5 c 128,-1,21
 94 -11 94 -11 90 -11 c 0,22,23
 45 -11 45 -11 22 40 c 0,24,25
 6 75 6 75 6 112 c 0,26,27
 6 159 6 159 31 250 c 1,28,29
 35 291 35 291 45 324 c 0,30,31
 49 335 49 335 67 335 c 0,32,33
 74 335 74 335 90 321 c 1,34,35
 91 302 91 302 87 281 c 0,36,37
 87 278 87 278 72 216 c 0,38,39
 61 172 61 172 61 148 c 0,40,41
 61 145 61 145 58 134.5 c 128,-1,42
 55 124 55 124 55 120 c 0,43,44
 55 35 55 35 104 35 c 0,45,46
 108 35 108 35 120 40 c 128,-1,47
 132 45 132 45 135 45 c 0,48,49
 140 45 140 45 140 42 c 128,-1,50
 140 39 140 39 141 38 c 0,51,52
 148 38 148 38 145 47 c 1,53,54
 153 52 153 52 168 60 c 1,55,56
 179 69 179 69 199 84 c 0,57,58
 243 117 243 117 275 183 c 0,59,60
 304 243 304 243 304 284 c 1,61,62
 307 284 307 284 314 288 c 1,63,64
 310 291 310 291 307 291 c 1,65,66
 316 307 316 307 328 307 c 0,67,68
 345 307 345 307 351 292 c 0,69,70
 355 281 355 281 355 268 c 0,71,72
 355 256 355 256 350.5 238 c 128,-1,73
 346 220 346 220 346 215 c 0,74,75
 347 210 347 210 351 201 c 1,76,77
 346 196 346 196 346 176 c 0,78,79
 346 170 346 170 350 152 c 128,-1,80
 354 134 354 134 354 124 c 0,81,82
 354 117 354 117 353 75 c 0,83,84
 351 43 351 43 353 23 c 0,85,86
 353 22 353 22 356 17 c 128,-1,87
 359 12 359 12 359 7 c 0,4,5
EndSplineSet
EndChar

StartChar: v
Encoding: 118 118 87
Width: 342
Flags: W
LayerCount: 2
Fore
SplineSet
356 374 m 0,0,1
 356 344 356 344 341 322 c 1,2,3
 328 314 328 314 308 294 c 1,4,5
 278 252 278 252 266 229 c 1,6,7
 245 195 245 195 203 130 c 1,8,9
 184 94 184 94 164 58 c 0,10,11
 127 -4 127 -4 108 -4 c 0,12,13
 104 -4 104 -4 104 0 c 1,14,-1
 104 0 l 1,15,16
 104 3 104 3 99 3 c 0,17,18
 95 3 95 3 97.5 -0.5 c 128,-1,19
 100 -4 100 -4 96 -4 c 256,20,21
 92 -4 92 -4 93.5 -0.5 c 128,-1,22
 95 3 95 3 91 3 c 0,23,24
 86 3 86 3 86 -4 c 1,25,26
 73 4 73 4 57 22 c 1,27,28
 39 76 39 76 23 181 c 128,-1,29
 7 286 7 286 7 349 c 1,30,31
 19 360 19 360 28 360 c 0,32,33
 36 360 36 360 47 351 c 1,34,35
 68 284 68 284 74 190 c 0,36,37
 75 176 75 176 94 62 c 1,38,39
 96 60 96 60 98.5 58.5 c 128,-1,40
 101 57 101 57 103 56 c 1,41,42
 120 75 120 75 148 114 c 1,43,44
 180 181 180 181 236 267.5 c 128,-1,45
 292 354 292 354 312 393 c 1,46,47
 324 402 324 402 332 402 c 0,48,49
 341 402 341 402 348.5 391.5 c 128,-1,50
 356 381 356 381 356 374 c 0,0,1
EndSplineSet
EndChar

StartChar: w
Encoding: 119 119 88
Width: 497
Flags: W
LayerCount: 2
Fore
SplineSet
509 316 m 0,0,1
 509 305 509 305 501.5 290.5 c 128,-1,2
 494 276 494 276 488.5 263 c 128,-1,3
 483 250 483 250 473 229 c 1,4,5
 459 211 459 211 440 177 c 1,6,7
 429 150 429 150 409 99 c 1,8,9
 410 94 410 94 410 85 c 1,10,11
 395 51 395 51 377 22 c 1,12,13
 374 21 374 21 358.5 12 c 128,-1,14
 343 3 343 3 338 3 c 2,15,-1
 320 3 l 2,16,17
 314 3 314 3 294 17.5 c 128,-1,18
 274 32 274 32 266 42 c 1,19,20
 250 68 250 68 210 122 c 1,21,22
 191 113 191 113 159 59 c 0,23,24
 150 42 150 42 133 19 c 0,25,26
 122 3 122 3 105 3 c 0,27,28
 101 3 101 3 100 -0.5 c 128,-1,29
 99 -4 99 -4 95 -4 c 0,30,31
 87 -4 87 -4 74.5 10 c 128,-1,32
 62 24 62 24 56 39 c 0,33,34
 31 101 31 101 22 207 c 1,35,36
 14 233 14 233 1 284 c 0,37,38
 0 285 0 285 -7 288 c 1,39,40
 -15 298 -15 298 -15 307 c 1,41,42
 -13 309 -13 309 -14.5 311.5 c 128,-1,43
 -16 314 -16 314 -15 314 c 1,44,45
 -7 346 -7 346 8 346 c 0,46,47
 30 346 30 346 50 296 c 1,48,49
 58 282 58 282 73 254 c 1,50,51
 73 251 73 251 70.5 243.5 c 128,-1,52
 68 236 68 236 68 232 c 0,53,54
 68 227 68 227 74 227 c 0,55,56
 79 227 79 227 82 230 c 1,57,58
 79 225 79 225 79 203 c 0,59,60
 79 204 79 204 90 142 c 1,61,62
 93 138 93 138 105 137 c 1,63,-1
 93 137 l 1,64,65
 93 133 93 133 91.5 126 c 128,-1,66
 90 120 90 120 90 119 c 0,67,68
 90 112 90 112 96 112 c 1,69,-1
 90 106 l 1,70,71
 94 94 94 94 106 70 c 1,72,73
 122 90 122 90 154 125 c 1,74,75
 159 137 159 137 171.5 153 c 128,-1,76
 184 169 184 169 184 173 c 256,77,78
 184 177 184 177 172 195 c 128,-1,79
 160 213 160 213 160 218 c 0,80,81
 160 226 160 226 170.5 233.5 c 128,-1,82
 181 241 181 241 184 241 c 0,83,84
 193 241 193 241 217 217 c 1,85,86
 248 242 248 242 273 279 c 1,87,88
 275 278 275 278 280 276 c 128,-1,89
 285 274 285 274 287 272 c 1,90,91
 290 275 290 275 290 283 c 1,92,93
 310 263 310 263 310 255 c 0,94,95
 310 245 310 245 294 224 c 0,96,97
 288 215 288 215 265 197 c 0,98,99
 247 183 247 183 247 178 c 0,100,101
 247 170 247 170 254 160.5 c 128,-1,102
 261 151 261 151 264 151 c 2,103,104
 265 151 l 2,105,106
 266 151 266 151 265 150 c 256,107,108
 264 149 264 149 261 148 c 1,109,110
 289 102 289 102 296 92 c 0,111,112
 321 58 321 58 336 56 c 1,113,114
 353 78 353 78 361 97 c 0,115,116
 379 148 379 148 419 250 c 0,117,118
 421 255 421 255 433 265 c 1,119,120
 452 333 452 333 497 328 c 1,121,122
 509 328 509 328 509 316 c 0,0,1
EndSplineSet
EndChar

StartChar: x
Encoding: 120 120 89
Width: 449
Flags: W
LayerCount: 2
Fore
SplineSet
462 -10 m 0,0,1
 462 -21 462 -21 449 -29.5 c 128,-1,2
 436 -38 436 -38 427 -38 c 0,3,4
 404 -38 404 -38 388 -11 c 1,5,6
 379 8 379 8 371 28 c 1,7,8
 362 41 362 41 356 35 c 1,9,10
 356 53 356 53 358 49 c 0,11,12
 345 74 345 74 318 112 c 128,-1,13
 291 150 291 150 284 150 c 0,14,15
 279 150 279 150 273 145 c 128,-1,16
 267 140 267 140 264 139 c 0,17,18
 254 138 254 138 245 137 c 0,19,20
 229 135 229 135 221 123 c 0,21,22
 218 119 218 119 222 119 c 1,23,24
 220 117 220 117 216 121 c 1,25,26
 202 109 202 109 125 53 c 0,27,28
 36 -12 36 -12 24 -12 c 1,29,30
 -4 2 l 1,31,-1
 -4 24 l 2,32,33
 -4 37 -4 37 122 150 c 1,34,35
 129 145 129 145 143 133 c 1,36,37
 170 153 170 153 196 172 c 0,38,39
 239 206 239 206 239 217 c 0,40,41
 239 222 239 222 225 239 c 0,42,43
 207 260 207 260 202 267 c 0,44,45
 154 345 154 345 154 366 c 0,46,47
 154 378 154 378 165 386 c 128,-1,48
 176 394 176 394 188 394 c 0,49,50
 201 394 201 394 223 357 c 0,51,52
 238 331 238 331 252 305 c 0,53,54
 269 275 269 275 289 257 c 1,55,56
 293 261 293 261 322 289 c 0,57,58
 343 309 343 309 348 309 c 0,59,60
 354 309 354 309 366 300.5 c 128,-1,61
 378 292 378 292 382 291 c 1,62,63
 385 286 385 286 388 282 c 0,64,65
 393 274 393 274 393 268 c 0,66,67
 393 254 393 254 373 245 c 0,68,69
 345 235 l 1,70,71
 339 228 339 228 325 212 c 1,72,73
 361 161 361 161 397 109 c 0,74,75
 462 12 462 12 462 -10 c 0,0,1
EndSplineSet
EndChar

StartChar: y
Encoding: 121 121 90
Width: 357
Flags: W
LayerCount: 2
Fore
SplineSet
335 303 m 1,0,1
 335 301 335 301 314 207 c 0,2,3
 301 148 301 148 282 100 c 1,4,5
 273 85 273 85 259 57 c 1,6,7
 250 25 250 25 229 -40 c 1,8,9
 235 118 235 118 242 193 c 1,10,11
 244 183 l 1,12,13
 239 98 239 98 225 -45 c 0,14,15
 222 -70 222 -70 216 -77.5 c 128,-1,16
 210 -85 210 -85 208 -92 c 0,17,18
 193 -142 193 -142 179 -192 c 0,19,20
 161 -254 161 -254 161 -294 c 0,21,22
 161 -307 161 -307 163 -318 c 1,23,24
 155 -342 155 -342 132 -342 c 0,25,26
 105 -342 105 -342 97 -329 c 0,27,28
 92 -320 92 -320 92 -292 c 0,29,30
 92 -249 92 -249 151.5 -70 c 128,-1,31
 211 109 211 109 211 114 c 256,32,33
 211 119 211 119 202.5 126 c 128,-1,34
 194 133 194 133 186 139 c 1,35,36
 155 169 155 169 84 230 c 1,37,38
 61 246 61 246 3 262 c 0,39,40
 -11 266 -11 266 -11 284 c 0,41,42
 -11 288 -11 288 3 316 c 1,43,-1
 16 316 l 2,44,45
 55 316 55 316 125 266 c 1,46,47
 182 223 182 223 238 180 c 1,48,49
 245 198 245 198 257 234 c 1,50,51
 281 321 281 321 299 321 c 0,52,53
 313 321 313 321 335 303 c 1,0,1
EndSplineSet
EndChar

StartChar: z
Encoding: 122 122 91
Width: 579
Flags: W
LayerCount: 2
Fore
SplineSet
612 9 m 0,0,1
 612 -3 612 -3 599 -14 c 128,-1,2
 586 -25 586 -25 575 -25 c 2,3,-1
 520 -25 l 1,4,-1
 212 -72 l 1,5,6
 171 -59 171 -59 163 -59 c 0,7,8
 158 -59 158 -59 157 -61 c 128,-1,9
 156 -63 156 -63 151 -63 c 0,10,11
 148 -63 148 -63 122 -52 c 1,12,13
 113 -51 113 -51 96 -45 c 1,14,15
 69 -25 69 -25 69 22 c 0,16,17
 69 47 69 47 100 94 c 0,18,19
 117 119 117 119 134 143 c 1,20,21
 116 143 116 143 83 140.5 c 128,-1,22
 50 138 50 138 48 138 c 0,23,24
 43 138 43 138 40.5 135.5 c 128,-1,25
 38 133 38 133 33 133 c 128,-1,26
 28 133 28 133 21.5 129 c 128,-1,27
 15 125 15 125 10 125 c 0,28,29
 -16 125 -16 125 -16 153 c 0,30,31
 -16 174 -16 174 38 183 c 0,32,33
 67 187 67 187 96 190 c 1,34,35
 158 202 158 202 186 197 c 1,36,37
 216 231 216 231 245 265 c 1,38,39
 280 309 280 309 279 345 c 1,40,41
 269 360 269 360 228 360 c 0,42,43
 133 360 133 360 83 310 c 1,44,45
 81 284 l 0,46,47
 78 262 78 262 67 262 c 0,48,49
 62 262 62 262 50 266.5 c 128,-1,50
 38 271 38 271 32 271 c 1,51,52
 32 277 32 277 29.5 291 c 128,-1,53
 27 305 27 305 27 311 c 0,54,55
 27 348 27 348 87 378 c 0,56,57
 131 400 131 400 170 405 c 0,58,59
 176 406 176 406 194.5 410.5 c 128,-1,60
 213 415 213 415 219 415 c 0,61,62
 343 415 343 415 343 336 c 0,63,64
 343 314 343 314 318 270 c 0,65,66
 298 235 298 235 283 217 c 1,67,68
 290 210 290 210 307 210 c 0,69,70
 312 210 312 210 350.5 212.5 c 128,-1,71
 389 215 389 215 394 215 c 1,72,73
 384 215 384 215 479 201 c 1,74,75
 479 200 479 200 481.5 191.5 c 128,-1,76
 484 183 484 183 484 178 c 0,77,78
 484 166 484 166 471 158 c 128,-1,79
 458 150 458 150 443 150 c 0,80,81
 438 150 438 150 372 154.5 c 128,-1,82
 306 159 306 159 300 159 c 0,83,84
 293 159 293 159 300 152 c 1,85,86
 286 155 286 155 219 155 c 0,87,88
 214 155 214 155 205 142 c 0,89,90
 192 122 192 122 191 121 c 0,91,92
 162 88 162 88 157 82 c 0,93,94
 137 56 137 56 132 37 c 0,95,96
 128 24 128 24 129 8 c 1,97,98
 146 -8 146 -8 175 -11 c 0,99,100
 182 -12 182 -12 225 -12 c 0,101,102
 273 -12 273 -12 332 -4 c 0,103,104
 420 10 420 10 507 23 c 1,105,106
 516 28 516 28 533 33 c 1,107,108
 573 39 573 39 591 39 c 0,109,110
 612 39 612 39 612 9 c 0,0,1
EndSplineSet
EndChar

StartChar: braceleft
Encoding: 123 123 92
Width: 277
Flags: W
LayerCount: 2
Fore
SplineSet
269 -65 m 0,0,1
 269 -78 269 -78 229 -92 c 0,2,3
 206 -99 206 -99 183 -107 c 1,4,5
 154 -125 154 -125 122 -125 c 0,6,7
 104 -125 104 -125 102 -125 c 0,8,9
 94 -122 94 -122 77 -109 c 0,10,11
 76 -108 76 -108 71 -95 c 1,12,13
 58 -86 58 -86 46 -50.5 c 128,-1,14
 34 -15 34 -15 34 6 c 1,15,-1
 59 221 l 1,16,17
 59 263 59 263 49 269 c 1,18,19
 39 264 39 264 33 264 c 0,20,21
 12 264 12 264 12 283 c 0,22,23
 12 289 12 289 16.5 301 c 128,-1,24
 21 313 21 313 29 315 c 0,25,26
 43 318 43 318 72 327 c 1,27,28
 75 338 75 338 80 357 c 0,29,30
 82 366 82 366 86 384 c 1,31,32
 85 393 85 393 85 409 c 1,33,34
 87 412 87 412 91 417 c 1,35,36
 92 414 92 414 92 438 c 0,37,38
 92 434 92 434 89 488 c 128,-1,39
 86 542 86 542 86 591 c 1,40,41
 83 593 83 593 80.5 595 c 128,-1,42
 78 597 78 597 78 601 c 0,43,44
 78 603 78 603 87.5 633.5 c 128,-1,45
 97 664 97 664 98 676 c 1,46,47
 149 734 149 734 181 734 c 1,48,49
 181 739 181 739 187 739 c 1,50,51
 186 739 186 739 245 734 c 0,52,53
 257 733 257 733 261 719 c 0,54,55
 266 701 266 701 266 706 c 0,56,57
 266 709 266 709 257 687 c 1,58,-1
 246 687 l 2,59,60
 243 687 243 687 236 694 c 128,-1,61
 229 701 229 701 223.5 702 c 128,-1,62
 218 703 218 703 208 703 c 1,63,64
 214 703 214 703 193 698 c 1,65,66
 180 699 180 699 155 689 c 1,67,68
 146 680 146 680 133 652.5 c 128,-1,69
 120 625 120 625 120 612 c 0,70,71
 120 611 120 611 129 558 c 1,72,73
 127 546 127 546 127 530 c 0,74,75
 127 512 127 512 130.5 477 c 128,-1,76
 134 442 134 442 134 432 c 0,77,78
 134 402 134 402 126 374 c 0,79,80
 117 337 117 337 116 331 c 1,81,82
 108 318 108 318 93 290 c 0,83,84
 90 283 90 283 98 263 c 1,85,86
 104 182 104 182 84 102 c 0,87,88
 84 99 84 99 78 94 c 1,89,-1
 78 -19 l 2,90,91
 78 -25 78 -25 83 -36.5 c 128,-1,92
 88 -48 88 -48 92 -48 c 256,93,94
 96 -48 96 -48 97.5 -47 c 128,-1,95
 99 -46 99 -46 100 -46 c 1,96,97
 100 -47 100 -47 97.5 -50.5 c 128,-1,98
 95 -54 95 -54 95 -58 c 0,99,100
 95 -63 95 -63 106.5 -75 c 128,-1,101
 118 -87 118 -87 124 -89 c 0,102,103
 127 -90 127 -90 132 -90 c 0,104,105
 139 -90 139 -90 156 -82 c 1,106,107
 162 -83 162 -83 173 -81 c 1,108,109
 246 -48 246 -48 247 -48 c 0,110,111
 254 -48 254 -48 261.5 -54 c 128,-1,112
 269 -60 269 -60 269 -65 c 0,0,1
EndSplineSet
EndChar

StartChar: bar
Encoding: 124 124 93
Width: 236
Flags: W
LayerCount: 2
Fore
SplineSet
191 74 m 1,0,1
 193 64 193 64 182.5 55 c 128,-1,2
 172 46 172 46 162 46 c 0,3,4
 153 46 153 46 145.5 58 c 128,-1,5
 138 70 138 70 136 80 c 0,6,7
 130 126 130 126 130 258 c 0,8,9
 130 283 130 283 133 323 c 0,10,11
 138 379 138 379 139 420 c 0,12,13
 139 421 139 421 147 428 c 1,14,15
 144 430 144 430 142 430 c 1,16,17
 140 443 140 443 146 450 c 1,18,19
 140 455 140 455 141 473 c 0,20,21
 141 490 141 490 146 500 c 1,22,23
 142 513 142 513 145 522 c 1,24,25
 142 526 142 526 145 547 c 1,26,27
 149 550 149 550 162 557 c 1,28,29
 182 539 182 539 182 508 c 1,30,-1
 169 240 l 1,31,32
 169 209 169 209 178 108 c 0,33,34
 179 93 179 93 188 82 c 1,35,-1
 185 80 l 1,36,-1
 191 74 l 1,0,1
EndSplineSet
EndChar

StartChar: braceright
Encoding: 125 125 94
Width: 262
Flags: W
LayerCount: 2
Fore
SplineSet
249 335 m 1,0,1
 245 322 245 322 224 314 c 0,2,3
 200 305 200 305 196 299 c 0,4,5
 188 289 188 289 175 243 c 0,6,7
 168 222 168 222 168 189 c 0,8,9
 168 154 168 154 192 -8 c 0,10,11
 194 -18 194 -18 201 -51 c 0,12,13
 207 -80 207 -80 207 -83 c 0,14,15
 207 -148 207 -148 160 -148 c 2,16,-1
 110 -148 l 2,17,18
 95 -148 95 -148 62 -130 c 0,19,20
 52 -125 52 -125 52 -114 c 0,21,22
 52 -109 52 -109 58.5 -100.5 c 128,-1,23
 65 -92 65 -92 70 -92 c 0,24,25
 73 -92 73 -92 79.5 -97 c 128,-1,26
 86 -102 86 -102 88 -103 c 0,27,28
 102 -109 102 -109 137 -109 c 0,29,30
 157 -109 157 -109 161.5 -105 c 128,-1,31
 166 -101 166 -101 166 -78 c 0,32,33
 166 -77 166 -77 157 -34 c 0,34,35
 147 13 147 13 144 36 c 0,36,37
 130 168 130 168 130 187 c 0,38,39
 130 249 130 249 153 296 c 0,40,41
 153 297 153 297 159.5 305.5 c 128,-1,42
 166 314 166 314 166 318 c 256,43,44
 166 322 166 322 163 324.5 c 128,-1,45
 160 327 160 327 160 328 c 1,46,47
 134 336 134 336 115 400 c 0,48,49
 110 417 110 417 116 425 c 1,50,51
 114 427 114 427 108 427 c 1,52,53
 102 504 102 504 102 493 c 0,54,55
 102 495 102 495 104 521 c 128,-1,56
 106 547 106 547 106 558 c 0,57,58
 106 616 106 616 116 630 c 1,59,-1
 116 659 l 1,60,61
 111 659 111 659 105 671 c 0,62,63
 95 691 95 691 95 692 c 1,64,65
 86 688 86 688 48 669 c 0,66,67
 18 653 18 653 14 653 c 0,68,69
 0 653 0 653 0 669 c 0,70,71
 0 684 0 684 46.5 705 c 128,-1,72
 93 726 93 726 118 725 c 1,73,74
 151 679 151 679 148 619 c 1,75,76
 145 613 145 613 142 599 c 1,77,78
 145 576 145 576 145 528 c 1,79,80
 135 451 135 451 157 414 c 1,81,82
 156 413 156 413 156 411 c 0,83,84
 156 406 156 406 167 379 c 0,85,86
 181 347 181 347 206 347 c 0,87,88
 209 347 209 347 216 349.5 c 128,-1,89
 223 352 223 352 226 352 c 0,90,91
 231 352 231 352 249 335 c 1,0,1
122 455 m 1,92,-1
 122 465 l 1,93,-1
 118 465 l 1,94,-1
 118 455 l 1,95,-1
 122 455 l 1,92,-1
117 465 m 1,96,-1
 113 465 l 1,97,-1
 109 456 l 1,98,-1
 113 454 l 1,99,-1
 117 465 l 1,96,-1
EndSplineSet
EndChar

StartChar: asciitilde
Encoding: 126 126 95
Width: 400
Flags: W
LayerCount: 2
Fore
SplineSet
411 359 m 1,0,1
 389 339 389 339 342 306 c 1,2,3
 325 297 325 297 296 286 c 128,-1,4
 267 275 267 275 261 275 c 0,5,6
 258 275 258 275 251 279 c 128,-1,7
 244 283 244 283 240 283 c 0,8,9
 237 283 237 283 233 280.5 c 128,-1,10
 229 278 229 278 225 278 c 0,11,12
 199 278 199 278 182 322 c 1,13,14
 175 347 175 347 168 373 c 0,15,16
 160 399 l 0,17,18
 153 417 153 417 142 427 c 1,19,20
 120 419 120 419 99 395 c 1,21,22
 91 397 91 397 72.5 379.5 c 128,-1,23
 54 362 54 362 58 353 c 1,24,25
 57 353 57 353 52 351.5 c 128,-1,26
 47 350 47 350 43 350 c 0,27,28
 28 350 28 350 28 366 c 0,29,30
 28 388 28 388 84 431 c 0,31,32
 138 471 138 471 157 471 c 256,33,34
 176 471 176 471 194 415 c 0,35,36
 209 371 209 371 211 351 c 0,37,38
 211 346 211 346 220.5 331 c 128,-1,39
 230 316 230 316 235 316 c 128,-1,40
 240 316 240 316 241 313.5 c 128,-1,41
 242 311 242 311 246 311 c 0,42,43
 270 311 270 311 332 342 c 1,44,45
 345 354 345 354 357 365 c 0,46,47
 383 388 383 388 391 388 c 0,48,49
 394 388 394 388 398 384 c 128,-1,50
 402 380 402 380 405 380 c 0,51,52
 409 380 409 380 409.5 381 c 128,-1,53
 410 382 410 382 411 382 c 1,54,-1
 411 359 l 1,0,1
EndSplineSet
EndChar

StartChar: exclamdown
Encoding: 161 161 96
Width: 178
Flags: W
LayerCount: 2
Fore
SplineSet
132 518 m 0,0,1
 132 499 132 499 117 499 c 0,2,3
 112 499 112 499 106.5 496 c 128,-1,4
 101 493 101 493 96 493 c 0,5,6
 87 493 87 493 79 503.5 c 128,-1,7
 71 514 71 514 71 522 c 0,8,9
 71 526 71 526 74.5 535 c 128,-1,10
 78 544 78 544 78 547 c 1,11,-1
 99 547 l 2,12,13
 110 547 110 547 121 536.5 c 128,-1,14
 132 526 132 526 132 518 c 0,0,1
149 293 m 0,15,16
 149 287 149 287 124 184 c 0,17,18
 99 78 99 78 85 27 c 0,19,20
 84 22 84 22 76 -18 c 0,21,22
 73 -35 73 -35 56 -60 c 1,23,24
 46 -60 46 -60 42.5 -52 c 128,-1,25
 39 -44 39 -44 40 -33 c 1,26,-1
 98 293 l 1,27,28
 99 339 99 339 89 368 c 0,29,30
 87 373 87 373 79 389 c 128,-1,31
 71 405 71 405 71 409 c 0,32,33
 71 416 71 416 80 427 c 128,-1,34
 89 438 89 438 100 438 c 0,35,36
 107 438 107 438 123 412 c 0,37,38
 136 389 136 389 138 382 c 0,39,40
 149 333 149 333 149 293 c 0,15,16
EndSplineSet
EndChar

StartChar: cent
Encoding: 162 162 97
Width: 421
Flags: W
LayerCount: 2
Fore
SplineSet
430 134 m 0,0,1
 430 129 430 129 421.5 121.5 c 128,-1,2
 413 114 413 114 406 108 c 1,3,4
 365 90 365 90 282 56 c 0,5,6
 254 45 254 45 222.5 37.5 c 128,-1,7
 191 30 191 30 191 18 c 1,8,9
 190 18 190 18 187 19.5 c 128,-1,10
 184 21 184 21 179 21 c 0,11,12
 142 21 142 21 122 10 c 0,13,14
 109 2 109 2 97 -25 c 0,15,16
 80 -62 80 -62 77 -65 c 1,17,18
 76 -69 76 -69 79 -69 c 1,19,20
 77 -71 77 -71 74 -67 c 1,21,22
 61 -89 61 -89 49 -110 c 0,23,24
 33 -137 33 -137 34 -152 c 1,25,26
 28 -152 28 -152 12 -176 c 0,27,28
 -11 -212 -11 -212 -12 -213 c 0,29,30
 -27 -216 -27 -216 -27 -213 c 1,31,32
 -30 -210 -30 -210 -37 -210 c 1,33,-1
 -37 -192 l 2,34,35
 -37 -189 -37 -189 15 -79 c 1,36,37
 33 -48 33 -48 69 13 c 1,38,39
 55 28 55 28 38 41 c 0,40,41
 14 60 14 60 6 78 c 0,42,43
 0 92 0 92 0 120 c 0,44,45
 0 141 0 141 35 201 c 0,46,47
 43 214 43 214 63 231 c 0,48,49
 121 281 121 281 127 281 c 0,50,51
 131 281 131 281 130 279 c 128,-1,52
 129 277 129 277 133 277 c 0,53,54
 136 277 136 277 147 288 c 128,-1,55
 158 299 158 299 165 303 c 1,56,57
 189 311 189 311 226 329 c 1,58,59
 235 335 235 335 236 362 c 0,60,61
 237 382 237 382 237 401 c 1,62,63
 245 408 245 408 245 406 c 0,64,65
 245 408 245 408 239 408 c 1,66,67
 257 417 257 417 260 417 c 0,68,69
 287 417 287 417 287 376 c 0,70,71
 287 354 287 354 280 331 c 1,72,73
 301 318 301 318 323 305 c 0,74,75
 354 286 354 286 367 266 c 0,76,77
 376 253 376 253 376 248 c 0,78,79
 376 223 376 223 357 223 c 0,80,81
 350 223 350 223 322 252 c 128,-1,82
 294 281 294 281 277 281 c 0,83,84
 265 281 265 281 258 267.5 c 128,-1,85
 251 254 251 254 244 241 c 0,86,87
 191 147 191 147 144 57 c 1,88,89
 146 55 146 55 152 55 c 0,90,91
 168 55 168 55 260 91 c 0,92,93
 343 123 343 123 351 128 c 0,94,95
 397 154 397 154 408 154 c 0,96,97
 430 154 430 154 430 134 c 0,0,1
201 273 m 1,98,99
 176 262 176 262 128 227.5 c 128,-1,100
 80 193 80 193 70 177 c 0,101,102
 45 141 45 141 45 119 c 0,103,104
 45 99 45 99 58 81 c 128,-1,105
 71 63 71 63 95 59 c 1,106,107
 172 220 172 220 184 230 c 0,108,109
 186 231 186 231 190 231 c 1,110,111
 186 231 186 231 187 235 c 0,112,113
 192 249 192 249 201 273 c 1,98,99
EndSplineSet
EndChar

StartChar: sterling
Encoding: 163 163 98
Width: 470
Flags: W
LayerCount: 2
Fore
SplineSet
484 -31 m 1,0,1
 481 -38 481 -38 469 -51 c 128,-1,2
 457 -64 457 -64 451 -64 c 0,3,4
 447 -64 447 -64 447 -62 c 1,5,-1
 447 -62 l 1,6,7
 447 -60 447 -60 443 -60 c 256,8,9
 439 -60 439 -60 398 -77 c 128,-1,10
 357 -94 357 -94 352 -94 c 0,11,12
 328 -94 328 -94 301 -93 c 1,13,14
 306 -87 306 -87 298 -87 c 0,15,16
 294 -87 294 -87 294 -91 c 1,17,-1
 294 -91 l 1,18,19
 294 -94 294 -94 289 -94 c 0,20,21
 270 -94 270 -94 235 -70 c 0,22,23
 206 -49 206 -49 202 -42 c 0,24,25
 192 -25 192 -25 181.5 -8.5 c 128,-1,26
 171 8 171 8 156 8 c 0,27,28
 139 8 139 8 114 -3 c 1,29,30
 92 -17 l 0,31,32
 78 -26 78 -26 66 -26 c 0,33,34
 47 -26 47 -26 47 -11 c 0,35,36
 47 -16 47 -16 126 170 c 1,37,38
 126 175 126 175 131 191.5 c 128,-1,39
 136 208 136 208 136 212 c 2,40,-1
 136 233 l 1,41,42
 140 233 140 233 95 233 c 0,43,44
 91 233 91 233 82.5 238.5 c 128,-1,45
 74 244 74 244 71 244 c 0,46,47
 67 244 67 244 66 242 c 128,-1,48
 65 240 65 240 61 240 c 0,49,50
 43 240 43 240 10 253 c 0,51,52
 -28 269 -28 269 -28 285 c 0,53,54
 -28 293 -28 293 -20.5 300.5 c 128,-1,55
 -13 308 -13 308 -6 308 c 0,56,57
 13 308 13 308 32 300 c 0,58,59
 37 298 37 298 49 290 c 0,60,61
 58 285 58 285 62.5 285 c 128,-1,62
 67 285 67 285 86.5 283 c 128,-1,63
 106 281 106 281 111 281 c 2,64,-1
 134 281 l 1,65,-1
 137 284 l 1,66,67
 139 305 139 305 136 352 c 0,68,69
 132 405 132 405 132 401 c 0,70,71
 132 626 132 626 352 626 c 0,72,73
 357 626 357 626 355 624 c 0,74,75
 352 621 352 621 353 620 c 0,76,77
 402 600 402 600 402 539 c 0,78,79
 402 516 402 516 401 511 c 0,80,81
 392 482 392 482 349 408 c 0,82,83
 339 390 339 390 323 390 c 0,84,85
 311 390 311 390 306 419 c 0,86,87
 306 424 306 424 321 449 c 0,88,89
 341 484 341 484 345 492 c 0,90,91
 361 524 361 524 361 546 c 0,92,93
 361 559 361 559 346 570 c 128,-1,94
 331 581 331 581 322 581 c 0,95,96
 301 581 301 581 268 570 c 1,97,98
 253 562 253 562 227 550 c 0,99,100
 212 543 212 543 200 517 c 0,101,102
 182 477 l 1,103,104
 179 442 179 442 181 389 c 1,105,106
 177 385 177 385 177 382 c 0,107,108
 177 369 177 369 185 356 c 1,109,110
 188 356 188 356 188 360 c 1,111,112
 186 353 186 353 187 334 c 1,113,114
 184 331 184 331 184 328 c 0,115,116
 186 317 186 317 189 293 c 0,117,118
 190 285 190 285 202 285 c 0,119,120
 207 285 207 285 282.5 288 c 128,-1,121
 358 291 358 291 363 291 c 0,122,123
 384 291 384 291 407 284 c 0,124,125
 436 275 436 275 436 261 c 0,126,127
 436 250 436 250 411 238 c 0,128,129
 390 227 390 227 383 227 c 0,130,131
 379 227 379 227 371 232.5 c 128,-1,132
 363 238 363 238 359 239 c 0,133,134
 337 244 337 244 281 244 c 0,135,136
 278 244 278 244 251.5 241 c 128,-1,137
 225 238 225 238 213 238 c 0,138,139
 206 238 206 238 198 238 c 0,140,141
 189 237 189 237 184 231 c 1,142,143
 180 198 180 198 181 191 c 1,144,145
 165 145 165 145 129 55 c 1,146,147
 161 57 161 57 181 53 c 0,148,149
 198 51 198 51 235 5 c 1,150,-1
 231 3 l 1,151,152
 266 -46 266 -46 318 -46 c 0,153,154
 366 -46 366 -46 436 -6 c 1,155,156
 462 -6 462 -6 484 -31 c 1,0,1
EndSplineSet
EndChar

StartChar: currency
Encoding: 164 164 99
Width: 274
Flags: W
LayerCount: 2
Fore
SplineSet
266 420 m 0,0,1
 266 411 266 411 260 396 c 1,2,3
 248 386 248 386 248 384 c 256,4,5
 248 382 248 382 253 382 c 1,6,7
 248 382 248 382 242 375 c 0,8,9
 231 362 231 362 230 361 c 0,10,11
 220 351 220 351 197 331 c 0,12,13
 195 329 195 329 167 314 c 0,14,15
 148 303 148 303 146 296 c 1,16,17
 137 296 137 296 117 290.5 c 128,-1,18
 97 285 97 285 94 285 c 2,19,-1
 84 285 l 2,20,21
 65 285 65 285 44.5 303.5 c 128,-1,22
 24 322 24 322 24 341 c 0,23,24
 24 345 24 345 26 358.5 c 128,-1,25
 28 372 28 372 28 376 c 1,26,27
 31 377 31 377 38 382 c 1,28,29
 34 385 34 385 31 385 c 1,30,31
 36 392 36 392 36 399 c 0,32,33
 36 404 36 404 31.5 414.5 c 128,-1,34
 27 425 27 425 27 430 c 0,35,36
 27 444 27 444 49 461 c 0,37,38
 68 476 68 476 87 482 c 0,39,40
 112 490 112 490 207 490 c 0,41,42
 214 490 214 490 234.5 474 c 128,-1,43
 255 458 255 458 259 451 c 0,44,45
 259 450 259 450 262.5 437 c 128,-1,46
 266 424 266 424 266 420 c 0,0,1
225 422 m 0,47,48
 225 435 225 435 193 445 c 0,49,50
 169 452 169 452 157 452 c 1,51,52
 169 452 169 452 104 444 c 0,53,54
 102 444 102 444 80 431 c 1,55,56
 65 348 65 348 65 362 c 0,57,58
 65 339 65 339 83 323 c 1,59,60
 88 325 88 325 108 330 c 0,61,62
 132 337 132 337 174 364 c 0,63,64
 225 397 225 397 225 422 c 0,47,48
EndSplineSet
EndChar

StartChar: yen
Encoding: 165 165 100
Width: 415
Flags: W
LayerCount: 2
Fore
SplineSet
432 590 m 0,0,1
 432 586 432 586 411 564 c 0,2,3
 385 537 385 537 378 527 c 1,4,5
 378 520 378 520 373 507 c 1,6,7
 337 456 337 456 320 422 c 1,8,9
 320 415 320 415 318 401 c 1,10,11
 304 393 304 393 285 360 c 0,12,13
 272 337 272 337 259 313 c 1,14,15
 252 303 252 303 238 283 c 1,16,17
 243 278 243 278 244 278 c 0,18,19
 249 278 249 278 248 279.5 c 128,-1,20
 247 281 247 281 251 281 c 0,21,22
 256 281 256 281 256 278.5 c 128,-1,23
 256 276 256 276 257 275 c 0,24,25
 277 274 277 274 296 274 c 1,26,27
 330 268 330 268 330 245 c 0,28,29
 330 237 330 237 319.5 230 c 128,-1,30
 309 223 309 223 304 223 c 0,31,32
 300 223 300 223 273.5 228 c 128,-1,33
 247 233 247 233 243 233 c 0,34,35
 207 233 207 233 193 212 c 1,36,37
 178 182 178 182 163 153 c 1,38,39
 167 145 167 145 183 145 c 0,40,41
 224 145 224 145 274 140 c 0,42,43
 298 138 298 138 317 128 c 0,44,45
 340 117 340 117 340 104 c 0,46,47
 340 99 340 99 331 91 c 128,-1,48
 322 83 322 83 316 83 c 0,49,50
 312 83 312 83 302 88.5 c 128,-1,51
 292 94 292 94 287 94 c 2,52,-1
 164 100 l 2,53,54
 146 100 146 100 138 93 c 0,55,56
 110 66 110 66 88 -8 c 1,57,58
 87 -23 87 -23 83 -55 c 0,59,60
 82 -63 82 -63 71 -70 c 128,-1,61
 60 -77 60 -77 50 -77 c 1,62,63
 55 -77 55 -77 37 -73 c 1,64,65
 30 -61 30 -61 30 -48 c 0,66,67
 30 -41 30 -41 78 84 c 1,68,69
 43 89 43 89 23 101 c 1,70,-1
 23 120 l 1,71,72
 37 134 37 134 52 134 c 0,73,74
 56 134 56 134 62 132.5 c 128,-1,75
 68 131 68 131 72 131 c 0,76,77
 104 131 104 131 117 159 c 0,78,79
 141 207 141 207 153 219 c 1,80,-1
 153 227 l 1,81,82
 138 233 138 233 93 233 c 0,83,84
 89 233 89 233 71 235.5 c 128,-1,85
 53 238 53 238 45 238 c 1,86,87
 49 244 49 244 41 244 c 0,88,89
 37 244 37 244 34.5 242 c 128,-1,90
 32 240 32 240 28 240 c 0,91,92
 16 240 16 240 -3 255 c 0,93,94
 -4 255 -4 255 -6 258 c 128,-1,95
 -8 261 -8 261 -8 266 c 0,96,97
 -8 272 -8 272 0 280 c 128,-1,98
 8 288 8 288 14 288 c 0,99,100
 18 288 18 288 94 281 c 128,-1,101
 170 274 170 274 175 274 c 0,102,103
 182 274 182 274 193 293 c 0,104,105
 199 305 199 305 205 318 c 1,106,107
 225 350 225 350 262 409 c 1,108,-1
 95 541 l 1,109,110
 61 559 l 0,111,112
 33 574 33 574 33 583 c 0,113,114
 33 593 33 593 41 601 c 128,-1,115
 49 609 49 609 59 609 c 0,116,117
 88 609 88 609 196 517 c 0,118,119
 216 500 216 500 284 455 c 1,120,121
 297 466 297 466 314 488 c 1,122,123
 330 538 330 538 361 563 c 1,124,125
 360 565 360 565 357 565 c 1,126,127
 404 612 404 612 410 612 c 0,128,129
 432 612 432 612 432 590 c 0,0,1
EndSplineSet
EndChar

StartChar: brokenbar
Encoding: 166 166 101
Width: 201
Flags: W
LayerCount: 2
Fore
SplineSet
130 412 m 1,0,-1
 125 408 l 1,1,2
 122 393 122 393 128 379 c 1,3,4
 124 359 124 359 121 353 c 0,5,6
 114 343 114 343 98 343 c 0,7,8
 79 343 79 343 73 364 c 0,9,10
 71 373 71 373 74 397 c 0,11,12
 78 426 78 426 78 433 c 0,13,14
 78 442 78 442 73.5 463 c 128,-1,15
 69 484 69 484 69 488 c 0,16,17
 69 502 69 502 77.5 512.5 c 128,-1,18
 86 523 86 523 96 523 c 0,19,20
 108 523 108 523 121 511 c 1,21,22
 132 464 132 464 126 433 c 0,23,24
 126 429 126 429 128 423 c 1,25,26
 130 426 130 426 130 412 c 1,0,-1
158 83 m 0,27,28
 158 74 158 74 149.5 65 c 128,-1,29
 141 56 141 56 134 56 c 2,30,-1
 122 56 l 2,31,32
 109 56 109 56 104 81 c 0,33,34
 96 124 96 124 96 174 c 0,35,36
 96 206 96 206 122 206 c 0,37,38
 136 206 136 206 143 194 c 128,-1,39
 150 182 150 182 152 157 c 0,40,41
 158 72 158 72 158 83 c 0,27,28
EndSplineSet
EndChar

StartChar: section
Encoding: 167 167 102
Width: 298
Flags: W
LayerCount: 2
Fore
SplineSet
283 568 m 1,0,1
 265 551 265 551 251 551 c 0,2,3
 235 551 235 551 236 575 c 1,4,5
 216 578 216 578 167 578 c 0,6,7
 163 578 163 578 155.5 583 c 128,-1,8
 148 588 148 588 145 588 c 0,9,10
 132 588 132 588 107.5 570 c 128,-1,11
 83 552 83 552 80.5 542 c 128,-1,12
 78 532 78 532 78 511 c 0,13,14
 78 491 78 491 94 451 c 1,15,16
 96 441 96 441 103 424 c 1,17,18
 117 402 117 402 135 398 c 0,19,20
 149 395 149 395 164 392 c 0,21,22
 184 387 184 387 194 378 c 0,23,24
 229 349 229 349 254 297 c 0,25,26
 263 280 263 280 263 235 c 0,27,28
 263 206 263 206 244 188 c 128,-1,29
 225 170 225 170 225 165 c 0,30,31
 225 162 225 162 238.5 134.5 c 128,-1,32
 252 107 252 107 252 102 c 0,33,34
 252 81 252 81 219 20 c 0,35,36
 187 -37 187 -37 175 -45 c 0,37,38
 148 -64 148 -64 118 -64 c 2,39,-1
 97 -64 l 1,40,41
 58 -52.5 l 130,-1,42
 19 -41 19 -41 1 -38 c 1,43,44
 -1 -36 -1 -36 -4 -32 c 128,-1,45
 -7 -28 -7 -28 -7 -23 c 0,46,47
 -7 -22 -7 -22 -2 -11 c 1,48,49
 16 5 16 5 29 5 c 0,50,51
 33 5 33 5 30.5 1.5 c 128,-1,52
 28 -2 28 -2 32 -2 c 256,53,54
 36 -2 36 -2 36.5 1.5 c 128,-1,55
 37 5 37 5 41 5 c 256,56,57
 45 5 45 5 57.5 -2.5 c 128,-1,58
 70 -10 70 -10 74 -12 c 0,59,60
 88 -17 88 -17 114 -22 c 0,61,62
 118 -23 118 -23 128 -23 c 256,63,64
 138 -23 138 -23 164 13 c 0,65,66
 186 44 186 44 188 51 c 0,67,68
 189 54 189 54 198 75 c 0,69,70
 205 93 205 93 205 97 c 256,71,72
 205 101 205 101 196.5 115.5 c 128,-1,73
 188 130 188 130 185.5 135 c 128,-1,74
 183 140 183 140 178 144 c 1,75,76
 139 165 139 165 121 165 c 0,77,78
 117 165 117 165 117 163 c 1,79,-1
 117 163 l 1,80,81
 117 162 117 162 112 162 c 0,82,83
 94 162 94 162 62 180 c 0,84,85
 45 189 45 189 38 207 c 0,86,87
 34 219 34 219 34 233 c 0,88,89
 34 306 34 306 95 365 c 1,90,91
 81 378 81 378 59 405 c 1,92,93
 48 427 48 427 35 470 c 1,94,95
 36 482 36 482 33 504 c 0,96,97
 32 506 32 506 28 513 c 128,-1,98
 24 520 24 520 24 525 c 0,99,100
 24 548 24 548 69.5 592 c 128,-1,101
 115 636 115 636 136 636 c 0,102,103
 139 636 139 636 164 628.5 c 128,-1,104
 189 621 189 621 200 621 c 0,105,106
 291 617 291 617 283 568 c 1,0,1
211 245 m 0,107,108
 211 276 211 276 200 292 c 1,109,110
 179 317 179 317 159 343 c 1,111,112
 144 328 144 328 140 318 c 1,113,114
 137 318 137 318 131 320 c 128,-1,115
 125 322 125 322 121 322 c 0,116,117
 108 322 108 322 90 290 c 1,118,119
 88 283 88 283 86 269 c 1,120,121
 82 262 82 262 77 249 c 1,122,123
 75 250 75 250 75 242 c 0,124,125
 75 231 75 231 90 216 c 1,126,127
 110 227 110 227 112 227 c 0,128,129
 128 227 128 227 138 215 c 128,-1,130
 148 203 148 203 174 203 c 0,131,132
 178 203 178 203 184 199.5 c 128,-1,133
 190 196 190 196 193 196 c 1,134,135
 211 220 211 220 211 245 c 0,107,108
EndSplineSet
EndChar

StartChar: dieresis
Encoding: 168 168 103
Width: 568
Flags: W
LayerCount: 2
Fore
SplineSet
543 710 m 0,0,1
 543 684 543 684 514 668 c 0,2,3
 491 656 491 656 470 656 c 0,4,5
 416 656 416 656 416 701 c 0,6,7
 416 730 416 730 431.5 752 c 128,-1,8
 447 774 447 774 475 774 c 0,9,10
 500 774 500 774 521.5 753.5 c 128,-1,11
 543 733 543 733 543 710 c 0,0,1
261 688 m 1,12,13
 206 628 206 628 184 628 c 0,14,15
 151 628 151 628 104 655 c 0,16,17
 52 684 52 684 52 715 c 0,18,19
 52 735 52 735 72 754.5 c 128,-1,20
 92 774 92 774 120 774 c 0,21,22
 136 774 136 774 181.5 754.5 c 128,-1,23
 227 735 227 735 248 717 c 1,24,25
 250 707 250 707 261 688 c 1,12,13
EndSplineSet
EndChar

StartChar: copyright
Encoding: 169 169 104
Width: 564
Flags: W
LayerCount: 2
Fore
SplineSet
562 438 m 0,0,1
 562 434 562 434 559.5 427.5 c 128,-1,2
 557 421 557 421 557 417 c 0,3,4
 561 357 561 357 524 275 c 0,5,6
 517 262 517 262 496 236 c 0,7,8
 491 231 491 231 464 212 c 1,9,10
 461 202 461 202 465 202 c 1,11,12
 464 202 464 202 462.5 203 c 128,-1,13
 461 204 461 204 456 204 c 0,14,15
 453 204 453 204 431 189 c 128,-1,16
 409 174 409 174 401 171 c 0,17,18
 340 146 340 146 327 146 c 0,19,20
 323 146 323 146 322 148 c 1,21,-1
 322 148 l 1,22,23
 322 149 322 149 318 149 c 256,24,25
 314 149 314 149 309.5 145 c 128,-1,26
 305 141 305 141 302 140 c 0,27,28
 253 129 253 129 233 129 c 0,29,30
 229 129 229 129 210 127 c 128,-1,31
 191 125 191 125 187 125 c 1,32,33
 140 138 l 2,34,35
 130 140 130 140 109 147 c 1,36,37
 82 160 82 160 50.5 196 c 128,-1,38
 19 232 19 232 14 260 c 0,39,40
 6 298 6 298 6 332 c 0,41,42
 6 334 6 334 12 376 c 0,43,44
 18 426 18 426 53 478 c 128,-1,45
 88 530 88 530 133 556 c 1,46,47
 141 565 141 565 161 578 c 1,48,49
 252 613 252 613 296 613 c 0,50,51
 325 613 325 613 350 598 c 128,-1,52
 375 583 375 583 376 583 c 0,53,54
 456 583 456 583 465 581 c 1,55,56
 467 577 467 577 472 573 c 1,57,58
 511 570 511 570 539 519 c 0,59,60
 562 475 562 475 562 438 c 0,0,1
521 368 m 1,61,-1
 521 435 l 1,62,63
 522 473 522 473 503 506 c 0,64,65
 489 528 489 528 462 538 c 1,66,67
 420 548 l 1,68,69
 420 545 420 545 417 542 c 1,70,71
 411 548 411 548 405 548 c 1,72,73
 422 522 422 522 422 511 c 0,74,75
 422 501 422 501 405 501 c 0,76,77
 389 501 389 501 372.5 519.5 c 128,-1,78
 356 538 356 538 337 538 c 0,79,80
 333 538 333 538 322 534.5 c 128,-1,81
 311 531 311 531 306 531 c 0,82,83
 297 531 297 531 279 537 c 1,84,-1
 279 546 l 1,85,86
 292 560 292 560 303 560 c 1,87,88
 298 569 298 569 291 576 c 1,89,90
 287 574 287 574 280 570 c 1,91,92
 198 568 198 568 125 496 c 0,93,94
 50 421 50 421 50 335 c 0,95,96
 50 296 50 296 64 261 c 0,97,98
 80 216 80 216 109 208 c 1,99,100
 109 205 109 205 107 204 c 1,101,102
 118 199 118 199 136 189 c 0,103,104
 168 170 168 170 250 170 c 0,105,106
 255 170 255 170 310.5 185 c 128,-1,107
 366 200 366 200 388 209 c 128,-1,108
 410 218 410 218 443.5 244.5 c 128,-1,109
 477 271 477 271 486 290 c 0,110,111
 497 315 497 315 512 362 c 1,112,113
 516 368 516 368 521 368 c 1,61,-1
419 299 m 0,114,115
 419 285 419 285 401 280 c 0,116,117
 372 271 372 271 315 256 c 0,118,119
 296 252 296 252 258 252 c 0,120,121
 219 252 219 252 196 277 c 128,-1,122
 173 302 173 302 173 334 c 0,123,124
 173 381 173 381 221 424 c 128,-1,125
 269 467 269 467 315 467 c 0,126,127
 324 467 324 467 357 458 c 0,128,129
 356 458 356 458 351 455 c 1,130,131
 356 452 356 452 363 445 c 0,132,133
 363 444 363 444 374 420 c 0,134,135
 381 401 381 401 381 397 c 0,136,137
 381 391 381 391 373.5 384.5 c 128,-1,138
 366 378 366 378 361 378 c 0,139,140
 349 378 349 378 340 402 c 128,-1,141
 331 426 331 426 313 426 c 0,142,143
 278 426 278 426 246 388 c 0,144,145
 218 354 218 354 218 327 c 0,146,147
 218 321 218 321 226.5 308.5 c 128,-1,148
 235 296 235 296 240 296 c 0,149,150
 244 296 244 296 246.5 297.5 c 128,-1,151
 249 299 249 299 253 299 c 0,152,153
 258 299 258 299 256 296 c 128,-1,154
 254 293 254 293 258 293 c 2,155,-1
 282 293 l 2,156,157
 287 293 287 293 338 308 c 128,-1,158
 389 323 389 323 393 323 c 0,159,160
 403 323 403 323 411 315.5 c 128,-1,161
 419 308 419 308 419 299 c 0,114,115
EndSplineSet
EndChar

StartChar: ordfeminine
Encoding: 170 170 105
Width: 495
Flags: W
LayerCount: 2
Fore
SplineSet
440 503 m 0,0,1
 440 501 440 501 433.5 474.5 c 128,-1,2
 427 448 427 448 427 436 c 0,3,4
 427 451 427 451 434 320 c 0,5,6
 435 304 435 304 432 276 c 0,7,8
 431 268 431 268 421.5 262.5 c 128,-1,9
 412 257 412 257 404 257 c 0,10,11
 391 257 391 257 383 275 c 1,12,13
 379 275 379 275 370.5 269 c 128,-1,14
 362 263 362 263 357 262 c 0,15,16
 334 258 334 258 292 246 c 1,17,18
 250 230 250 230 223 230 c 2,19,-1
 200 230 l 2,20,21
 170 230 170 230 137.5 259.5 c 128,-1,22
 105 289 105 289 105 319 c 0,23,24
 105 351 105 351 140 387 c 1,25,26
 168 412 168 412 197 437 c 1,27,28
 196 446 196 446 197 463 c 1,29,30
 202 471 202 471 216.5 483.5 c 128,-1,31
 231 496 231 496 267 515 c 1,32,33
 292 524 292 524 336 535.5 c 128,-1,34
 380 547 380 547 387 547 c 0,35,36
 408 547 408 547 424 533 c 128,-1,37
 440 519 440 519 440 503 c 0,0,1
535 182 m 1,38,39
 507 172 507 172 479 172 c 1,40,41
 485 172 485 172 436 169 c 0,42,43
 394 166 394 166 372 169 c 1,44,-1
 152 134 l 1,45,46
 141 134 141 134 131 138 c 1,47,-1
 124 131 l 1,48,49
 120 134 120 134 111 134 c 0,50,51
 98 134 98 134 64.5 125.5 c 128,-1,52
 31 117 31 117 22 117 c 0,53,54
 18 117 18 117 9.5 120.5 c 128,-1,55
 1 124 1 124 -3 124 c 1,56,-1
 -7 128 l 1,57,-1
 -7 151 l 1,58,59
 3 161 3 161 15 163 c 1,60,61
 36 163 36 163 82 166 c 1,62,63
 113 170 113 170 184 182 c 0,64,65
 247 192 247 192 251 192 c 0,66,67
 254 192 254 192 259.5 190.5 c 128,-1,68
 265 189 265 189 269 189 c 0,69,70
 272 189 272 189 274 194 c 1,71,72
 310 200 310 200 380 208 c 1,73,74
 409 208 409 208 464 210 c 0,75,76
 472 211 472 211 487 213.5 c 128,-1,77
 502 216 502 216 506 216 c 0,78,79
 523 216 523 216 535 202 c 1,80,-1
 535 182 l 1,38,39
391 495 m 1,81,82
 389 499 389 499 384 506 c 1,83,84
 362 501 362 501 354 504 c 1,85,86
 264 471 264 471 237 446 c 1,87,88
 266 450 266 450 312 421 c 0,89,90
 354 393 354 393 384 356 c 1,91,92
 383 432 383 432 391 495 c 1,81,82
354 321 m 1,93,94
 343 332 343 332 325.5 354 c 128,-1,95
 308 376 308 376 299 382 c 0,96,97
 271 401 271 401 254 401 c 0,98,99
 220 401 220 401 202 388 c 0,100,101
 195 383 195 383 163 345 c 0,102,103
 150 331 150 331 150 320 c 0,104,105
 150 305 150 305 175 287 c 0,106,107
 197 271 197 271 206 271 c 0,108,109
 210 271 210 271 219 272.5 c 128,-1,110
 228 274 228 274 232 274 c 128,-1,111
 236 274 236 274 245 277.5 c 128,-1,112
 254 281 254 281 257 281 c 0,113,114
 280 281 280 281 300 290 c 0,115,116
 329 302 329 302 347 306 c 1,117,118
 354 312 354 312 354 321 c 1,93,94
EndSplineSet
EndChar

StartChar: guillemotleft
Encoding: 171 171 106
Width: 590
Flags: W
LayerCount: 2
Fore
SplineSet
571 235 m 1,0,1
 564 235 564 235 560 231 c 1,2,-1
 553 238 l 1,3,4
 416 204 416 204 388 204 c 0,5,6
 347 204 347 204 347 243 c 0,7,8
 347 245 347 245 366 267.5 c 128,-1,9
 385 290 385 290 423 331 c 0,10,11
 431 339 431 339 460 358 c 0,12,13
 495 381 495 381 505 381 c 0,14,15
 516 381 516 381 531 366 c 1,16,-1
 531 354 l 1,17,18
 520 347 520 347 500 334 c 1,19,20
 473 323 473 323 411 256 c 1,21,22
 414 251 414 251 422 251 c 0,23,24
 426 251 426 251 489.5 264.5 c 128,-1,25
 553 278 553 278 557 278 c 2,26,-1
 571 278 l 1,27,-1
 571 235 l 1,0,1
344 207 m 1,28,29
 344 191 344 191 339 184 c 1,30,31
 306 184 306 184 246 178 c 1,32,33
 204 171 204 171 120 154 c 1,34,35
 113 150 113 150 100 143 c 1,36,37
 76 135 76 135 48 135 c 0,38,39
 44 135 44 135 31 131.5 c 128,-1,40
 18 128 18 128 14 128 c 0,41,42
 6 128 6 128 -4.5 137 c 128,-1,43
 -15 146 -15 146 -15 154 c 0,44,45
 -15 173 -15 173 12 200 c 1,46,47
 69 249 69 249 184 352 c 1,48,49
 188 354 188 354 193 354 c 0,50,51
 197 354 197 354 207 345.5 c 128,-1,52
 217 337 217 337 217 331 c 0,53,54
 217 324 217 324 146 263 c 0,55,56
 60 188 60 188 53 181 c 1,57,58
 58 176 58 176 62 176 c 256,59,60
 66 176 66 176 76 178 c 128,-1,61
 86 180 86 180 91 180 c 256,62,63
 96 180 96 180 91 185 c 1,64,-1
 299 227 l 1,65,66
 308 227 308 227 324.5 221 c 128,-1,67
 341 215 341 215 342 207 c 1,68,-1
 344 207 l 1,28,29
EndSplineSet
EndChar

StartChar: registered
Encoding: 174 174 107
Width: 597
Flags: W
LayerCount: 2
Fore
SplineSet
598 332 m 0,0,1
 598 296 598 296 591 275 c 128,-1,2
 584 254 584 254 562 222 c 0,3,4
 550 205 550 205 508 182 c 0,5,6
 433 142 433 142 405 130 c 0,7,8
 345 102 345 102 296 92 c 0,9,10
 259 84 259 84 221 84 c 0,11,12
 195 84 195 84 159 92 c 0,13,14
 141 96 141 96 135 107 c 1,15,16
 69 129 69 129 19 260 c 0,17,18
 18 261 18 261 13 304 c 0,19,20
 12 311 12 311 8 327 c 128,-1,21
 4 343 4 343 4 347 c 0,22,23
 4 390 4 390 27.5 441.5 c 128,-1,24
 51 493 51 493 80 508 c 1,25,26
 89 519 89 519 107 533 c 1,27,28
 213 579 213 579 234 579 c 0,29,30
 238 579 238 579 242.5 577.5 c 128,-1,31
 247 576 247 576 251 576 c 0,32,33
 256 576 256 576 253.5 579.5 c 128,-1,34
 251 583 251 583 255 583 c 0,35,36
 351 583 351 583 362.5 580 c 128,-1,37
 374 577 374 577 402 571 c 1,38,39
 408 567 408 567 423 559 c 1,40,41
 432 558 432 558 450 550 c 1,42,43
 459 539 459 539 481 518 c 1,44,45
 498 509 498 509 532 485 c 1,46,47
 558 463 558 463 579 412 c 0,48,49
 598 365 598 365 598 332 c 0,0,1
557 325 m 0,50,51
 557 343 557 343 538 395 c 0,52,53
 515 456 515 456 494 456 c 0,54,55
 489 456 489 456 478 451 c 128,-1,56
 467 446 467 446 463 446 c 0,57,58
 447 446 447 446 447 486 c 1,59,60
 429 497 429 497 371 497 c 0,61,62
 367 497 367 497 333.5 482 c 128,-1,63
 300 467 300 467 296 467 c 0,64,65
 280 467 280 467 280 482 c 0,66,67
 280 500 280 500 315.5 519.5 c 128,-1,68
 351 539 351 539 352 541 c 1,69,70
 260 541 260 541 257 540 c 0,71,72
 225 535 225 535 169 513 c 1,73,74
 162 508 162 508 152 502 c 1,75,76
 107 492 107 492 79.5 448 c 128,-1,77
 52 404 52 404 52 351 c 0,78,79
 52 308 52 308 65 273 c 0,80,81
 73 252 73 252 102 201 c 0,82,83
 120 170 120 170 134 157 c 1,84,85
 160 136 160 136 180 136 c 0,86,87
 184 136 184 136 184 137.5 c 128,-1,88
 184 139 184 139 188 139 c 256,89,90
 192 139 192 139 194.5 134 c 128,-1,91
 197 129 197 129 200 129 c 2,92,-1
 263 129 l 2,93,94
 267 129 267 129 280.5 132.5 c 128,-1,95
 294 136 294 136 297 136 c 0,96,97
 306 136 306 136 343 147 c 0,98,99
 385 159 385 159 408 171 c 0,100,101
 480 207 480 207 508 229 c 0,102,103
 529 245 529 245 543 273.5 c 128,-1,104
 557 302 557 302 557 325 c 0,50,51
35 306 m 1,105,-1
 22 311 l 1,106,-1
 22 306 l 1,107,-1
 33 302 l 1,108,-1
 35 306 l 1,105,-1
386 206 m 0,109,110
 386 194 386 194 357 183 c 1,111,112
 344 183 344 183 338 193 c 0,113,114
 324 216 324 216 320 221 c 1,115,-1
 312 215 l 1,116,117
 316 222 316 222 313 236 c 0,118,119
 311 240 311 240 305 247 c 1,120,121
 262 272 262 272 238 272 c 0,122,123
 224 272 224 272 216 263 c 1,124,125
 214 259 214 259 216 211 c 0,126,127
 217 175 217 175 191 175 c 0,128,129
 186 175 186 175 179 177 c 1,130,131
 167 185 167 185 167 213 c 0,132,133
 168 237 168 237 169 260 c 1,134,135
 168 267 168 267 163 285.5 c 128,-1,136
 158 304 158 304 158 306 c 0,137,138
 158 311 158 311 165 320.5 c 128,-1,139
 172 330 172 330 173 332 c 0,140,141
 176 351 176 351 182 389 c 1,142,143
 189 393 189 393 190 394 c 1,144,145
 189 396 189 396 185 397 c 0,146,147
 186 397 186 397 192 399.5 c 128,-1,148
 198 402 198 402 202 402 c 0,149,150
 205 402 205 402 214 397 c 1,151,152
 226 386 226 386 226 351 c 0,153,154
 226 347 226 347 231 347 c 0,155,156
 249 347 249 347 285 368 c 0,157,158
 301 378 301 378 311 393 c 1,159,160
 303 409 303 409 292 409 c 0,161,162
 288 409 288 409 289 407 c 128,-1,163
 290 405 290 405 285 405 c 0,164,165
 281 405 281 405 276 410.5 c 128,-1,166
 271 416 271 416 268 416 c 0,167,168
 255 419 255 419 229 419 c 0,169,170
 206 419 206 419 160 394 c 1,171,172
 155 388 155 388 143 375 c 0,173,174
 139 371 139 371 127 371 c 0,175,176
 106 371 106 371 106 388 c 0,177,178
 106 422 106 422 169 444 c 0,179,180
 215 459 215 459 237 458 c 0,181,182
 245 458 245 458 263 459 c 128,-1,183
 281 460 281 460 282 460 c 0,184,185
 302 460 302 460 330.5 442 c 128,-1,186
 359 424 359 424 359 403 c 0,187,188
 359 397 359 397 347 365 c 0,189,190
 346 362 346 362 331 353 c 0,191,192
 311 341 311 341 270 318 c 1,193,194
 282 306 282 306 291 306 c 0,195,196
 296 306 296 306 298 307 c 128,-1,197
 300 308 300 308 301 308 c 1,198,199
 299 308 299 308 294 305 c 1,200,201
 317 301 317 301 342 272 c 1,202,203
 378 226 l 0,204,205
 386 215 386 215 386 206 c 0,109,110
EndSplineSet
EndChar

StartChar: overscore
Encoding: 175 175 108
AltUni2: 0002c9.ffffffff.0
Width: 376
Flags: W
LayerCount: 2
Fore
SplineSet
354 271 m 0,0,1
 354 261 354 261 343.5 252.5 c 128,-1,2
 333 244 333 244 328 244 c 0,3,4
 324 244 324 244 311 247 c 128,-1,5
 298 250 298 250 291 250 c 1,6,-1
 79 206 l 1,7,-1
 37 206 l 1,8,9
 35 214.5 l 130,-1,10
 33 223 33 223 33 235 c 1,11,12
 38 247 38 247 55 249 c 0,13,14
 61 250 61 250 198 276 c 0,15,16
 275 291 275 291 318 291 c 0,17,18
 354 291 354 291 354 271 c 0,0,1
EndSplineSet
EndChar

StartChar: degree
Encoding: 176 176 109
Width: 249
Flags: W
LayerCount: 2
Fore
SplineSet
248 585 m 0,0,1
 248 576 248 576 242 561 c 1,2,3
 230 551 230 551 230 549 c 256,4,5
 230 547 230 547 235 547 c 1,6,7
 230 547 230 547 224 540 c 0,8,9
 213 527 213 527 212 526 c 0,10,11
 202 515 202 515 179 496 c 0,12,13
 177 494 177 494 149 479 c 0,14,15
 130 468 130 468 128 461 c 1,16,17
 119 461 119 461 99 455.5 c 128,-1,18
 79 450 79 450 76 450 c 2,19,-1
 66 450 l 2,20,21
 46 450 46 450 26 469 c 128,-1,22
 6 488 6 488 6 506 c 0,23,24
 6 510 6 510 8 523.5 c 128,-1,25
 10 537 10 537 10 541 c 1,26,27
 13 542 13 542 20 547 c 1,28,29
 16 550 16 550 13 550 c 1,30,31
 17 557 17 557 17 564 c 0,32,33
 17 570 17 570 13 580 c 128,-1,34
 9 590 9 590 9 595 c 0,35,36
 9 609 9 609 31 626 c 0,37,38
 49 640 49 640 69 647 c 0,39,40
 93 655 93 655 189 655 c 0,41,42
 196 655 196 655 216.5 639 c 128,-1,43
 237 623 237 623 241 616 c 0,44,45
 241 615 241 615 244.5 602 c 128,-1,46
 248 589 248 589 248 585 c 0,0,1
207 586 m 0,47,48
 207 600 207 600 176 610 c 0,49,50
 151 617 151 617 139 617 c 1,51,52
 151 617 151 617 86 609 c 0,53,54
 84 609 84 609 62 596 c 1,55,56
 47 513 47 513 47 527 c 0,57,58
 47 504 47 504 65 488 c 1,59,60
 71 490 71 490 90 495 c 0,61,62
 113 501 113 501 155 529 c 0,63,64
 207 562 207 562 207 586 c 0,47,48
EndSplineSet
EndChar

StartChar: plusminus
Encoding: 177 177 110
Width: 450
Flags: W
LayerCount: 2
Fore
SplineSet
242 456 m 1,0,-1
 236 456 l 1,1,-1
 236 465 l 1,2,-1
 242 465 l 1,3,-1
 242 456 l 1,0,-1
445 340 m 1,4,5
 429 325 429 325 406 325 c 0,6,7
 402 325 402 325 393.5 327 c 128,-1,8
 385 329 385 329 381 329 c 256,9,10
 377 329 377 329 359.5 324.5 c 128,-1,11
 342 320 342 320 335 319 c 0,12,13
 300 319 300 319 227 312 c 1,14,15
 224 305 224 305 224 300 c 0,16,17
 224 292 224 292 234 283 c 1,18,-1
 234 227 l 1,19,20
 223 218 223 218 202 203 c 1,21,-1
 187 203 l 1,22,23
 187 211 187 211 184 227 c 1,24,25
 181 226 181 226 181 223 c 1,26,27
 182 227 182 227 174 237 c 1,28,29
 180 265 180 265 180 286 c 0,30,31
 180 315 180 315 166 315 c 0,32,33
 165 315 165 315 149 312 c 0,34,35
 136 310 136 310 129 312 c 1,36,-1
 119 305 l 1,37,38
 119 313 119 313 116 315 c 1,39,40
 113 312 113 312 103 312 c 0,41,42
 98 312 98 312 95.5 308.5 c 128,-1,43
 93 305 93 305 89 305 c 256,44,45
 85 305 85 305 80 308 c 128,-1,46
 75 311 75 311 72 311 c 0,47,48
 63 311 63 311 41 311 c 0,49,50
 20 312 20 312 16 312 c 128,-1,51
 12 312 12 312 10.5 315.5 c 128,-1,52
 9 318 9 318 9 319 c 2,53,-1
 9 339 l 1,54,55
 11 341 11 341 17 345 c 1,56,57
 48 348 48 348 177 356 c 1,58,59
 178 381 178 381 184 433 c 1,60,61
 182 440 182 440 181 447 c 0,62,63
 179 459 179 459 179 468 c 0,64,65
 179 496 179 496 202 496 c 0,66,67
 214 496 214 496 221 478 c 1,68,69
 223 468 223 468 226 459 c 1,70,71
 232 465 232 465 234 465 c 1,72,73
 234 463 234 463 231 455 c 0,74,75
 229 449 229 449 231 446 c 1,76,77
 231 433 231 433 229 406 c 128,-1,78
 227 379 227 379 227 365 c 1,79,80
 233 360 233 360 236 360 c 0,81,82
 240 360 240 360 249 365 c 1,83,84
 263 366 263 366 297 365 c 0,85,86
 340 364 340 364 352 364 c 0,87,88
 378 364 378 364 386 367 c 1,89,90
 406 366 406 366 445 359 c 1,91,-1
 445 340 l 1,4,5
442 156 m 2,92,93
 442 152 442 152 436 150 c 0,94,95
 425 146 425 146 424 145.5 c 128,-1,96
 423 145 423 145 408.5 144.5 c 128,-1,97
 394 144 394 144 394 138 c 1,98,99
 387 141 387 141 362 141 c 0,100,101
 358 141 358 141 283 126 c 128,-1,102
 208 111 208 111 203 111 c 0,103,104
 160 111 160 111 136 113 c 0,105,106
 135 113 135 113 131.5 110 c 128,-1,107
 128 107 128 107 123 107 c 0,108,109
 98 107 98 107 98 128 c 0,110,111
 98 148 98 148 113 150 c 1,112,113
 149 151 149 151 218 156 c 0,114,115
 277 162 277 162 314 176 c 1,116,117
 330 176 330 176 362.5 181 c 128,-1,118
 395 186 395 186 396 186 c 0,119,120
 419 186 419 186 442 175 c 1,121,-1
 442 156 l 2,92,93
EndSplineSet
EndChar

StartChar: twosuperior
Encoding: 178 178 111
Width: 218
Flags: W
LayerCount: 2
Fore
SplineSet
206 473 m 0,0,1
 206 466 206 466 192 458.5 c 128,-1,2
 178 451 178 451 170 451 c 0,3,4
 167 451 167 451 161.5 453 c 128,-1,5
 156 455 156 455 152 455 c 0,6,7
 147 455 147 455 95 444.5 c 128,-1,8
 43 434 43 434 39 434 c 0,9,10
 12 434 12 434 12 460 c 0,11,12
 12 491 12 491 99 554 c 0,13,14
 114 565 114 565 114 579 c 0,15,16
 114 590 114 590 105 601 c 128,-1,17
 96 612 96 612 83 612 c 0,18,19
 74 612 74 612 37 575 c 1,20,21
 29 571 29 571 13 564 c 1,22,23
 5 577 5 577 5 589 c 0,24,25
 5 614 5 614 37 635 c 0,26,27
 64 653 64 653 89 653 c 0,28,29
 99 653 99 653 110 646 c 1,30,31
 119 646 119 646 134 641 c 1,32,33
 142 636 142 636 152 613.5 c 128,-1,34
 162 591 162 591 162 581 c 0,35,36
 162 577 162 577 158 563 c 128,-1,37
 154 549 154 549 154 543 c 0,38,39
 154 545 154 545 150 550 c 1,40,41
 122 524 122 524 83 485 c 1,42,43
 183 496 183 496 174 496 c 1,44,45
 206 496 206 496 206 473 c 0,0,1
EndSplineSet
EndChar

StartChar: threesuperior
Encoding: 179 179 112
Width: 229
Flags: W
LayerCount: 2
Fore
SplineSet
231 498 m 0,0,1
 231 487 231 487 218 468 c 128,-1,2
 205 449 205 449 193 441 c 1,3,4
 114 410 114 410 106 410 c 0,5,6
 102 410 102 410 86.5 408 c 128,-1,7
 71 406 71 406 67 406 c 0,8,9
 46 406 46 406 10 422 c 0,10,11
 -32 440 -32 440 -32 459 c 0,12,13
 -32 461 -32 461 -27 464.5 c 128,-1,14
 -22 468 -22 468 -22 469 c 0,15,16
 -23 471 -23 471 -29 472 c 1,17,18
 -13 488 -13 488 -6 488 c 0,19,20
 -5 488 -5 488 8 483 c 1,21,22
 24 450 24 450 65 450 c 2,23,-1
 96 450 l 2,24,25
 117 450 117 450 142 461 c 0,26,27
 171 474 171 474 183 493 c 1,28,29
 178 508 178 508 164 511 c 1,30,31
 129 511 129 511 67 522 c 1,32,-1
 67 542 l 1,33,34
 76 560 76 560 89 560 c 0,35,36
 94 560 94 560 93 558 c 0,37,38
 91 554 91 554 93 553 c 1,39,40
 101 562 101 562 135 573 c 128,-1,41
 169 584 169 584 183 602 c 1,42,43
 176 613 176 613 162 614 c 0,44,45
 163 614 163 614 137 614 c 0,46,47
 97 614 97 614 62 606 c 1,48,49
 43 600 43 600 7 590 c 1,50,51
 -1 598 -1 598 -1 607 c 0,52,53
 -1 612 -1 612 5 622 c 128,-1,54
 11 632 11 632 17 633 c 0,55,56
 90 655 90 655 128 655 c 0,57,58
 138 655 138 655 193 650 c 1,59,60
 204 642 204 642 226 624 c 1,61,62
 227 621 227 621 227 606 c 0,63,64
 227 580 227 580 211 571 c 0,65,66
 183 553 183 553 180 550 c 1,67,68
 192 545 192 545 216 531 c 1,69,70
 231 519 231 519 231 498 c 0,0,1
EndSplineSet
EndChar

StartChar: acute
Encoding: 180 180 113
Width: 213
Flags: W
LayerCount: 2
Fore
SplineSet
211 647 m 1,0,1
 210 631 210 631 192 615 c 1,2,3
 177 605 177 605 163 595 c 1,4,5
 158 589 158 589 146 577 c 1,6,7
 141 574 141 574 132 571 c 0,8,9
 131 570 131 570 16 478 c 1,10,-1
 18 474 l 1,11,12
 16.5 475.5 l 130,-1,13
 15 477 15 477 10 477 c 0,14,15
 7 477 7 477 -2 470 c 128,-1,16
 -11 463 -11 463 -15 463 c 0,17,18
 -20 463 -20 463 -27 466.5 c 128,-1,19
 -34 470 -34 470 -37 470 c 1,20,21
 -36 483 -36 483 -13 504.5 c 128,-1,22
 10 526 10 526 25 531 c 1,23,-1
 187 657 l 1,24,25
 190 657 190 657 198.5 652 c 128,-1,26
 207 647 207 647 211 647 c 1,0,1
EndSplineSet
EndChar

StartChar: mu1
Encoding: 181 181 114
AltUni2: 0003bc.ffffffff.0
Width: 428
Flags: W
LayerCount: 2
Fore
SplineSet
432 -8 m 1,0,1
 414 -20 414 -20 386 -34.5 c 128,-1,2
 358 -49 358 -49 352 -49 c 2,3,-1
 336 -49 l 2,4,5
 323 -49 323 -49 300 -25 c 1,6,7
 301 -21 301 -21 301 -15 c 1,8,9
 290 -3 290 -3 290 21 c 0,10,11
 290 35 290 35 296 42 c 1,12,-1
 296 78 l 1,13,-1
 290 84 l 1,14,15
 275 77 275 77 260 59 c 0,16,17
 238 31 238 31 238 30 c 1,18,19
 220 20 220 20 182 -1 c 0,20,21
 173 -5 173 -5 151 -5 c 0,22,23
 122 -5 122 -5 107 25 c 1,24,25
 98 53 98 53 88 80 c 1,26,-1
 80 80 l 1,27,28
 55 39 55 39 0 -12 c 0,29,30
 -33 -43 -33 -43 -67 -74 c 1,31,32
 -83 -92 -83 -92 -117 -130 c 1,33,34
 -117 -134 -117 -134 -114 -137 c 1,35,36
 -128 -140 -128 -140 -140.5 -158 c 128,-1,37
 -153 -176 -153 -176 -169 -176 c 0,38,39
 -189 -176 -189 -176 -189 -157 c 0,40,41
 -189 -145 -189 -145 -72 -27 c 1,42,43
 -13 31 -13 31 20 59 c 0,44,45
 21 60 21 60 52 97 c 1,46,47
 56 107 56 107 65 126 c 1,48,49
 75 140 75 140 93 168 c 1,50,51
 112 202 112 202 120 222 c 0,52,53
 129 246 129 246 137 270 c 1,54,55
 154 312 154 312 169 312 c 0,56,57
 183 312 183 312 193 292 c 1,58,59
 193 288 193 288 184 268 c 0,60,61
 173 244 173 244 170 235 c 0,62,63
 158 198 158 198 151 157 c 0,64,65
 151 155 151 155 146 146 c 128,-1,66
 141 137 141 137 141 133.5 c 128,-1,67
 141 130 141 130 140 122 c 128,-1,68
 139 114 139 114 139 109 c 0,69,70
 139 61 139 61 155 43 c 1,71,72
 174 43 174 43 186 51 c 0,73,74
 194 55 194 55 207 64 c 1,75,76
 267 123 267 123 378 270 c 1,77,78
 382 271 382 271 389 271 c 0,79,80
 412 271 412 271 412 251 c 0,81,82
 412 248 412 248 406 238 c 128,-1,83
 400 228 400 228 400 223 c 256,84,85
 400 218 400 218 405 215 c 1,86,87
 379 202 379 202 356 132 c 0,88,89
 336 71 336 71 336 34 c 0,90,91
 336 2 336 2 354 2 c 0,92,93
 380 2 380 2 411 39 c 1,94,95
 412 43 412 43 413.5 49.5 c 128,-1,96
 415 56 415 56 420 56 c 2,97,-1
 432 56 l 1,98,-1
 432 -8 l 1,0,1
EndSplineSet
EndChar

